<svg xmlns="http://www.w3.org/2000/svg" version="1.1" xmlns:xlink="http://www.w3.org/1999/xlink" xmlns:svgjs="http://svgjs.dev/svgjs" width="1000" height="1000" viewBox="0 0 1000 1000"><rect width="1000" height="1000" fill="#000000"></rect><g transform="matrix(0.7,0,0,0.7,149.84897959183667,150.19913061224486)"><svg viewBox="0 0 343 343" data-background-color="#ffbe79" preserveAspectRatio="xMidYMid meet" height="999" width="1000" xmlns="http://www.w3.org/2000/svg" xmlns:xlink="http://www.w3.org/1999/xlink"><g id="tight-bounds" transform="matrix(1,0,0,1,0.0740000000000407,0.07400000000001228)"><svg viewBox="0 0 342.85155851775386 342.85155851775386" height="342.85155851775386" width="342.85155851775386"><g><svg></svg></g><g><svg viewBox="0 0 342.85155851775386 342.85155851775386" height="342.85155851775386" width="342.85155851775386"><g><path d="M0 171.426c0-94.676 76.75-171.426 171.426-171.426 94.676 0 171.426 76.75 171.426 171.426 0 94.676-76.75 171.426-171.426 171.426-94.676 0-171.426-76.75-171.426-171.426zM171.426 339.067c92.586 0 167.641-75.056 167.641-167.641 0-92.586-75.056-167.641-167.641-167.641-92.586 0-167.641 75.056-167.641 167.641 0 92.586 75.056 167.641 167.641 167.641z" data-fill-palette-color="tertiary" fill="#374151" stroke="transparent"></path><ellipse rx="164.56874808852186" ry="164.56874808852186" cx="171.42577925887693" cy="171.42577925887693" fill="#374151" stroke="transparent" stroke-width="0" fill-opacity="1" data-fill-palette-color="tertiary"></ellipse></g><g transform="matrix(1,0,0,1,64.84655864529837,102.24213995883774)"><svg viewBox="0 0 213.1584412271571 138.36727860007838" height="138.36727860007838" width="213.1584412271571"><g><svg viewBox="0 0 213.1584412271571 138.36727860007838" height="138.36727860007838" width="213.1584412271571"><g><svg viewBox="0 0 213.1584412271571 138.36727860007838" height="138.36727860007838" width="213.1584412271571"><g transform="matrix(1,0,0,1,0,60.55792568829676)"><svg viewBox="0 0 213.1584412271571 77.80935291178162" height="77.80935291178162" width="213.1584412271571"><g><svg viewBox="0 0 213.1584412271571 77.80935291178162" height="77.80935291178162" width="213.1584412271571"><g><svg viewBox="0 0 213.1584412271571 41.966646950708395" height="41.966646950708395" width="213.1584412271571"><g transform="matrix(1,0,0,1,0,0)"><svg width="213.1584412271571" viewBox="1.350000023841858 -36.25 277.82000732421875 54.703125" height="41.966646950708395" data-palette-color="#ffbe79"><path d="M29-26.8Q29.3-24.65 29.6-20.55L29.6-20.55 29.7-17.95Q29.7-10.7 31.6-5L31.6-5Q31.85-4.2 31.85-2.95L31.85-2.95Q31.85-2.25 31.75-1.05L31.75-1.05Q31.7-0.25 31.15 0.23 30.6 0.7 29.75 0.7L29.75 0.7Q29.65 0.7 29.2 0.6L29.2 0.6Q27.95 0.3 27.3-0.53 26.65-1.35 26.65-2.55L26.65-2.55Q26.65-2.95 26.7-3.15L26.7-3.15Q26.7-3.45 26.7-4L26.7-4Q26.7-4.9 26.6-5.65L26.6-5.65Q26.2-7.6 25.35-10.85L25.35-10.85Q25.05-12.2 24.1-12.2L24.1-12.2Q23.75-12.2 23.3-12.05L23.3-12.05Q21.75-11.6 20.58-11.2 19.4-10.8 18.5-10.55L18.5-10.55 16.1-9.85Q14.05-9.25 12.3-8.9L12.3-8.9Q10.45-8.5 9.6-6.85L9.6-6.85Q8.8-5.35 7.3-2.8L7.3-2.8Q6.35-1.1 4.8-1.1L4.8-1.1Q4.05-1.1 3.33-1.48 2.6-1.85 2.1-2.45L2.1-2.45Q1.35-3.3 1.35-4.1L1.35-4.1Q1.35-4.65 1.65-5.25L1.65-5.25 5.1-12.25Q10.8-23.85 11.9-26.15L11.9-26.15Q15.05-32.25 20.45-34.55L20.45-34.55Q21.6-35.1 22.8-35.1L22.8-35.1Q24.3-35.1 25.58-34.33 26.85-33.55 27.55-32.15L27.55-32.15Q28.55-30.1 29-26.8L29-26.8ZM12.85-14.15Q19.7-15.35 24.5-16.1L24.5-16.1Q24.4-20.9 24.23-23.68 24.05-26.45 23.5-29.25L23.5-29.25Q20.85-28.95 19.5-26.65L19.5-26.65Q17.15-22.95 15-19L15-19Q14.65-18.35 13.7-16.1L13.7-16.1 12.85-14.15ZM54.8-12.6Q54.65-9 54.3-7.15 53.95-5.3 52.92-3.63 51.9-1.95 49.6 0.25L49.6 0.25 51.35 1.2Q52.95 2.1 53.7 2.45L53.7 2.45Q55.95 3.5 57.1 5.13 58.25 6.75 58.25 8.7L58.25 8.7Q58.25 11.1 56.65 13.45L56.65 13.45Q54.95 15.95 52.4 17.18 49.85 18.4 46.95 18.45L46.95 18.45Q44.8 18.5 42.55 17.75L42.55 17.75Q41.5 17.4 40.45 16.23 39.4 15.05 38.77 13.6 38.15 12.15 38.2 11.05L38.2 11.05Q38.25 10.8 38.4 10.53 38.55 10.25 38.75 10.2L38.75 10.2Q38.8 10.15 38.95 10.15L38.95 10.15Q39.1 10.15 39.37 10.28 39.65 10.4 39.75 10.45L39.75 10.45Q40 10.55 40.1 10.9L40.1 10.9Q40.8 12.45 41.65 13.35 42.5 14.25 43.9 14.15L43.9 14.15Q49.05 13.8 50.95 11.3L50.95 11.3Q51.6 10.5 52.02 9.47 52.45 8.45 52.45 7.55L52.45 7.55Q52.45 6.25 51.82 5.65 51.2 5.05 49.9 4.8L49.9 4.8Q48.5 4.55 47.22 4.1 45.95 3.65 44.15 2.75L44.15 2.75Q43.25 2.3 42.9 1.95 42.55 1.6 42.55 1.1L42.55 1.1Q42.55 0.6 43.15-1.45L43.15-1.45Q43.25-1.75 42.22-2.45 41.2-3.15 40.45-3.6L40.45-3.6Q37.75-5.2 37.75-8.8L37.75-8.8Q37.75-9.8 37.9-10.7L37.9-10.7Q38.8-16.2 43.25-18.5L43.25-18.5Q44.3-19.05 45.45-19.05L45.45-19.05Q46.3-19.05 47.2-18.8 48.1-18.55 48.25-18.5L48.25-18.5 49.3-18.2Q50.05-18 50.75-18L50.75-18Q51.7-18 52.47-18.35 53.25-18.7 54.05-19.45L54.05-19.45Q55.2-20.4 56.5-20.4L56.5-20.4Q57.45-20.4 58.2-19.88 58.95-19.35 59.3-18.35L59.3-18.35Q59.4-17.95 59.4-17.7L59.4-17.7Q59.4-17.25 59.25-17L59.25-17Q59.1-16.8 58.4-15.7L58.4-15.7Q58.05-15.05 57.75-14.6 57.45-14.15 56.8-13.6L56.8-13.6Q56.35-13.35 55.85-13.23 55.35-13.1 55.07-13 54.8-12.9 54.8-12.6L54.8-12.6ZM44.3-13.35Q42.75-11.55 42.75-9.7L42.75-9.7Q42.75-8.4 43.57-7.23 44.4-6.05 46.1-5.2L46.1-5.2Q48-5.95 49.05-7.8 50.1-9.65 50.1-11.85L50.1-11.85Q50.1-13.2 49.7-14.3 49.3-15.4 48.1-16L48.1-16Q45.8-15.1 44.3-13.35L44.3-13.35ZM71.59-7.8Q71.09-7.5 70.15-7.5L70.15-7.5Q69.8-7.5 69.3-7.55 68.8-7.6 68.45-7.55L68.45-7.55Q68.84-5.9 70.34-4.88 71.84-3.85 73.7-3.85L73.7-3.85Q75.3-3.85 76.55-4.55L76.55-4.55Q78.4-5.5 79.75-6.8L79.75-6.8Q80.7-7.75 81.55-7.75L81.55-7.75Q82.09-7.75 82.5-7.2L82.5-7.2Q82.9-6.55 82.9-5.6L82.9-5.6Q82.9-4.6 82.5-4.05L82.5-4.05Q81.2-2.05 79.12-1.3 77.05-0.55 74.3-0.55L74.3-0.55Q71.45-0.55 68.8-1.8 66.15-3.05 64.27-5.23 62.4-7.4 61.8-10.05L61.8-10.05Q61.4-11.6 61.4-13.1L61.4-13.1Q61.4-15.45 62.72-16.9 64.05-18.35 67-19.65L67-19.65Q69.7-20.8 72-20.8L72-20.8Q73.65-20.8 75.2-20.3L75.2-20.3Q80-18.8 80-16.2L80-16.2Q80-14.55 78.05-12.2L78.05-12.2Q77.09-11.1 75.8-10.25 74.5-9.4 73.27-8.72 72.05-8.05 71.59-7.8L71.59-7.8ZM73.7-17.05Q73.65-17.3 73.32-17.48 73-17.65 72.95-17.7L72.95-17.7Q71.59-17.8 70.2-16.93 68.8-16.05 67.87-14.7 66.95-13.35 66.95-12.1L66.95-12.1 67-11.7Q67.05-11.5 67.52-11.2 68-10.9 68.09-11L68.09-11Q71.65-13.65 73.45-15.25L73.45-15.25Q73.75-15.55 73.75-16.35L73.75-16.35Q73.75-16.85 73.7-17.05L73.7-17.05ZM93.89-18.85Q93.89-18.55 93.79-18.07 93.69-17.6 93.74-17.45L93.74-17.45Q97.19-18.2 99.59-18.2L99.59-18.2Q103.34-18.2 105.24-14.6L105.24-14.6Q106.79-11.55 106.79-7.85L106.79-7.85Q106.79-6.9 106.59-5.1L106.59-5.1Q106.44-3.9 105.64-3.18 104.84-2.45 103.74-2.45L103.74-2.45Q102.59-2.45 102.12-2.88 101.64-3.3 101.57-3.85 101.49-4.4 101.49-5.6L101.49-5.6 101.44-6.65Q101.34-9.65 101.04-11.85L101.04-11.85Q100.89-12.75 100.37-13.13 99.84-13.5 98.99-13.5L98.99-13.5Q98.19-13.5 97.09-13.25L97.09-13.25Q95.39-12.8 94.82-12.55 94.24-12.3 93.14-11.5L93.14-11.5Q92.79-11.25 92.64-10.5 92.49-9.75 92.49-9.65L92.49-9.65Q91.84-6.45 91.09-2L91.09-2Q91.04-1.8 90.89-1.05 90.74-0.3 90.32 0.03 89.89 0.35 89.09 0.25L89.09 0.25Q85.94-0.15 85.89-2.4L85.89-2.4Q85.84-5.3 86.34-9.25L86.34-9.25Q86.69-12.1 86.99-13.85L86.99-13.85Q87.09-14.65 87.27-15.8 87.44-16.95 87.59-18.45L87.59-18.45Q87.74-19.6 87.89-20.15 88.04-20.7 88.59-21.08 89.14-21.45 90.29-21.45L90.29-21.45Q91.74-21.45 92.69-20.8 93.64-20.15 93.89-18.95L93.89-18.95 93.89-18.85ZM126.89-5.1Q125.39-3.4 123.84-2.43 122.29-1.45 120.39-1.45L120.39-1.45Q119.99-1.45 119.29-1.55L119.29-1.55 118.29-1.5Q111.99-1.45 109.09-7.5L109.09-7.5Q108.44-8.9 108.44-10.85L108.44-10.85Q108.44-12.55 108.94-14.1 109.44-15.65 110.34-16.65L110.34-16.65 111.29-17.8Q111.99-18.7 112.39-19.05L112.39-19.05Q114.14-20.75 117.04-20.75L117.04-20.75Q118.54-20.75 119.99-20.25 121.44-19.75 122.54-18.9L122.54-18.9Q122.74-18.75 122.94-18.28 123.14-17.8 123.14-17.5L123.14-17.5Q123.14-17.1 122.54-16.63 121.94-16.15 121.44-16.2L121.44-16.2Q118.04-16.6 115.99-14.58 113.94-12.55 113.94-9.05L113.94-9.05Q113.94-6.75 114.92-5.8 115.89-4.85 118.14-4.85L118.14-4.85Q119.54-4.85 120.79-5.43 122.04-6 123.69-7.05L123.69-7.05 124.64-7.65Q125.14-7.9 125.97-7.98 126.79-8.05 127.24-8.1L127.24-8.1Q127.19-7.65 127.22-7.23 127.24-6.8 127.24-6.55L127.24-6.55Q127.24-5.45 126.89-5.1L126.89-5.1ZM137.54-7.8Q137.04-7.5 136.09-7.5L136.09-7.5Q135.74-7.5 135.24-7.55 134.74-7.6 134.39-7.55L134.39-7.55Q134.79-5.9 136.29-4.88 137.79-3.85 139.64-3.85L139.64-3.85Q141.24-3.85 142.49-4.55L142.49-4.55Q144.34-5.5 145.69-6.8L145.69-6.8Q146.64-7.75 147.49-7.75L147.49-7.75Q148.04-7.75 148.44-7.2L148.44-7.2Q148.84-6.55 148.84-5.6L148.84-5.6Q148.84-4.6 148.44-4.05L148.44-4.05Q147.14-2.05 145.06-1.3 142.99-0.55 140.24-0.55L140.24-0.55Q137.39-0.55 134.74-1.8 132.09-3.05 130.21-5.23 128.34-7.4 127.74-10.05L127.74-10.05Q127.34-11.6 127.34-13.1L127.34-13.1Q127.34-15.45 128.66-16.9 129.99-18.35 132.94-19.65L132.94-19.65Q135.64-20.8 137.94-20.8L137.94-20.8Q139.59-20.8 141.14-20.3L141.14-20.3Q145.94-18.8 145.94-16.2L145.94-16.2Q145.94-14.55 143.99-12.2L143.99-12.2Q143.04-11.1 141.74-10.25 140.44-9.4 139.21-8.72 137.99-8.05 137.54-7.8L137.54-7.8ZM139.64-17.05Q139.59-17.3 139.26-17.48 138.94-17.65 138.89-17.7L138.89-17.7Q137.54-17.8 136.14-16.93 134.74-16.05 133.81-14.7 132.89-13.35 132.89-12.1L132.89-12.1 132.94-11.7Q132.99-11.5 133.46-11.2 133.94-10.9 134.04-11L134.04-11Q137.59-13.65 139.39-15.25L139.39-15.25Q139.69-15.55 139.69-16.35L139.69-16.35Q139.69-16.85 139.64-17.05L139.64-17.05ZM193.33-4.8Q193.48-4.3 193.48-3.85L193.48-3.85Q193.48-3.05 193.01-2.58 192.53-2.1 191.73-2.1L191.73-2.1Q191.43-2.1 191.23-2.15L191.23-2.15Q188.98-2.65 187.68-3.25L187.68-3.25Q186.68-3.7 183.98-5.5L183.98-5.5Q181.93-6.85 180.58-7.6L180.58-7.6Q178.83-8.55 176.83-8.9L176.83-8.9Q175.93-9.05 172.58-9.4L172.58-9.4Q171.08-9.5 170.38-9.6L170.38-9.6 169.48-2.2 169.53-1.4Q169.53 0.4 169.11 1 168.68 1.6 167.38 1.6L167.38 1.6Q166.03 1.6 165.03 0.75 164.03-0.1 164.03-1.35L164.03-1.35Q164.03-5.15 164.43-8.1L164.43-8.1Q165.83-17.15 170.88-26.9L170.88-26.9Q173.73-32.35 179.63-35.3L179.63-35.3Q181.53-36.25 183.48-36.25L183.48-36.25Q185.48-36.25 187.21-35.23 188.93-34.2 190.08-32.25L190.08-32.25Q191.13-30.5 191.13-28.85L191.13-28.85Q191.13-26.55 189.33-24.2L189.33-24.2Q187.18-21.4 183.23-16.25L183.23-16.25 179.98-12.05Q180.03-12.05 180.11-11.93 180.18-11.8 180.28-11.7L180.28-11.7 181.38-11.1Q185.53-8.85 187.48-7.55L187.48-7.55Q189.38-6.4 191.53-6.4L191.53-6.4Q192.18-6.4 192.53-6.45L192.53-6.45Q192.68-6.2 192.93-5.7 193.18-5.2 193.33-4.8L193.33-4.8ZM174.83-14.7Q176.88-17 178.96-19.5 181.03-22 182.63-24.2L182.63-24.2Q183.28-25.1 183.73-26.13 184.18-27.15 184.56-28.2 184.93-29.25 185.08-29.7L185.08-29.7Q185.13-29.85 185.13-30.2L185.13-30.2Q185.13-30.6 185.03-31.2 184.93-31.8 184.88-32.05L184.88-32.05Q181.23-30.95 178.23-27.55 175.23-24.15 173.51-20 171.78-15.85 171.73-12.85L171.73-12.85Q172.73-12.75 173.31-13.2 173.88-13.65 174.83-14.7L174.83-14.7ZM203.48-23.3Q203.38-23 202.76-22.65 202.13-22.3 201.73-22L201.73-22 200.33-22.75Q198.28-23.85 197.53-24.5L197.53-24.5Q197.13-24.8 197.13-25.25L197.13-25.25Q197.13-25.55 197.36-25.78 197.58-26 198.03-26L198.03-26Q199.98-26 202.78-25L202.78-25Q203.08-24.95 203.33-24.33 203.58-23.7 203.48-23.3L203.48-23.3ZM198.98-14Q199.13-14.65 199.18-14.95 199.23-15.25 199.23-15.6L199.23-15.6Q199.23-16.3 199.66-16.7 200.08-17.1 201.28-17.1L201.28-17.1Q202.68-17.1 203.76-16.23 204.83-15.35 205.08-13.95L205.08-13.95Q205.23-13.25 205.28-12.4 205.33-11.55 205.33-11.3L205.33-11.3 206.03-2.75Q206.18-1.4 205.66-0.68 205.13 0.05 203.68 0.05L203.68 0.05Q202.43 0.05 201.56-0.65 200.68-1.35 200.48-2.45L200.48-2.45 199.18-13.05 198.98-14ZM225.53-2.55Q225.08-2.75 224.63-2.75L224.63-2.75Q224.18-2.75 223.85-2.53 223.53-2.3 223.13-1.85L223.13-1.85Q222.53-1.25 221.88-0.85L221.88-0.85Q221.28-0.5 219.68-0.2L219.68-0.2Q218.98-0.1 218.53-0.1L218.53-0.1Q216.43-0.1 214.15-1.03 211.88-1.95 210.93-3.25L210.93-3.25Q209.93-4.65 209.98-6.25L209.98-6.25Q210.03-8.65 211.98-11.05L211.98-11.05Q213.88-13.35 215.45-14.3 217.03-15.25 219.78-15.5L219.78-15.5Q220.38-15.5 221.5-15.7 222.63-15.9 222.63-16.25L222.63-16.25Q222.63-16.95 222-17.53 221.38-18.1 219.48-18.1L219.48-18.1Q218.78-18.1 217.38-18L217.38-18Q215.98-17.9 215.43-17.9L215.43-17.9Q213.73-17.9 212.98-18.45L212.98-18.45Q212.78-18.55 212.78-19.4L212.78-19.4Q212.78-20.9 213.83-21.3L213.83-21.3Q215.98-22.1 218.28-22.15L218.28-22.15Q221.18-22.15 223.65-20.88 226.13-19.6 227.28-17.7L227.28-17.7Q228.43-15.8 228.78-12.45L228.78-12.45Q229.18-8.7 229.18-2.9L229.18-2.9Q229.18-1.3 228.73-1.05L228.73-1.05Q228.33-0.8 227.98-0.8L227.98-0.8Q227.53-0.8 227.15-1.07 226.78-1.35 226.33-1.85L226.33-1.85Q225.88-2.4 225.53-2.55L225.53-2.55ZM217.63-3.15Q219.98-3.85 222.23-5.4L222.23-5.4Q222.73-5.75 223.13-6.3 223.53-6.85 223.63-7L223.63-7Q223.73-7.15 223.8-7.88 223.88-8.6 223.83-9.05L223.83-9.05Q223.78-9.2 223.65-9.85 223.53-10.5 223.28-11L223.28-11Q223.03-11.4 222.48-11.75 221.93-12.1 221.48-12.05L221.48-12.05Q220.53-12 219.43-11.35 218.33-10.7 217.38-9.6L217.38-9.6Q216.43-8.45 215.9-7.28 215.38-6.1 215.38-5.1L215.38-5.1Q215.48-3.75 216.13-3.3L216.13-3.3Q216.48-3.05 216.98-3.05L216.98-3.05Q217.38-3.05 217.63-3.15L217.63-3.15ZM253.48-5.85Q253.58-5 254.23-3.65L254.23-3.65Q254.33-3.4 254.45-3.1 254.58-2.8 254.73-2.4L254.73-2.4Q253.03-1.45 252.03-1.45L252.03-1.45Q251.28-1.45 250.63-1.93 249.98-2.4 249.18-3.45L249.18-3.45Q248.58-4.15 248.18-4.15L248.18-4.15Q247.78-4.15 247.33-3.5L247.33-3.5Q246.33-2 244.85-1.25 243.38-0.5 241.73-0.5L241.73-0.5Q239.88-0.5 238.15-1.38 236.43-2.25 235.48-3.75L235.48-3.75Q234.48-5.3 234.48-8.35L234.48-8.35Q234.48-10.55 235.08-12.8 235.68-15.05 236.78-16.5L236.78-16.5Q237.98-18.15 239.63-19.13 241.28-20.1 243.28-20.1L243.28-20.1Q243.93-20.1 244.28-20.05L244.28-20.05Q244.43-20 244.73-20L244.73-20Q245.88-20 245.88-21.1L245.88-21.1 245.83-21.5Q245.13-27.25 244.58-29.95L244.58-29.95Q244.53-30.2 244.43-30.75 244.33-31.3 244.33-31.65L244.33-31.65Q244.33-32.35 244.63-32.88 244.93-33.4 245.68-33.75L245.68-33.75Q245.98-33.9 246.38-33.9L246.38-33.9Q247.43-33.9 248.58-33.23 249.73-32.55 249.93-31.7L249.93-31.7Q250.68-28.6 251.33-23.65L251.33-23.65 252.23-16.05Q253.03-9.25 253.48-5.85L253.48-5.85ZM240.13-12.1Q239.28-9.65 239.28-7.6L239.28-7.6Q239.28-4.75 241.28-3.4L241.28-3.4Q242.08-3.85 242.55-4.42 243.03-5 243.68-6.1L243.68-6.1 244.23-7.05Q245.38-8.7 245.75-10.75 246.13-12.8 246.23-15.95L246.23-15.95Q246.28-16.4 246.05-16.98 245.83-17.55 245.58-17.6L245.58-17.6Q245.18-17.7 244.23-17.38 243.28-17.05 243.03-16.7L243.03-16.7Q241.88-15.35 241.2-14.35 240.53-13.35 240.13-12.1L240.13-12.1ZM265.37-26.7Q265.42-21.85 265.65-18.73 265.87-15.6 266.72-12.1L266.72-12.1Q268.82-12.85 270.57-12.85L270.57-12.85Q273.52-12.85 275.67-11.1 277.82-9.35 278.57-6.75L278.57-6.75Q279.17-4.85 279.17-1.65L279.17-1.65 279.12 2.25Q279.12 2.6 278.72 3.05 278.32 3.5 277.92 3.6L277.92 3.6Q277.77 3.65 277.47 3.65L277.47 3.65Q276.32 3.65 275.07 2.53 273.82 1.4 273.77 0.3L273.77 0.3 273.67-2.3Q273.67-3.2 273.57-4.9L273.57-4.9Q273.47-6.65 273.17-7.4L273.17-7.4Q272.87-8.25 272.42-8.7 271.97-9.15 271.42-9.15L271.42-9.15Q271.02-9.15 270.55-8.8 270.07-8.45 269.72-7.85L269.72-7.85Q268.67-6.2 266.97-1.35L266.97-1.35Q266.42 0.4 265.02 0.4L265.02 0.4Q264.87 0.4 264.37 0.3L264.37 0.3Q264.07 0.2 263.22-0.03 262.37-0.25 261.9-0.75 261.42-1.25 261.42-2.2L261.42-2.2Q261.42-11.65 260.27-17.85L260.27-17.85Q259.72-20.95 259.72-25L259.72-25 259.72-28.35 259.72-30.1Q259.72-30.8 260.47-31.3 261.22-31.8 262.17-31.8L262.17-31.8Q262.97-31.8 263.52-31.45L263.52-31.45Q264.52-30.85 264.95-29.95 265.37-29.05 265.37-27.7L265.37-27.7 265.37-26.7Z" opacity="1" transform="matrix(1,0,0,1,0,0)" fill="#ffbe79" class="undefined-text-0" data-fill-palette-color="quaternary" id="text-0"></path></svg></g></svg></g><g transform="matrix(1,0,0,1,0,51.87396509624383)"><svg viewBox="0 0 213.1584412271571 25.935387815537787" height="25.935387815537787" width="213.1584412271571"><g transform="matrix(1,0,0,1,0,0)"><svg width="213.1584412271571" viewBox="2.1500000953674316 -33.88999938964844 281.3166809082031 34.22999954223633" height="25.935387815537787" data-palette-color="#ffbe79"><path d="M30.71-9.08L30.96-8.94Q30.96-8.4 30.27-5.2 29.59-2 29.3-1.86L29.3-1.86Q25.73 0.29 17.63 0.29L17.63 0.29Q11.18 0.29 6.67-4.44 2.15-9.18 2.15-15.72L2.15-15.72Q2.15-22.66 6.79-27.61 11.43-32.57 18.16-32.57L18.16-32.57Q23.93-32.57 30.03-31.35L30.03-31.35Q29.93-24.8 29.93-24.32L29.93-24.32Q29.93-23.58 28.91-23.58L28.91-23.58Q28.42-23.58 28.27-23.83L28.27-23.83Q28.13-24.46 27.91-25.12 27.69-25.78 26.98-26.83 26.27-27.88 25.27-28.64 24.27-29.39 22.44-29.96 20.61-30.52 18.31-30.52L18.31-30.52Q13.53-30.52 10.16-26.29 6.79-22.07 6.79-16.75L6.79-16.75Q6.79-12.79 8.15-9.47 9.52-6.15 12.48-3.98 15.43-1.81 19.48-1.81L19.48-1.81Q24.32-1.81 26.95-4.64L26.95-4.64Q27.64-5.37 28.15-6.57 28.66-7.76 28.93-8.57 29.2-9.38 29.35-9.38L29.35-9.38Q29.64-9.38 30.05-9.28 30.47-9.18 30.71-9.08L30.71-9.08ZM47.07-3.15Q47.9-2.44 49.21-2.44 50.53-2.44 51.75-3.25 52.97-4.05 52.97-4.88L52.97-4.88 52.97-9.91Q52.58-9.72 51.07-9.23 49.56-8.74 48.7-8.37 47.85-8.01 47.04-7.15 46.24-6.3 46.24-5.18L46.24-5.18Q46.24-3.86 47.07-3.15ZM51.66-21.29L51.66-21.29Q54.34-21.29 55.51-20 56.68-18.7 56.68-15.82L56.68-15.82 56.68-4.54Q56.68-3.52 57.22-2.83 57.76-2.15 58.69-2.15L58.69-2.15Q59.37-2.15 60.4-2.83L60.4-2.83Q60.59-2.83 60.59-2.44L60.59-2.44Q60.59-1.81 60.35-1.42L60.35-1.42Q58.34 0.29 56.93 0.29L56.93 0.29Q55.81 0.29 54.78-0.63 53.75-1.56 53.36-2.59L53.36-2.59Q53.32-2.59 53-2.27 52.68-1.95 52.14-1.54 51.61-1.12 50.9-0.68 50.19-0.24 49.24 0.05 48.29 0.34 47.31 0.34L47.31 0.34Q45.06 0.34 43.6-0.85 42.13-2.05 42.13-4.44L42.13-4.44Q42.13-5.52 42.67-6.47 43.21-7.42 43.94-8.03 44.67-8.64 45.94-9.28 47.21-9.91 48.12-10.23 49.02-10.55 50.48-11.04 51.95-11.52 52.53-11.77L52.53-11.77Q52.97-11.91 52.97-12.5L52.97-12.5 52.97-16.16Q52.97-17.72 52-18.58 51.02-19.43 49.65-19.43L49.65-19.43Q48.19-19.43 47.21-18.43 46.24-17.43 46.24-15.82L46.24-15.82Q46.24-14.11 44.23-14.11L44.23-14.11Q42.87-14.11 42.33-15.04L42.33-15.04Q42.33-17.14 45.41-19.21 48.48-21.29 51.66-21.29ZM83.39-21.34L83.39-21.34Q86.27-21.34 87.2-19.92L87.2-19.92Q87.2-18.21 86.66-17.43 86.12-16.65 85.34-16.65L85.34-16.65Q84.46-16.65 83.73-17.48 83-18.31 81.73-18.31L81.73-18.31Q80.21-18.31 79.09-16.89 77.97-15.48 77.97-13.92L77.97-13.92 77.97-6.59Q77.97-3.76 78.36-2.25L78.36-2.25Q78.46-1.9 79.65-1.59 80.85-1.27 81.34-1.27L81.34-1.27Q81.48-1.27 81.53-0.68 81.58-0.1 81.48 0.15L81.48 0.15Q76.6-0.1 76.21-0.1L76.21-0.1Q75.92-0.1 70.89 0.15L70.89 0.15Q70.69-0.05 70.69-0.66 70.69-1.27 70.89-1.27L70.89-1.27Q71.47-1.27 72.62-1.59 73.77-1.9 73.87-2.25L73.87-2.25Q74.21-3.66 74.21-5.66L74.21-5.66 74.21-14.89Q74.21-16.8 73.52-17.53L73.52-17.53Q73.04-18.12 72.33-18.33 71.62-18.55 71.16-18.55 70.69-18.55 70.69-18.65L70.69-18.65Q70.69-19.82 70.99-19.87L70.99-19.87Q76.16-20.65 77.72-21.14L77.72-21.14Q77.77-21.14 77.87-21.17 77.97-21.19 77.97-21.19L77.97-21.19Q78.16-21.19 78.21-20.78 78.26-20.36 78.21-20.17L78.21-20.17 77.92-17.72Q78.8-19.04 80.34-20.19 81.87-21.34 83.39-21.34ZM129.23-30.08L129.23-30.08Q127.03-30.08 125.81-29.74L125.81-29.74Q125.61-29.69 125.49-29.37 125.37-29.05 125.3-27.91 125.22-26.76 125.22-24.37L125.22-24.37 125.22-18.46Q125.22-17.04 129.47-17.04L129.47-17.04 130.69-17.04Q132.4-17.04 134.23-18.75 136.06-20.46 136.06-23.29L136.06-23.29Q136.06-30.08 129.23-30.08ZM130.01-32.23L130.01-32.23Q131.67-32.23 133.38-31.74 135.09-31.25 136.75-30.27 138.41-29.3 139.48-27.49 140.56-25.68 140.56-23.29L140.56-23.29Q140.56-21.24 139.02-18.99 137.48-16.75 134.84-15.53L134.84-15.53Q134.35-15.33 134.55-15.04L134.55-15.04Q136.99-9.91 140.17-6.45L140.17-6.45Q144.85-1.32 147.78-1.32L147.78-1.32Q147.93-1.03 147.93-0.63L147.93-0.63Q147.93-0.2 147.78 0.1L147.78 0.1Q147.25 0.24 146.46 0.24L146.46 0.24Q139.63 0.24 134.6-6.79L134.6-6.79Q133.82-7.86 132.82-9.35 131.82-10.84 131.35-11.5 130.89-12.16 130.28-12.94 129.67-13.72 129.2-14.11 128.74-14.5 128.2-14.75L128.2-14.75Q127.67-14.94 126.4-14.94L126.4-14.94Q126.01-14.94 125.81-14.92 125.61-14.89 125.42-14.7 125.22-14.5 125.22-14.11L125.22-14.11 125.22-6.93Q125.22-3.66 125.61-2.69L125.61-2.69Q125.86-2.05 127.35-1.66 128.84-1.27 129.47-1.27L129.47-1.27Q129.67-1.27 129.67-0.59L129.67-0.59Q129.67-0.15 129.57 0.15L129.57 0.15Q124.69-0.1 123.22-0.1L123.22-0.1 117.26 0.15Q117.12 0 117.12-0.73L117.12-0.73Q117.12-1.37 117.26-1.37L117.26-1.37Q117.95-1.37 119.17-1.66 120.39-1.95 120.63-2.39L120.63-2.39Q120.98-2.98 120.98-6.98L120.98-6.98 120.98-25.44Q120.98-28.32 120.63-29.64L120.63-29.64Q120.49-30.03 119.19-30.37 117.9-30.71 117.26-30.71L117.26-30.71Q117.07-30.71 117.07-31.3L117.07-31.3Q117.07-31.93 117.26-32.13L117.26-32.13 123.12-32.03Q124.59-32.03 126.59-32.13 128.59-32.23 130.01-32.23ZM166.62-19.48L166.62-19.48Q164.09-19.48 162.74-17.31 161.4-15.14 161.4-13.72L161.4-13.72Q161.4-13.38 161.69-13.38L161.69-13.38 171.21-13.38Q171.46-13.38 171.46-13.87L171.46-13.87Q171.46-15.43 170.14-17.46 168.82-19.48 166.62-19.48ZM167.11-21.29L167.11-21.29Q169.36-21.29 171.07-20.43 172.78-19.58 173.68-18.24 174.58-16.89 175-15.5 175.41-14.11 175.41-12.74L175.41-12.74Q175.41-11.77 175.12-11.55 174.83-11.33 174-11.33L174-11.33 161.69-11.33Q161.3-11.33 161.3-11.08L161.3-11.08Q161.3-8.01 163.16-5.42 165.01-2.83 168.53-2.83L168.53-2.83Q169.55-2.83 170.48-3.03 171.41-3.22 172.07-3.49 172.73-3.76 173.19-4.03 173.66-4.3 174-4.54L174-4.54 174.34-4.79Q174.63-4.79 174.63-4.15L174.63-4.15Q174.63-3.76 174.34-3.27L174.34-3.27Q173.36-1.9 171.46-0.81 169.55 0.29 167.31 0.29L167.31 0.29Q163.26 0.29 160.35-2.76 157.45-5.81 157.45-10.21L157.45-10.21Q157.45-15.33 160.2-18.31 162.96-21.29 167.11-21.29ZM200.56-21.39L200.56-21.39Q203.97-21.39 205.34-18.95 206.71-16.5 206.71-11.04L206.71-11.04 206.71-6.59Q206.71-3.76 207.1-2.25L207.1-2.25Q207.2-1.9 208.37-1.59 209.54-1.27 210.03-1.27L210.03-1.27Q210.17-1.27 210.22-0.68 210.27-0.1 210.17 0.15L210.17 0.15Q205.29-0.1 204.95-0.1L204.95-0.1Q204.85-0.1 199.82 0.15L199.82 0.15Q199.63-0.05 199.63-0.66 199.63-1.27 199.82-1.27L199.82-1.27Q200.41-1.27 201.46-1.59 202.51-1.9 202.61-2.25L202.61-2.25Q202.95-3.66 202.95-5.66L202.95-5.66 202.95-10.55Q202.95-15.09 201.78-16.75 200.6-18.41 197.97-18.41L197.97-18.41Q196.41-18.41 194.96-17.26 193.52-16.11 193.52-15.19L193.52-15.19 193.52-6.59Q193.52-3.76 193.91-2.25L193.91-2.25Q194.01-1.9 195.18-1.59 196.36-1.27 196.84-1.27L196.84-1.27Q196.99-1.27 197.04-0.68 197.09-0.1 196.99 0.15L196.99 0.15Q192.11-0.1 191.77-0.1L191.77-0.1Q191.47-0.1 186.44 0.15L186.44 0.15Q186.25-0.05 186.25-0.66 186.25-1.27 186.44-1.27L186.44-1.27Q187.03-1.27 188.18-1.59 189.32-1.9 189.42-2.25L189.42-2.25Q189.76-3.66 189.76-5.66L189.76-5.66 189.76-14.89Q189.76-16.8 189.08-17.53L189.08-17.53Q188.59-18.12 187.88-18.33 187.18-18.55 186.71-18.55 186.25-18.55 186.25-18.65L186.25-18.65Q186.25-19.82 186.54-19.87L186.54-19.87Q191.72-20.65 193.28-21.14L193.28-21.14Q193.33-21.14 193.43-21.17 193.52-21.19 193.52-21.19L193.52-21.19Q193.72-21.19 193.77-20.78 193.82-20.36 193.77-20.17L193.77-20.17Q193.57-18.8 193.57-18.21L193.57-18.21Q193.57-18.02 193.67-18.02L193.67-18.02Q193.72-18.02 193.82-18.12L193.82-18.12Q194.94-19.29 196.87-20.34 198.8-21.39 200.56-21.39ZM223.45-5.86L223.45-18.26 220.62-18.26Q220.37-18.26 220.37-19.29L220.37-19.29Q220.37-19.58 220.42-19.63L220.42-19.63Q221.84-20.26 223.5-22.22L223.5-22.22Q224.04-22.85 224.55-23.66 225.06-24.46 225.4-25.05 225.75-25.63 225.75-25.68L225.75-25.68Q227.21-25.68 227.21-25.44L227.21-25.44 227.21-20.61Q228.48-20.61 231.07-20.58 233.66-20.56 233.8-20.56L233.8-20.56Q234.19-20.56 234.19-20.12L234.19-20.12Q234.19-19.24 233.7-18.26L233.7-18.26 227.21-18.26 227.21-6.3Q227.21-4.35 228.21-3.17 229.21-2 230.82-2L230.82-2Q232.29-2 233.85-2.93L233.85-2.93Q234-3.03 234.29-2.51 234.58-2 234.53-1.95L234.53-1.95Q233.8-1.17 232.29-0.42 230.77 0.34 229.16 0.34L229.16 0.34Q226.72 0.34 225.09-1.27 223.45-2.88 223.45-5.86L223.45-5.86ZM249.91-3.15Q250.74-2.44 252.06-2.44 253.38-2.44 254.6-3.25 255.82-4.05 255.82-4.88L255.82-4.88 255.82-9.91Q255.43-9.72 253.91-9.23 252.4-8.74 251.55-8.37 250.69-8.01 249.89-7.15 249.08-6.3 249.08-5.18L249.08-5.18Q249.08-3.86 249.91-3.15ZM254.5-21.29L254.5-21.29Q257.19-21.29 258.36-20 259.53-18.7 259.53-15.82L259.53-15.82 259.53-4.54Q259.53-3.52 260.07-2.83 260.6-2.15 261.53-2.15L261.53-2.15Q262.22-2.15 263.24-2.83L263.24-2.83Q263.44-2.83 263.44-2.44L263.44-2.44Q263.44-1.81 263.19-1.42L263.19-1.42Q261.19 0.29 259.77 0.29L259.77 0.29Q258.65 0.29 257.63-0.63 256.6-1.56 256.21-2.59L256.21-2.59Q256.16-2.59 255.84-2.27 255.53-1.95 254.99-1.54 254.45-1.12 253.74-0.68 253.04-0.24 252.08 0.05 251.13 0.34 250.15 0.34L250.15 0.34Q247.91 0.34 246.44-0.85 244.98-2.05 244.98-4.44L244.98-4.44Q244.98-5.52 245.52-6.47 246.05-7.42 246.79-8.03 247.52-8.64 248.79-9.28 250.06-9.91 250.96-10.23 251.86-10.55 253.33-11.04 254.79-11.52 255.38-11.77L255.38-11.77Q255.82-11.91 255.82-12.5L255.82-12.5 255.82-16.16Q255.82-17.72 254.84-18.58 253.87-19.43 252.5-19.43L252.5-19.43Q251.03-19.43 250.06-18.43 249.08-17.43 249.08-15.82L249.08-15.82Q249.08-14.11 247.08-14.11L247.08-14.11Q245.71-14.11 245.17-15.04L245.17-15.04Q245.17-17.14 248.25-19.21 251.33-21.29 254.5-21.29ZM276.17-5.66L276.17-5.66 276.17-26.81Q276.17-28.47 275.88-29.93L275.88-29.93Q275.64-30.71 273.39-30.71L273.39-30.71 272.95-30.71Q272.66-30.71 272.66-31.25L272.66-31.25Q272.66-32.03 272.95-32.03L272.95-32.03Q274.42-32.18 275.66-32.42 276.91-32.67 277.62-32.91 278.32-33.15 278.81-33.37 279.3-33.59 279.54-33.74L279.54-33.74 279.74-33.89 279.84-33.89Q280.03-33.89 280.23-33.62 280.42-33.35 280.47-33.11L280.47-33.11Q279.93-31.54 279.93-28.86L279.93-28.86 279.93-6.59Q279.93-3.76 280.33-2.25L280.33-2.25Q280.42-1.9 281.59-1.59 282.77-1.27 283.26-1.27L283.26-1.27Q283.4-1.27 283.45-0.68 283.5-0.1 283.4 0.15L283.4 0.15Q278.52-0.1 278.18-0.1L278.18-0.1Q277.88-0.1 272.85 0.15L272.85 0.15Q272.66-0.05 272.66-0.66 272.66-1.27 272.85-1.27L272.85-1.27Q273.44-1.27 274.59-1.59 275.74-1.9 275.83-2.25L275.83-2.25Q276.17-3.66 276.17-5.66Z" opacity="1" transform="matrix(1,0,0,1,0,0)" fill="#ffbe79" class="undefined-text-1" data-fill-palette-color="quaternary" id="text-1"></path></svg></g></svg></g></svg></g></svg></g><g transform="matrix(1,0,0,1,40.713262274387006,0)"><svg viewBox="0 0 131.7319166783831 50.65060754276133" height="50.65060754276133" width="131.7319166783831"><g><svg version="1.0" xmlns="http://www.w3.org/2000/svg" xmlns:xlink="http://www.w3.org/1999/xlink" x="0" y="0" viewBox="0 0.00023700809106230736 100.00000762939453 38.449764251708984" enable-background="new 0 0 100 38.449" xml:space="preserve" width="131.7319166783831" height="50.65060754276133" class="icon-icon-0" data-fill-palette-color="quaternary" id="icon-0"><path d="M99.929 15.958c-0.053-0.283-0.157-0.619-0.364-1.056L80.803 0.005h-37.75c-0.874-0.054-1.348 0.359-1.763 0.841L28.672 13.487 1.078 18.071C0.694 18.406 0.309 18.735 0 19.599l0.059 9.493c0.598 1.521 1.006 1.324 1.459 1.536h5.312c0-12.905 19.225-12.856 19.225 0h49.021c0-12.933 19.08-12.906 19.08 0h4.354c0.731-0.067 1.142-0.713 1.49-1.47L99.929 15.958zM59.408 15.346H33.254c-0.995-0.393-1.13-0.988-0.716-1.713l9.403-9.278c0.212-0.18 0.379-0.428 0.747-0.374h16.72V15.346zM86.488 15.348H62.516V3.983h14.066c0.368-0.055 0.535 0.193 0.747 0.374l8.058 8.115C86.13 13.591 87.623 15.122 86.488 15.348z" fill="#ffbe79" data-fill-palette-color="quaternary"></path><path d="M16.396 22.843c-4.31 0-7.804 3.493-7.804 7.803s3.494 7.804 7.804 7.804 7.804-3.494 7.804-7.804S20.705 22.843 16.396 22.843zM16.396 33.921c-1.819 0-3.294-1.475-3.294-3.293 0-1.819 1.475-3.294 3.294-3.294 1.818 0 3.293 1.475 3.293 3.294C19.688 32.446 18.214 33.921 16.396 33.921z" fill="#ffbe79" data-fill-palette-color="quaternary"></path><path d="M84.615 22.839c-4.31 0-7.804 3.494-7.804 7.804s3.494 7.804 7.804 7.804 7.803-3.494 7.803-7.804S88.925 22.839 84.615 22.839zM84.615 33.921c-1.819 0-3.294-1.475-3.294-3.293 0-1.819 1.475-3.294 3.294-3.294 1.818 0 3.293 1.475 3.293 3.294C87.908 32.446 86.434 33.921 84.615 33.921z" fill="#ffbe79" data-fill-palette-color="quaternary"></path></svg></g></svg></g><g></g></svg></g></svg></g></svg></g></svg></g><defs></defs></svg><rect width="342.85155851775386" height="342.85155851775386" fill="none" stroke="none" visibility="hidden"></rect></g></svg></g></svg>