<svg xmlns="http://www.w3.org/2000/svg" viewBox="0 0 750 500"><g id="freepik--background-complete--inject-10"><path d="M721.15,209.88c.46-3.29-4.19-6-7.69-6.28-1.66-.14-3.39.12-5-.43-3.42-1.2-4.79-5.61-8.12-7-2.5-1.05-5.37-.12-7.79,1.1s-4.8,2.75-7.51,2.92c-2.35.15-4.9-.72-7,.43-1.54.85-2.34,2.62-3.75,3.66a8.92,8.92,0,0,1-4.9,1.33,13.84,13.84,0,0,0-5.05.82c-1.56.72-2.85,2.37-2.53,4.06Z" style="fill:#ebebeb"></path><path d="M148.17,96.75c.45-3.29-4.2-6-7.69-6.28-1.67-.14-3.4.12-5-.43-3.42-1.19-4.79-5.61-8.13-7-2.49-1-5.36-.11-7.78,1.1s-4.81,2.75-7.51,2.92c-2.35.15-4.9-.72-7,.43-1.53.86-2.33,2.62-3.74,3.66a8.94,8.94,0,0,1-4.9,1.33,13.6,13.6,0,0,0-5,.83c-1.56.71-2.85,2.36-2.53,4Z" style="fill:#ebebeb"></path><path d="M118.48,155.27c.75-5.44-6.93-9.91-12.7-10.38-2.75-.22-5.61.2-8.22-.71-5.65-2-7.9-9.27-13.42-11.59-4.12-1.74-8.86-.19-12.85,1.82s-8,4.54-12.41,4.83c-3.88.24-8.1-1.2-11.49.7-2.53,1.41-3.86,4.33-6.19,6.05s-5.26,2-8.09,2.19-5.77.19-8.35,1.37-4.71,3.9-4.17,6.69Z" style="fill:#f5f5f5"></path><path d="M41.32,353.19s-6.24,2.52,1,15.75,12.1,19.75,12.1,19.75,1.3,3.08-1.31,3.64-8.4-.22-9.49,3,1.37,6.44,6.34,9.06,15.65,8.78,16.61,9.34,1.92,2,.2,2.63-14.66,2.36-13.49,8.45S69.45,436,71.08,436.54s2,1.25,1.93,2.15-4.51,1.05-8.17,1.68-7.8,2-6.83,5.46,10,10.55,31.48,12.1l10,.06,5.22-8.59c10.06-19.06,8.81-30.46,6.39-33.11s-5.78.13-8.25,2.9-4.94,6.43-5.75,6.05-1.17-1.08-.8-2.77,4-17.13-.51-21.35S83,407,81.5,408.1s-2.16-.47-2.13-1.56.46-13.43.86-19-.89-9.35-4.33-10.17-5.73,4.53-7.58,6.46-3.78-.81-3.78-.81-2.93-7.62-10.36-20.72-13-9-13-9" style="fill:#ebebeb"></path><path d="M100.08,460.33c-5.42-9.64-14.76-26.94-22.86-41.75s-15.43-28.21-20.8-37.88c-2.69-4.82-4.86-8.73-6.37-11.44l-1.73-3.12-.44-.81-.15-.28a2.67,2.67,0,0,1,.17.26l.47.8c.42.72,1,1.76,1.78,3.09,1.55,2.68,3.75,6.57,6.46,11.39,5.42,9.65,12.79,23,20.89,37.84s17.4,32.12,22.77,41.79" style="fill:#e0e0e0"></path><path d="M51.64,396.75a3.08,3.08,0,0,1,.7.18c.44.13,1.08.33,1.87.6,1.58.53,3.73,1.32,6.1,2.24l6,2.36,1.84.71a3.08,3.08,0,0,1,.66.28,3.33,3.33,0,0,1-.7-.17c-.45-.13-1.09-.34-1.87-.61-1.57-.55-3.72-1.37-6.08-2.28l-6.06-2.32L52.3,397A3,3,0,0,1,51.64,396.75Z" style="fill:#e0e0e0"></path><path d="M69.52,402.46c-.08,0,1.35-4.54,3.2-10.09s3.42-10,3.5-10-1.35,4.54-3.2,10.09S69.6,402.49,69.52,402.46Z" style="fill:#e0e0e0"></path><path d="M80.93,425.77a2.76,2.76,0,0,1,.39-.63l1.14-1.65c1-1.4,2.28-3.33,3.66-5.52s2.57-4.2,3.42-5.67l1-1.74a3.27,3.27,0,0,1,.4-.62,3,3,0,0,1-.29.68c-.21.43-.52,1-.92,1.79-.8,1.5-2,3.54-3.34,5.73s-2.74,4.11-3.75,5.48c-.51.68-.93,1.22-1.22,1.59A3.63,3.63,0,0,1,80.93,425.77Z" style="fill:#e0e0e0"></path><path d="M63.61,424.16a3.38,3.38,0,0,1,.69,0l1.85.1c1.56.1,3.72.25,6.11.44s4.54.38,6.1.54l1.85.19a3.3,3.3,0,0,1,.67.12,3.3,3.3,0,0,1-.68,0l-1.86-.1c-1.56-.1-3.72-.26-6.11-.45s-4.54-.38-6.1-.53l-1.84-.2A3,3,0,0,1,63.61,424.16Z" style="fill:#e0e0e0"></path><path d="M71.07,446a4.85,4.85,0,0,1,.87,0l2.38.12c2,.11,4.78.29,7.83.5s5.83.43,7.83.6l2.37.22a4.26,4.26,0,0,1,.87.12,5,5,0,0,1-.88,0L90,447.45c-2-.11-4.78-.29-7.84-.51s-5.82-.42-7.82-.59l-2.37-.22A5.38,5.38,0,0,1,71.07,446Z" style="fill:#e0e0e0"></path><path d="M92.7,447.38a5.21,5.21,0,0,1,.47-.81c.36-.55.82-1.27,1.37-2.14,1.16-1.82,2.75-4.33,4.43-7.15s3.13-5.41,4.17-7.29l1.23-2.23a6,6,0,0,1,.49-.8,7.9,7.9,0,0,1-.38.86c-.26.54-.65,1.32-1.15,2.27-1,1.92-2.41,4.53-4.1,7.35s-3.3,5.32-4.5,7.11c-.61.89-1.1,1.6-1.46,2.09A5.14,5.14,0,0,1,92.7,447.38Z" style="fill:#e0e0e0"></path><path d="M405.23,236.61a7.73,7.73,0,0,0-8.6.51,12.53,12.53,0,0,0-24.95-1.18c-6.1-1.71-13.85,3.49-13.81,8.58h50.79A7.74,7.74,0,0,0,405.23,236.61Z" style="fill:#e0e0e0"></path><path d="M356.42,214.34l.54.89a6.18,6.18,0,0,0,2.53,2.33l.94.46-.9.54a6.12,6.12,0,0,0-2.33,2.53l-.46.93-.54-.89a6.12,6.12,0,0,0-2.53-2.33l-.93-.46.89-.54a6.05,6.05,0,0,0,2.33-2.53Z" style="fill:#e0e0e0"></path><path d="M403.19,218.41l.34.57a3.94,3.94,0,0,0,1.62,1.49l.6.3-.57.34a3.93,3.93,0,0,0-1.5,1.63l-.29.59-.35-.57a3.83,3.83,0,0,0-1.62-1.49l-.6-.3.58-.34a3.94,3.94,0,0,0,1.49-1.62Z" style="fill:#e0e0e0"></path><path d="M691.47,149.37c.59-4.28-5.44-7.8-10-8.16-2.16-.18-4.41.15-6.46-.56-4.44-1.55-6.21-7.29-10.55-9.11-3.24-1.37-7-.15-10.11,1.43s-6.24,3.57-9.75,3.79c-3,.2-6.36-.94-9,.55-2,1.12-3,3.41-4.87,4.76s-4.13,1.6-6.36,1.72-4.53.15-6.55,1.08-3.71,3.07-3.29,5.26Z" style="fill:#f5f5f5"></path><path d="M682.5,410a9.82,9.82,0,0,1,4.42,6.28,17.23,17.23,0,0,1-.18,7.82c-1.12,5-4.53,9.73-8,13.41-3.83-4.16-4.1-10.71-4-14,.11-5.27,3.52-14.72,7.83-13.47" style="fill:#f5f5f5"></path><path d="M682.71,446.34a8.36,8.36,0,0,1,3.55-7.61,11.09,11.09,0,0,1,8.42-1.65,4.68,4.68,0,0,1,3.4,2,3.57,3.57,0,0,1-.34,3.61,7.3,7.3,0,0,1-3,2.34c-3.92,1.9-8.07,3-12.08,1.32" style="fill:#f5f5f5"></path><path d="M676.43,457.42A19.11,19.11,0,0,1,679,450.9a33,33,0,0,1,2.61-3.65,16.76,16.76,0,0,1,6.54-4.84,12.35,12.35,0,0,1,2.39-.65,2.54,2.54,0,0,1,.91,0c0,.1-1.27.24-3.15,1.06a18,18,0,0,0-6.26,4.84,41,41,0,0,0-2.6,3.57,17.28,17.28,0,0,0-1.72,3.15A24.75,24.75,0,0,1,676.43,457.42Z" style="fill:#e0e0e0"></path><path d="M680.54,417.42a9.62,9.62,0,0,1,0,1.7c0,1.1-.13,2.68-.26,4.63-.26,3.91-.67,9.3-1.28,15.24s-1.3,11.32-1.89,15.19c-.3,1.93-.55,3.5-.75,4.57a10.56,10.56,0,0,1-.36,1.67,9.27,9.27,0,0,1,.14-1.7c.15-1.19.34-2.73.57-4.6.48-3.88,1.12-9.25,1.72-15.18s1.07-11.23,1.45-15.22c.18-1.87.33-3.42.44-4.61A10.13,10.13,0,0,1,680.54,417.42Z" style="fill:#e0e0e0"></path><path d="M676.11,447.57a19.56,19.56,0,0,0-11.09-14c-1.45-.64-3.32-1-4.46.06s-.82,3-.21,4.44A16.72,16.72,0,0,0,676,448" style="fill:#f5f5f5"></path><path d="M666.15,438s.31.1.81.38,1.21.72,2.06,1.3a22,22,0,0,1,5.79,5.59,13.75,13.75,0,0,1,1.86,4.06,13.41,13.41,0,0,1,.43,3.63,13.85,13.85,0,0,1-.27,2.43,2.71,2.71,0,0,1-.24.86c-.11,0,.14-1.27.1-3.29a14.53,14.53,0,0,0-.53-3.49,13.91,13.91,0,0,0-1.83-3.88,24.8,24.8,0,0,0-5.54-5.59A29.48,29.48,0,0,1,666.15,438Z" style="fill:#e0e0e0"></path></g><g id="freepik--Floor--inject-10"><path d="M694.11,461.11c0,.15-144.22.26-322.09.26s-322.13-.11-322.13-.26,144.19-.26,322.13-.26S694.11,461,694.11,461.11Z" style="fill:#263238"></path></g><g id="freepik--Car--inject-10"><path d="M259.89,297.1h16.8a3.84,3.84,0,0,1,3.84,3.84v11.3a0,0,0,0,1,0,0H257.47a4.52,4.52,0,0,1-4.52-4.52V304A6.94,6.94,0,0,1,259.89,297.1Z" style="fill:#FF725E"></path><path d="M482.76,297.1h23.07a0,0,0,0,1,0,0v11.3a3.84,3.84,0,0,1-3.84,3.84h-16.8a6.94,6.94,0,0,1-6.94-6.94v-3.68A4.52,4.52,0,0,1,482.76,297.1Z" transform="translate(984.07 609.33) rotate(180)" style="fill:#FF725E"></path><rect x="254.61" y="402.84" width="43.26" height="57.96" style="fill:#263238"></rect><rect x="463.58" y="402.84" width="43.26" height="57.96" style="fill:#263238"></rect><path d="M259.65,325.46l12.58-10.1,19.9-54.63c3-6.8,8.68-15.56,21.86-16.89l137.08,1.21a18.67,18.67,0,0,1,17.36,12.26l17.82,48.78,4.88,11.08,11.61,8.13a16.62,16.62,0,0,1,7.11,13.64l4.71,21.7a13.91,13.91,0,0,1,.25,4.27l-5,52.29s-.58,14.39-15.54,14.39H270.36s-14.39.58-16.7-16.12c-1.18-8.55-4.79-51.82-4.79-51.82.17-10.89,4.49-19.39,4.56-25.94A16.14,16.14,0,0,1,259.65,325.46Z" style="fill:#FF725E"></path><g style="opacity:0.30000000000000004"><path d="M250.46,382.23c1.72.43,262.75-.45,262.75-.45L510,415.87c0,8.49-6.83,16.09-15.32,16.09H271.17c-10.92,0-17.57-8.36-17.68-17.88Z"></path></g><path d="M260.6,331.55l49.62,6v29.1s-54-1.41-57.27-8.71l-.2-19.69A7,7,0,0,1,260.6,331.55Z" style="fill:#e0e0e0"></path><path d="M500.64,331.55l-49.62,6v29.1s53.85-1.91,57.13-9.21l.34-19.19A7,7,0,0,0,500.64,331.55Z" style="fill:#e0e0e0"></path><path d="M281.12,307.32s14.38-48,21.24-54.12H459.77s13.52,29.73,18.47,54.12Z" style="fill:#455a64"></path><path d="M321.29,410.69v4.18a9.2,9.2,0,0,0,9.2,9.2H431a9.2,9.2,0,0,0,9.2-9.2v-4.18Z" style="fill:#263238"></path><path d="M460.32,399.08v18.3s36.78,5.18,42.15-18.3Z" style="fill:#263238"></path><path d="M306.09,399.08v18.3s-36.78,5.18-42.15-18.3Z" style="fill:#263238"></path><path d="M466,253.44c0,.15-38.18.22-85.25.15s-85.26-.24-85.26-.39,38.17-.22,85.26-.16S466,253.29,466,253.44Z" style="fill:#263238"></path><path d="M476.89,307c.09-.12,6.41,4.48,14.13,10.28s13.89,10.59,13.8,10.71-6.42-4.48-14.13-10.27S476.8,307.16,476.89,307Z" style="fill:#263238"></path><path d="M281.12,307.32c.09.12-5.28,4.85-12,10.57S256.86,328.15,256.76,328s5.27-4.84,12-10.56S281,307.21,281.12,307.32Z" style="fill:#263238"></path><path d="M282.94,284.58c.15.06-2.28,7.07-5.41,15.67s-5.79,15.53-5.93,15.48,2.28-7.07,5.41-15.67S282.8,284.53,282.94,284.58Z" style="fill:#263238"></path><path d="M456.53,336.88l-.37,0-1.11.07-4.26.22c-3.7.18-9.05.39-15.67.57-13.24.38-31.53.57-51.73.51s-38.5-.29-51.74-.43L316,337.67l-4.26-.07-1.11,0-.38,0a1.59,1.59,0,0,1,.38,0l1.11,0,4.26,0h15.68l51.74.27c20.2.07,38.49-.07,51.72-.35,6.62-.13,12-.28,15.67-.39l4.27-.12,1.11,0A1.46,1.46,0,0,1,456.53,336.88Z" style="fill:#263238"></path><path d="M357.47,253.2h42.23a0,0,0,0,1,0,0v4.66a4.46,4.46,0,0,1-4.46,4.46H361.93a4.46,4.46,0,0,1-4.46-4.46V253.2A0,0,0,0,1,357.47,253.2Z" style="fill:#263238"></path><path d="M460.22,306.48h-1.06a20.76,20.76,0,0,0-41.52,0h-1.06a21.82,21.82,0,0,1,43.64,0Z" style="fill:#263238"></path><path d="M409.69,305.63s3.05-5.66,11.9-5.9c8.22-.22,29.09,0,29.09,0s10.18.45,13.13,4.64V307H409.69Z" style="fill:#263238"></path><path d="M304.44,307.44c-.94,1,.7-14.17,2.83-21a4.21,4.21,0,0,1,4.14-2.68h38.1a4.1,4.1,0,0,1,4.22,3c.88,4.72,3.17,13.24,3.7,20.64Z" style="fill:#263238"></path><rect x="314.14" y="266.69" width="33.59" height="15" rx="3.28" style="fill:#263238"></rect><path d="M396.62,307.32c-.94,1,.75-15.38,2.88-22.23a4.2,4.2,0,0,1,4.14-2.67h38.1a4.1,4.1,0,0,1,4.22,3c.87,4.71,3.21,14.49,3.74,21.88Z" style="fill:#263238"></path><rect x="406.37" y="266.69" width="33.59" height="15" rx="3.28" style="fill:#263238"></rect><path d="M426.89,377H331.8a7.32,7.32,0,0,1-7.27-5.63l-5-23.35a7.13,7.13,0,0,1,7.27-8.39H433.51c4.87,0,8.42,4.37,7.16,8.82l-6.61,23.36A7.37,7.37,0,0,1,426.89,377Z" style="fill:#263238"></path><path d="M488.81,314.05a12.7,12.7,0,0,1-1.24-2.46c-.68-1.54-1.58-3.71-2.48-6.13s-1.63-4.65-2.12-6.27a13,13,0,0,1-.67-2.67,13.89,13.89,0,0,1,1,2.54l2.27,6.21c.87,2.32,1.66,4.41,2.32,6.18A14.42,14.42,0,0,1,488.81,314.05Z" style="fill:#263238"></path><g style="opacity:0.30000000000000004"><path d="M424.39,364.45a6,6,0,0,1-5.82,4.22H341.42a6,6,0,0,1-5.9-4.57l-4-15.26,4,19a5.94,5.94,0,0,0,5.9,4.57h77.15a6,6,0,0,0,5.82-4.22l5.36-18.95Z"></path></g><rect x="347.18" y="347.03" width="66" height="16.89" style="fill:#455a64"></rect><g style="opacity:0.30000000000000004"><path d="M406.37,253.44c.7,1.29-67.3,53.88-67.3,53.88l37.22.07L440,253.44Z" style="fill:#fff"></path></g><g style="opacity:0.30000000000000004"><polygon points="389.13 307.32 451.01 253.44 457.81 253.44 398.56 307.45 389.13 307.32" style="fill:#fff"></polygon></g><ellipse cx="380.62" cy="333.5" rx="10.12" ry="2.01" style="fill:#e0e0e0"></ellipse><path d="M478.24,307.32c0,.15-44.13.3-98.56.34s-98.56-.06-98.56-.21,44.12-.31,98.56-.34S478.24,307.17,478.24,307.32Z" style="fill:#263238"></path><path d="M428.38,305.49a6.24,6.24,0,0,0-6.67-.84,5.42,5.42,0,1,0-10.66.61c-3.07-1.57-8.87.57-7.88,3.9l26-.05C430.12,308.14,429.44,306.39,428.38,305.49Z" style="fill:#e0e0e0"></path><path d="M351.93,248.18c0,.16-9.52.28-21.25.28s-21.26-.12-21.26-.28,9.52-.27,21.26-.27S351.93,248,351.93,248.18Z" style="fill:#fff"></path><path d="M377.23,309.92c0,.15-18.81.27-42,.27s-42-.12-42-.27,18.8-.28,42-.28S377.23,309.76,377.23,309.92Z" style="fill:#fff"></path><path d="M365.42,332.85c0,.16-9.89.28-22.09.28s-22.1-.12-22.1-.28,9.89-.27,22.1-.27S365.42,332.7,365.42,332.85Z" style="fill:#fff"></path><path d="M435.25,385.82c0,.15-27.11.27-60.55.27s-60.55-.12-60.55-.27,27.1-.28,60.55-.28S435.25,385.66,435.25,385.82Z" style="fill:#fff"></path><path d="M406.91,407.74c0,.15-9.82.28-21.92.28s-21.93-.13-21.93-.28,9.81-.27,21.93-.27S406.91,407.59,406.91,407.74Z" style="fill:#fff"></path><path d="M448.58,402l.54.89a6,6,0,0,0,2.53,2.33l.93.47-.89.53a6.18,6.18,0,0,0-2.33,2.53l-.46.94-.54-.9a6.12,6.12,0,0,0-2.53-2.33l-.93-.46.89-.53a6.24,6.24,0,0,0,2.33-2.53Z" style="fill:#e0e0e0"></path><path d="M313.68,373.8l.54.89a6.12,6.12,0,0,0,2.53,2.33l.93.46-.89.54a6.12,6.12,0,0,0-2.33,2.53l-.46.94-.54-.9a6.12,6.12,0,0,0-2.53-2.33l-.93-.46.89-.54a6.12,6.12,0,0,0,2.33-2.53Z" style="fill:#e0e0e0"></path><path d="M446.56,347.25l.34.58a3.94,3.94,0,0,0,1.62,1.49l.6.29-.57.35a4,4,0,0,0-1.5,1.62l-.29.6-.35-.57a3.85,3.85,0,0,0-1.62-1.5l-.6-.29.58-.35a3.88,3.88,0,0,0,1.49-1.62Z" style="fill:#e0e0e0"></path><path d="M507.3,452c-10.61-10.31-29.32-10.66-40.31-.74-5.64-9.66-20.84-11.75-28.88-4-3.92-10.43-15.9-17.12-26.83-15s-19.52,12.83-19.24,24a25.38,25.38,0,0,0-29.9-.61c-7.69-10.65-23.91-13.93-35.14-7.12-1.91-14.25-15.54-26-29.92-25.68s-27.56,12.5-28.92,26.82c-12.49-8.44-31.55-1.41-39.69,11.28H540.25C535,448.74,517.19,443.16,507.3,452Z" style="fill:#e0e0e0"></path><path d="M422.26,349.75c0,.14-18.56.26-41.45.26s-41.46-.12-41.46-.26,18.56-.26,41.46-.26S422.26,349.6,422.26,349.75Z" style="fill:#fff"></path></g><g id="freepik--car-wash--inject-10"><rect x="156.73" y="82.67" width="447.43" height="51.02" style="fill:#e0e0e0"></rect><path d="M604.18,133.72H156.7V82.64H604.18Zm-447.43-.05H604.13v-51H156.75Z" style="fill:#263238"></path><rect x="557.04" y="46.07" width="71.63" height="393.9" style="fill:#e0e0e0"></rect><path d="M557,440c0-2.71-.12-170.62-.27-393.9V45.8h72.17v.27c-.06,166.6-.1,312.73-.13,393.9v.14h-.14L557,440l71.63-.15-.15.15c0-81.17-.07-227.3-.13-393.9l.28.27H557l.27-.27C557.15,269.35,557,437.26,557,440Z" style="fill:#263238"></path><rect x="538.39" y="439.97" width="104.01" height="21.13" style="fill:#e0e0e0"></rect><path d="M538.39,461.1s0-.11,0-.34,0-.6,0-1.05c0-1,0-2.33,0-4.12,0-3.64-.05-8.94-.09-15.62v-.15h.15l104-.12h.27v21.67h-.27l-74.26-.12-21.87-.08-5.86,0-1.51,0-.51,0h.54l1.54,0,5.93,0,21.93-.08,74.07-.11-.26.26c0-6.8,0-13.89,0-21.13l.27.27h0l-104-.12.16-.15c0,6.65-.07,11.91-.09,15.53,0,1.8,0,3.19,0,4.15,0,.46,0,.82,0,1.08S538.39,461.1,538.39,461.1Z" style="fill:#263238"></path><rect x="499.7" y="104.86" width="11.79" height="52.44" transform="translate(-12.01 61.16) rotate(-6.84)" style="fill:#e0e0e0"></rect><path d="M502.87,157.81s0-.07-.05-.24-.06-.44-.1-.74c-.1-.7-.22-1.67-.39-2.91-.33-2.6-.8-6.3-1.38-10.91-1.16-9.37-2.76-22.4-4.59-37.23l0-.27.26,0,11.7-1.41c.61.47.17.14.31.25v.24l0,.25.06.5.12,1,.24,2c.16,1.32.32,2.64.48,3.94q.46,3.92.91,7.67c.59,5,1.15,9.75,1.68,14.2,1,8.88,1.92,16.5,2.59,22.26v.16h-.15l-8.68,1-2.28.23-.57.06h-.19l.21,0,.6-.09,2.3-.31,8.57-1.12-.13.18c-.72-5.75-1.66-13.37-2.76-22.24-.54-4.45-1.12-9.21-1.72-14.2-.3-2.5-.61-5.06-.93-7.66-.15-1.31-.31-2.62-.47-4l-.24-2-.12-1-.06-.51,0-.25,0-.12v-.1h0c.13.1-.3-.26.29.22l-11.7,1.4.24-.3c1.72,14.77,3.24,27.75,4.32,37.07.53,4.65,1,8.38,1.25,11,.13,1.26.24,2.26.32,3,0,.32.05.58.07.78S502.87,157.81,502.87,157.81Z" style="fill:#263238"></path><path d="M458.3,265.09l20.22-14.35-17.62,4.94-5.34-40.48,8-12.88-10.33,2.89-2.41-8.6,10.6-8.55-12,3.38-2-18c11.2,2.43,53.13-18,54.37-20.19l12.07-1.14c1.8,1.78,47.74,9.8,57.83,4.37l3.11,17.86-12.52.08,16.44,4.52.68,11.38-15.23-1.61,15,11.22,5.53,39.29-19,.13,20.89,4.38.06,8.59-19.2-1.15,19,10.16,10.88,77.91-23.33-.55,25.13,7.13,2.11,17.57-22.86-6.14,22.26,15.27,2.62,28.66-121.5,13.56-3-25,17.66-21.5L478.37,381.5l-6.21-18.78,18-13.09-20,4.33-7.23-70,19.71-18.21-21.43,9.56Z" style="fill:#455a64"></path><g style="opacity:0.30000000000000004"><polyline points="565.93 239.56 586.81 243.94 586.87 252.53 567.68 251.38 586.72 261.54 597.6 339.46 574.28 338.9 490.32 349.87 470.29 354.19 463.06 284.22 482.78 266.01 461.35 275.57 458.47 265.32 478.69 250.97"></polyline></g><path d="M515.15,233.88a46.28,46.28,0,0,1-5.61,21.34l-13-3.59a33.64,33.64,0,0,0,5.12-17.72,65.47,65.47,0,0,1-8.78,12.55,5.17,5.17,0,0,1-2.31,1.74,5.42,5.42,0,0,1-3.37-.55l-8.93-3.54a24.44,24.44,0,0,0,9-14.71" style="fill:#455a64"></path><path d="M487.26,229.4A18.23,18.23,0,0,1,486,234a24.47,24.47,0,0,1-7.62,10.3l-.05-.34,6.25,2.45c1.11.43,2.26.9,3.43,1.33a3.43,3.43,0,0,0,3.46-.25,8.92,8.92,0,0,0,1.38-1.37c.44-.51.89-1,1.32-1.55.88-1.06,1.74-2.17,2.57-3.32a64.66,64.66,0,0,0,4.66-7.44l.52-1v1.1c0,.87,0,1.81-.12,2.75a34,34,0,0,1-5.06,15.11l-.15-.39,13,3.63-.25.1a47,47,0,0,0,5.17-15.19c.31-1.91.44-3.43.51-4.46,0-.49.06-.88.08-1.18a2.59,2.59,0,0,1,0-.4,1.41,1.41,0,0,1,0,.4c0,.27,0,.67,0,1.19,0,1-.13,2.56-.39,4.49a46.24,46.24,0,0,1-5,15.37l-.09.15-.17,0-13-3.56-.34-.09.19-.3a33.59,33.59,0,0,0,5-14.88c.08-.92.11-1.84.12-2.7l.51.13a64.77,64.77,0,0,1-4.71,7.49c-.85,1.16-1.71,2.27-2.6,3.34-.44.53-.89,1-1.34,1.56a9.49,9.49,0,0,1-1.47,1.43,3.18,3.18,0,0,1-2,.69,5.64,5.64,0,0,1-1.95-.39c-1.2-.45-2.32-.92-3.44-1.36l-6.23-2.5-.33-.13.28-.22a24.65,24.65,0,0,0,7.66-10.06,26.39,26.39,0,0,0,1.11-3.31c.1-.36.17-.65.23-.89S487.25,229.39,487.26,229.4Z" style="fill:#263238"></path><path d="M555.25,222.29a29.06,29.06,0,0,0,11.36,7.23l-7.33,7.1a97.21,97.21,0,0,0-16.91-7.12A86.32,86.32,0,0,0,555.65,246c-2.6.25-4.86,1.82-7.15,3.07s-5,2.26-7.49,1.33c-1.82-.69-3.1-2.33-4.21-3.93a78.6,78.6,0,0,1-7.86-14.19" style="fill:#455a64"></path><path d="M528.94,232.25a3.5,3.5,0,0,1,.33.65c.23.47.53,1.11.91,1.91.81,1.65,2,4,3.77,6.91.86,1.44,1.87,3,3,4.62a17.19,17.19,0,0,0,1.94,2.37,5.94,5.94,0,0,0,2.73,1.62c2.16.55,4.56-.31,6.71-1.49s4.43-2.82,7.28-3.13l-.16.45a85.44,85.44,0,0,1-8.53-9.57c-1.75-2.28-3.35-4.62-4.8-7l-.38-.61.69.22a96.52,96.52,0,0,1,16.94,7.17l-.27,0,7.36-7.07.07.3a28.67,28.67,0,0,1-8.69-4.89,26.52,26.52,0,0,1-2-1.81l-.48-.51a1.5,1.5,0,0,1-.15-.19,7.65,7.65,0,0,1,.7.62c.45.41,1.12,1,2,1.74a29.52,29.52,0,0,0,8.68,4.69l.28.1-.21.21-7.3,7.14-.12.11-.15-.08a99.25,99.25,0,0,0-16.88-7.06l.31-.4c1.44,2.31,3,4.63,4.77,6.9a85.35,85.35,0,0,0,8.47,9.52l.4.39-.56.06c-2.66.28-4.88,1.85-7.09,3a15.31,15.31,0,0,1-3.47,1.43,7.17,7.17,0,0,1-3.59.07,6.48,6.48,0,0,1-2.91-1.75,17.72,17.72,0,0,1-2-2.45c-1.13-1.66-2.13-3.23-3-4.68a72.55,72.55,0,0,1-3.64-7c-.38-.84-.65-1.49-.83-1.94A4.76,4.76,0,0,1,528.94,232.25Z" style="fill:#263238"></path><path d="M513.6,189.76a2.06,2.06,0,0,1,.2.32l.52.95c.47.87,1.12,2.1,1.94,3.65l7,13.3-.2-.11,15.25-.88-.22.34c-1.92-5-4-10.5-6.2-16.21-.21-.53-.41-1.07-.61-1.59l-.37-1,.8.66,16.67,13.92H548L558,196v.31a64.9,64.9,0,0,1-9.06-9.1c-.95-1.18-1.65-2.13-2.12-2.78l-.51-.75a1.18,1.18,0,0,1-.16-.27,1.76,1.76,0,0,1,.21.24l.56.71c.49.63,1.22,1.55,2.2,2.71a67.9,67.9,0,0,0,9.13,8.93l.2.17-.21.15-9.9,7.25-.15.12-.15-.13-16.71-13.87.43-.31.6,1.6c2.18,5.71,4.26,11.2,6.17,16.22l.13.33-.35,0-15.26.79h-.14l-.06-.12-6.79-13.39-1.84-3.71-.47-1A1.54,1.54,0,0,1,513.6,189.76Z" style="fill:#263238"></path><path d="M472.72,183.79a.71.71,0,0,1,0,.21c0,.15,0,.36.05.64a8.94,8.94,0,0,1-.3,2.43,9.63,9.63,0,0,1-1.71,3.48,9.46,9.46,0,0,1-4.08,3.12l0-.36,7,3.86h-.21a25.55,25.55,0,0,0,11.24-9.5l.6-.93-.11,1.1a24.3,24.3,0,0,1-.78,4.25,24.76,24.76,0,0,1-3.23,7.09l-.31-.4a4.82,4.82,0,0,1,3.44.4c1,.47,1.94,1.07,2.85,1.59a7.65,7.65,0,0,0,2.78,1.08,3,3,0,0,0,2.5-.86,7.06,7.06,0,0,0,1.41-2.29c.33-.83.62-1.66.9-2.46.56-1.59,1-3.08,1.42-4.44.78-2.74,1.27-5,1.59-6.5.15-.72.27-1.31.36-1.76a2.73,2.73,0,0,1,.15-.61,2.7,2.7,0,0,1-.05.63c-.05.41-.14,1-.27,1.78-.27,1.55-.71,3.79-1.45,6.55-.37,1.38-.82,2.88-1.36,4.49-.27.8-.55,1.63-.89,2.48a7.16,7.16,0,0,1-1.48,2.46,3.52,3.52,0,0,1-2.88,1,8,8,0,0,1-3-1.12c-.93-.52-1.83-1.11-2.81-1.55a4.31,4.31,0,0,0-3.06-.37l-.72.22.41-.62a24.35,24.35,0,0,0,3.93-11.1l.49.17a25.7,25.7,0,0,1-11.51,9.64l-.1,0-.1-.06-7-3.93-.37-.2.39-.15a9.26,9.26,0,0,0,4-2.94A9.81,9.81,0,0,0,472.3,187,11.67,11.67,0,0,0,472.72,183.79Z" style="fill:#263238"></path><path d="M546.42,359.9a1.61,1.61,0,0,1,.25.33c.14.23.37.56.63,1,.54.91,1.25,2.28,2.12,4.05a59.75,59.75,0,0,0,3.38,6.23,18.06,18.06,0,0,0,6.56,6.24l-.13,0a15.35,15.35,0,0,0,4.42-1.57c1.49-.72,3-1.58,4.61-2.36l-.1.38c-1.47-2-3.21-4-4.88-6.17a28.15,28.15,0,0,1-4.41-7.21c-.15-.37-.23-.76-.34-1.13l-.4-1.3.87,1.07a54.54,54.54,0,0,0,14.6,12.46h-.22l9.28-4,0,.36a48.34,48.34,0,0,1-9-9.75c-.9-1.3-1.53-2.35-2-3.07-.18-.34-.33-.62-.45-.83a1.21,1.21,0,0,1-.14-.3,1.4,1.4,0,0,1,.19.26l.51.8c.45.7,1.11,1.73,2,3a50.66,50.66,0,0,0,9.06,9.56l.27.22-.32.14-9.25,4-.12.05-.1-.06a54.35,54.35,0,0,1-14.78-12.55l.47-.23c.11.35.19.71.33,1.07a28.28,28.28,0,0,0,4.32,7.07c1.66,2.15,3.39,4.14,4.87,6.2l.18.24-.28.14c-3.18,1.49-6.05,3.43-9.18,3.91h-.07l-.07,0a18.37,18.37,0,0,1-6.66-6.45,53.37,53.37,0,0,1-3.31-6.32c-.83-1.78-1.5-3.17-2-4.09-.24-.47-.45-.81-.58-1.05A2.67,2.67,0,0,1,546.42,359.9Z" style="fill:#263238"></path><path d="M496.86,358a19.81,19.81,0,0,1-.12,5.42,26.36,26.36,0,0,1-5.72,13l-.12-.37c2.64.72,5.63,1.3,8.78,1.88l-.25.1c1-1.39,2-2.86,3-4.4a34.44,34.44,0,0,0,2.71-4.88l.19-.5.45-1.2.08,1.26a18,18,0,0,1-2.5,10.2l-.21-.4,6,.55c1.83.2,3.79-.11,4.84-1.42s1.14-3,1.35-4.5.39-2.89.56-4.16c.35-2.48.62-4.48.82-5.91.1-.65.18-1.18.25-1.58a3,3,0,0,1,.11-.54,2.08,2.08,0,0,1,0,.55c0,.41-.1.93-.16,1.59-.16,1.44-.39,3.44-.67,5.93-.15,1.27-.32,2.66-.5,4.17-.09.75-.17,1.54-.34,2.36a5.73,5.73,0,0,1-1,2.38A4.41,4.41,0,0,1,512,379a8.42,8.42,0,0,1-2.88.17l-6-.52-.42,0,.21-.36a17.52,17.52,0,0,0,2.41-9.89l.53.07-.2.53a34.43,34.43,0,0,1-2.77,5c-1,1.55-2,3-3,4.42l-.1.13-.16,0c-3.16-.6-6.15-1.19-8.82-1.94l-.35-.1.24-.28a26.66,26.66,0,0,0,5.81-12.77,30.6,30.6,0,0,0,.36-4A10.2,10.2,0,0,1,496.86,358Z" style="fill:#263238"></path><path d="M520.33,379.82a23.24,23.24,0,0,1-.07,4.52,31.19,31.19,0,0,1-3.7,11.87l-.12-.27,5.77,1.1,3.16.6a5.15,5.15,0,0,0,1.59.16,1.69,1.69,0,0,0,1.2-.84,13.07,13.07,0,0,0,1-3.31c.26-1.18.51-2.38.74-3.61.47-2.46.87-5,1.2-7.68l.31-2.54.2,2.55c.45,5.48.94,11.42,1.44,17.57a2.38,2.38,0,0,0,.47,1.31,1.43,1.43,0,0,0,1.22.4c1-.09,2.06-.26,3.07-.39l6-.8-.22.31c-.76-4.22-1.5-8.28-2.19-12.13l-.15-.78.57.56,8.15,8.17-.07,0a7.09,7.09,0,0,0,4.05.11,23.61,23.61,0,0,0,3.67-1.25l-.07.29a68.41,68.41,0,0,1-7.35-10.76c-.74-1.35-1.27-2.42-1.62-3.15l-.38-.83a1.43,1.43,0,0,1-.11-.29s.07.08.16.27l.43.81c.38.71.93,1.76,1.7,3.09a72.38,72.38,0,0,0,7.46,10.62l.16.2-.24.1a24.12,24.12,0,0,1-3.71,1.3,7.47,7.47,0,0,1-4.31-.1l0,0,0,0-8.19-8.12.42-.22c.7,3.84,1.45,7.9,2.22,12.12l0,.27-.28,0-6,.81c-1,.12-2,.29-3.11.39a2,2,0,0,1-1.65-.58,2.94,2.94,0,0,1-.61-1.6c-.49-6.16-1-12.11-1.41-17.6h.51c-.33,2.66-.74,5.24-1.22,7.71-.24,1.23-.5,2.44-.77,3.62a12.76,12.76,0,0,1-1.06,3.45,2.15,2.15,0,0,1-1.53,1.05,5.65,5.65,0,0,1-1.73-.17l-3.16-.63-5.77-1.14-.25-.05.13-.23a31.84,31.84,0,0,0,3.82-11.71c.17-1.45.21-2.58.23-3.34l0-.87A.94.94,0,0,1,520.33,379.82Z" style="fill:#263238"></path><path d="M516.94,297.15s0,.05.11.17l.26.51,1,2,3.66,7.62,2.55,5.38c.47,1,.93,2,1.45,3a9.57,9.57,0,0,0,2,2.83,5.64,5.64,0,0,0,3.32,1.37,10.75,10.75,0,0,0,3.87-.43c2.59-.71,5.13-2.21,8.18-2.56l-.2.38a142.44,142.44,0,0,1-7.8-16c-.92-2.22-1.77-4.44-2.55-6.63l.49-.21a32.39,32.39,0,0,0,3.85,5.94,15.83,15.83,0,0,0,5.18,4.17,11.34,11.34,0,0,0,6.12,1,8.17,8.17,0,0,0,5.08-2.5l0,.32a47.31,47.31,0,0,1-11.1-14.4,35.48,35.48,0,0,1-2.54-6.36,2.89,2.89,0,0,1,.18.42l.48,1.24c.44,1.07,1.1,2.65,2.11,4.59a48.18,48.18,0,0,0,11.16,14.17l.17.15-.15.17a8.6,8.6,0,0,1-5.35,2.68,11.91,11.91,0,0,1-6.39-1,16.14,16.14,0,0,1-5.37-4.29,33.09,33.09,0,0,1-3.93-6l.5-.22c.77,2.18,1.62,4.39,2.54,6.61a146.85,146.85,0,0,0,7.75,15.93l.19.34-.39,0c-2.9.32-5.43,1.79-8.1,2.52a11.44,11.44,0,0,1-4.05.43,6.19,6.19,0,0,1-3.57-1.51,10,10,0,0,1-2.11-3c-.53-1-1-2.06-1.44-3l-2.5-5.4-3.52-7.69c-.39-.87-.69-1.56-.92-2.06-.09-.21-.16-.39-.22-.54Z" style="fill:#263238"></path><path d="M481.92,280.69a1.39,1.39,0,0,1,0,.36,10,10,0,0,1-.11,1.06,16,16,0,0,1-1.12,3.91,17.31,17.31,0,0,1-3.52,5.28,16.84,16.84,0,0,1-7,4.38l.1-.36,9.15,10.06H479a42.59,42.59,0,0,0,6.54-10.61l.35-.82.17.87c0,.22.08.46.13.7a16,16,0,0,1-3.79,13.16l-.15-.42a7.09,7.09,0,0,1,3.17,1.75A19,19,0,0,0,488,312.1a4.11,4.11,0,0,0,2.92.65,3.46,3.46,0,0,0,2.18-1.78,15.61,15.61,0,0,0,1.14-2.63c.32-.88.61-1.73.86-2.57.51-1.66.91-3.23,1.21-4.66a54.78,54.78,0,0,0,1-6.76q.09-1.14.15-1.83a2.91,2.91,0,0,1,.07-.63,4.49,4.49,0,0,1,0,.64q0,.63-.06,1.83a49.34,49.34,0,0,1-.87,6.82c-.29,1.44-.66,3-1.16,4.7-.24.85-.53,1.71-.84,2.6a16.06,16.06,0,0,1-1.15,2.71,4,4,0,0,1-2.45,2,4.61,4.61,0,0,1-3.27-.69,19.1,19.1,0,0,1-2.7-2.12,6.82,6.82,0,0,0-2.94-1.64l-.45-.08.3-.34a15.5,15.5,0,0,0,3.65-12.73l-.13-.68.51.05a42.91,42.91,0,0,1-6.64,10.74l-.19.23-.2-.23-9.09-10.1-.24-.26.34-.1a16.58,16.58,0,0,0,6.89-4.21,17.62,17.62,0,0,0,3.55-5.13A20.22,20.22,0,0,0,481.92,280.69Z" style="fill:#263238"></path><path d="M552.91,264.6a14,14,0,0,1,1,1.52c.65,1,1.62,2.41,2.93,4.09a54.35,54.35,0,0,0,12.25,11.48l-.36.06,1.64-2.21,3.2-4.29A11.7,11.7,0,0,0,575,273.2a1.66,1.66,0,0,0-.35-2,8,8,0,0,0-1.88-1.21c-.68-.37-1.3-.76-1.89-1.16a22.24,22.24,0,0,1-3.06-2.52,21.82,21.82,0,0,1-3.5-4.52c-.33-.59-.57-1.05-.71-1.38a1.72,1.72,0,0,1-.2-.51s.37.65,1.09,1.78a23.71,23.71,0,0,0,3.59,4.35,22.31,22.31,0,0,0,3,2.43c.58.38,1.2.76,1.86,1.11a8.07,8.07,0,0,1,2,1.28,2.22,2.22,0,0,1,.65,1.17,2.39,2.39,0,0,1-.17,1.35,12.53,12.53,0,0,1-1.43,2.17l-3.2,4.3-1.64,2.2-.16.21-.21-.15a51.48,51.48,0,0,1-12.24-11.7,47.44,47.44,0,0,1-2.81-4.2c-.3-.51-.51-.92-.66-1.2A1.64,1.64,0,0,1,552.91,264.6Z" style="fill:#263238"></path><path d="M443.13,227.57c-.07-.14,1.38-1,2.86-2.45s2.44-2.82,2.58-2.74a7.43,7.43,0,0,1-2.2,3.14A7.23,7.23,0,0,1,443.13,227.57Z" style="fill:#263238"></path><path d="M436.68,221.12a16.13,16.13,0,0,1,3.93-1.5,16.75,16.75,0,0,1,4.09-1,15.9,15.9,0,0,1-3.93,1.51A17,17,0,0,1,436.68,221.12Z" style="fill:#263238"></path><path d="M600.35,213.23a13.89,13.89,0,0,1-8.62-5.36c.12-.11,1.7,1.56,4.09,3S600.4,213.07,600.35,213.23Z" style="fill:#263238"></path><path d="M599.94,219.4a12.3,12.3,0,0,1-3.62.14,12.83,12.83,0,0,1-3.6-.39,23.85,23.85,0,0,1,7.22.25Z" style="fill:#263238"></path><path d="M452.4,304.79a16.12,16.12,0,0,0,6.37-6.82,9.48,9.48,0,0,1-6.37,6.82Z" style="fill:#263238"></path><path d="M446,299.12a47,47,0,0,0,5.07-2.33,52.62,52.62,0,0,0,4.47-3.35,11.65,11.65,0,0,1-4.19,3.81A11.5,11.5,0,0,1,446,299.12Z" style="fill:#263238"></path><path d="M607.81,325.88a23.14,23.14,0,0,1-4.54-5.45,12.43,12.43,0,0,1,2.48,2.55A12.1,12.1,0,0,1,607.81,325.88Z" style="fill:#263238"></path><path d="M465.16,379.68c-.07-.14,1-.77,2-1.92s1.5-2.33,1.65-2.27a4,4,0,0,1-1.25,2.63A3.94,3.94,0,0,1,465.16,379.68Z" style="fill:#263238"></path><path d="M461.91,374.47c-.06-.15,1.47-.82,3.07-2.09s2.63-2.58,2.77-2.48a9.05,9.05,0,0,1-5.84,4.57Z" style="fill:#263238"></path><path d="M455.11,368.39c0-.16,2.84-.55,6.14-1.78s5.74-2.77,5.83-2.63a20.91,20.91,0,0,1-12,4.41Z" style="fill:#263238"></path><path d="M612.33,373a4.51,4.51,0,0,1-3.34-1,4.57,4.57,0,0,1-2.06-2.83,10.2,10.2,0,0,0,5.4,3.87Z" style="fill:#263238"></path><path d="M614.68,376.9a9.76,9.76,0,0,1-3.21.27,9.65,9.65,0,0,1-3.22-.26,10,10,0,0,1,3.22-.28A9.76,9.76,0,0,1,614.68,376.9Z" style="fill:#263238"></path><rect x="140.05" y="46.07" width="71.63" height="393.9" style="fill:#e0e0e0"></rect><path d="M211.67,440c0-2.71-.11-170.62-.26-393.9l.26.27H140.05l.27-.27c-.06,166.6-.1,312.73-.13,393.9l-.14-.15,71.62.15-71.62.14h-.15V440c0-81.17-.07-227.3-.12-393.9V45.8h72.16v.27C211.79,269.35,211.68,437.26,211.67,440Z" style="fill:#263238"></path><rect x="126.31" y="439.97" width="104.01" height="21.13" style="fill:#e0e0e0"></rect><path d="M230.32,461.1s0-.13,0-.37,0-.62,0-1.08c0-1,0-2.35,0-4.15,0-3.62-.05-8.88-.08-15.53l.15.15-104,.12h0l.27-.27V461.1l-.27-.26,74.08.11,21.92.08,5.93,0,1.54,0h.54l-.5,0-1.51,0-5.87,0-21.87.08-74.26.12H126V439.7h.28l104,.12h.15V440c0,6.68-.07,12-.09,15.62,0,1.79,0,3.16,0,4.12,0,.45,0,.79,0,1.05S230.32,461.11,230.32,461.1Z" style="fill:#263238"></path><rect x="212.35" y="121.49" width="52.44" height="11.79" transform="translate(93.91 355.89) rotate(-85.76)" style="fill:#e0e0e0"></rect><path d="M242.51,154a1,1,0,0,1,0-.27c0-.21,0-.47,0-.79,0-.72.11-1.71.19-3,.17-2.62.42-6.37.74-11,.66-9.37,1.58-22.4,2.63-37.23l.25.28-11.75-.86c.57-.51.16-.13.29-.24h0v.23l0,.25,0,.5-.07,1-.15,2q-.15,2-.3,4c-.19,2.62-.39,5.19-.57,7.7-.38,5-.74,9.8-1.08,14.26-.7,8.91-1.29,16.57-1.74,22.35l-.15-.17,8.62.72,2.31.21.6.06.22,0h-.19l-.58,0-2.28-.13-8.72-.56h-.15v-.16c.4-5.78.94-13.44,1.57-22.35.32-4.47.67-9.25,1-14.27.19-2.51.37-5.08.57-7.7.09-1.31.19-2.63.29-4l.15-2,.07-1,0-.5,0-.25v-.23h0c.13-.12-.3.23.29-.27l11.75.88.27,0,0,.26c-1.16,14.91-2.17,28-2.89,37.4-.38,4.64-.68,8.36-.89,11-.11,1.24-.19,2.22-.25,2.92,0,.31-.06.56-.08.75S242.51,154,242.51,154Z" style="fill:#263238"></path><path d="M291.91,259.11l-20.85-13.42,17.82,4.13,3.49-40.68-8.61-12.5,10.45,2.42,2-8.71-11-8,12.19,2.83L298.57,167c-11.08,2.94-53.89-15.55-55.23-17.7l-12.11-.59c-1.72,1.86-47.25,12-57.58,7l-2.29,18,12.51-.48-16.22,5.26-.16,11.4,15.14-2.3-14.45,11.89L164.45,239l19-.73-20.67,5.32.33,8.58,19.12-2-18.56,11-7.33,78.33,23.28-1.62-24.78,8.27-1.31,17.65L176,356.61,154.5,372.87l-1.32,28.75,122,8,1.88-25.1-18.61-20.67,18.7,12.43,5.35-19.05L263.93,345l20.21,3.41,4-70.23L267.66,260.9l21.85,8.57Z" style="fill:#455a64"></path><g style="opacity:0.30000000000000004"><polyline points="183.23 238.5 162.56 243.82 162.9 252.4 182.02 250.38 163.45 261.4 156.13 339.73 179.41 338.11 263.77 345.25 283.98 348.66 288.02 278.43 267.49 261.14 289.34 269.71 291.74 259.35 270.89 245.93"></polyline></g><path d="M233.69,230.51a46.47,46.47,0,0,0,6.58,21.06l12.81-4.17a33.61,33.61,0,0,1-5.92-17.47,64.75,64.75,0,0,0,9.34,12.14,5.16,5.16,0,0,0,2.38,1.63,5.39,5.39,0,0,0,3.34-.7l8.76-3.94a24.47,24.47,0,0,1-9.62-14.3" style="fill:#455a64"></path><path d="M261.36,224.76a1.61,1.61,0,0,1,.1.3c.07.23.16.51.26.87a28.82,28.82,0,0,0,1.27,3.26,24.67,24.67,0,0,0,8.11,9.7l.29.21-.32.14L265,242c-1.09.49-2.19,1-3.37,1.52a5.83,5.83,0,0,1-1.93.48,3.29,3.29,0,0,1-2-.6,9.66,9.66,0,0,1-1.54-1.37l-1.41-1.5c-.93-1-1.85-2.09-2.74-3.21a66.3,66.3,0,0,1-5.05-7.27l.51-.15c0,.85.12,1.77.24,2.69a33.61,33.61,0,0,0,5.62,14.64l.2.29-.33.1-12.82,4.15-.17.05-.09-.15a46,46,0,0,1-5.73-15.13,43.93,43.93,0,0,1-.6-4.46c0-.52-.05-.92-.06-1.19a2,2,0,0,1,0-.4,1.55,1.55,0,0,1,.07.4l.13,1.17c.12,1,.32,2.54.71,4.43a47.16,47.16,0,0,0,5.86,15l-.26-.1,12.8-4.21-.13.39a34,34,0,0,1-5.74-14.86c-.12-.93-.19-1.87-.24-2.74l-.07-1.09.57.94a65.25,65.25,0,0,0,5,7.22c.89,1.11,1.79,2.18,2.72,3.2.46.5.92,1,1.39,1.48a9.23,9.23,0,0,0,1.44,1.31,3.4,3.4,0,0,0,3.47.09c1.14-.48,2.27-1,3.36-1.48l6.14-2.74,0,.35a24.43,24.43,0,0,1-8.09-9.94A18,18,0,0,1,261.36,224.76Z" style="fill:#263238"></path><path d="M193.11,220.76a29,29,0,0,1-11,7.73l7.65,6.76a97.47,97.47,0,0,1,16.57-7.88,85.57,85.57,0,0,1-12.53,17.06c2.62.13,4.94,1.59,7.29,2.74s5.14,2,7.54,1c1.79-.78,3-2.47,4-4.12a78.34,78.34,0,0,0,7.21-14.53" style="fill:#455a64"></path><path d="M219.85,229.51a5.55,5.55,0,0,1-.22.7c-.16.45-.4,1.12-.74,2a72.06,72.06,0,0,1-3.32,7.16c-.79,1.5-1.71,3.11-2.77,4.81a16.45,16.45,0,0,1-1.86,2.54,6.36,6.36,0,0,1-2.83,1.88,7,7,0,0,1-3.59.09,15.53,15.53,0,0,1-3.53-1.26c-2.27-1.09-4.55-2.56-7.22-2.72l-.56,0,.38-.4a86.47,86.47,0,0,0,8-9.89c1.64-2.35,3.12-4.74,4.45-7.12l.33.39a98.65,98.65,0,0,0-16.55,7.82l-.14.09-.13-.11-7.61-6.8-.22-.2.28-.11a29.4,29.4,0,0,0,8.45-5.09c.89-.75,1.53-1.39,2-1.82a7.2,7.2,0,0,1,.67-.65s0,.07-.14.19l-.45.53a23.75,23.75,0,0,1-1.9,1.9,28.67,28.67,0,0,1-8.46,5.28l.06-.3,7.67,6.72-.27,0a96.22,96.22,0,0,1,16.6-7.94l.67-.24-.35.63c-1.34,2.39-2.83,4.79-4.48,7.16a86.53,86.53,0,0,1-8.08,9.94l-.18-.45c2.86.19,5.18,1.73,7.41,2.8s4.64,1.84,6.77,1.19a6,6,0,0,0,2.65-1.74,16.94,16.94,0,0,0,1.84-2.46c1.07-1.69,2-3.28,2.81-4.75,1.61-2.95,2.71-5.39,3.44-7.08l.82-1.94A3.53,3.53,0,0,1,219.85,229.51Z" style="fill:#263238"></path><path d="M233.24,186.37a1.34,1.34,0,0,1-.13.35c-.1.26-.24.59-.42,1L231,191.5l-6.17,13.68-.06.13h-.14l-15.28-.1H209l.11-.33,5.43-16.49c.18-.54.36-1.08.53-1.62l.44.29-16.06,14.62-.14.13-.16-.11L189,194.9l-.22-.15.2-.17a69.12,69.12,0,0,0,8.72-9.34c.92-1.2,1.61-2.15,2.07-2.8l.53-.74a1.65,1.65,0,0,1,.19-.25,1.13,1.13,0,0,1-.14.28l-.48.77c-.44.67-1.09,1.65-2,2.88a64.48,64.48,0,0,1-8.63,9.5l0-.32,10.27,6.73-.3,0,16-14.66.76-.7-.32,1-.54,1.62c-1.92,5.81-3.76,11.38-5.45,16.48l-.24-.34,15.28.19-.2.13,6.34-13.61,1.78-3.74c.19-.4.35-.72.48-1A2.21,2.21,0,0,1,233.24,186.37Z" style="fill:#263238"></path><path d="M273.8,178.54a11.87,11.87,0,0,0,.57,3.2,9.92,9.92,0,0,0,1.89,3.27,9.32,9.32,0,0,0,4.11,2.75l.4.13-.36.23-6.78,4.24-.1.06-.11,0a25.69,25.69,0,0,1-11.93-9.11l.48-.19a24.7,24.7,0,0,0,1,4.12A24.12,24.12,0,0,0,266.4,194l.44.61-.73-.2a4.35,4.35,0,0,0-3,.52c-1,.48-1.83,1.11-2.74,1.67a7.84,7.84,0,0,1-2.92,1.26,3.51,3.51,0,0,1-2.93-.88,7.19,7.19,0,0,1-1.59-2.39c-.37-.84-.69-1.65-1-2.44-.61-1.58-1.13-3.06-1.56-4.42-.87-2.72-1.41-4.94-1.74-6.48-.17-.76-.29-1.36-.35-1.77a4.38,4.38,0,0,1-.09-.62,2.87,2.87,0,0,1,.18.6c.11.45.26,1,.44,1.75.39,1.52,1,3.72,1.89,6.41.45,1.35,1,2.82,1.61,4.38.32.78.65,1.6,1,2.41a6.86,6.86,0,0,0,1.5,2.22,3.08,3.08,0,0,0,2.55.75,7.47,7.47,0,0,0,2.72-1.21c.89-.55,1.77-1.19,2.77-1.71a4.84,4.84,0,0,1,3.42-.56l-.28.42a24.88,24.88,0,0,1-3.56-6.94,24.52,24.52,0,0,1-1-4.21l-.16-1.1.64.91a25.58,25.58,0,0,0,11.67,9l-.21,0,6.83-4.18,0,.36a9.51,9.51,0,0,1-4.22-2.93,10,10,0,0,1-1.87-3.4,9,9,0,0,1-.41-2.41c0-.28,0-.5,0-.64A.57.57,0,0,1,273.8,178.54Z" style="fill:#263238"></path><path d="M208.18,357.82s0,.14-.16.38-.31.6-.53,1.07c-.46,1-1.06,2.37-1.81,4.18a53.33,53.33,0,0,1-3,6.46,18.35,18.35,0,0,1-6.36,6.75l-.06,0h-.07c-3.15-.34-6.11-2.14-9.36-3.49l-.28-.12.17-.26c1.39-2.12,3-4.19,4.58-6.41a28.17,28.17,0,0,0,4-7.26c.12-.36.18-.73.27-1.09l.49.21a54.28,54.28,0,0,1-14.19,13.21l-.11.07-.11,0-9.43-3.61-.33-.13.26-.23a50.75,50.75,0,0,0,8.62-10c.86-1.31,1.47-2.37,1.89-3.09.19-.33.35-.6.47-.82a1.64,1.64,0,0,1,.18-.27,1,1,0,0,1-.12.3l-.42.85c-.38.74-1,1.82-1.81,3.16a48.19,48.19,0,0,1-8.53,10.15l-.06-.36,9.45,3.55-.22,0a54.65,54.65,0,0,0,14-13.12l.82-1.1-.33,1.31c-.1.38-.17.77-.29,1.14a28.24,28.24,0,0,1-4.08,7.41c-1.57,2.24-3.22,4.3-4.59,6.39l-.12-.38c1.65.7,3.18,1.5,4.71,2.15a15.54,15.54,0,0,0,4.48,1.37l-.13,0a18.09,18.09,0,0,0,6.27-6.54,58.33,58.33,0,0,0,3.1-6.38c.78-1.8,1.43-3.21,1.93-4.14.24-.47.45-.81.59-1A2.44,2.44,0,0,1,208.18,357.82Z" style="fill:#263238"></path><path d="M257.61,353.69a11.26,11.26,0,0,1,.1,1.41,28.13,28.13,0,0,0,.54,3.95,26.72,26.72,0,0,0,6.38,12.49l.25.27-.34.11c-2.64.87-5.59,1.6-8.73,2.34l-.15,0-.11-.13c-1.08-1.34-2.16-2.77-3.24-4.27a35.21,35.21,0,0,1-3-4.84l-.22-.52.52-.1a17.49,17.49,0,0,0,2.86,9.77l.23.35-.42.06-5.94.79a8.49,8.49,0,0,1-2.89-.05A4.36,4.36,0,0,1,241,374a5.6,5.6,0,0,1-1.15-2.33c-.22-.8-.33-1.59-.46-2.34-.24-1.49-.47-2.88-.68-4.14-.4-2.47-.71-4.46-.94-5.9-.1-.65-.17-1.17-.23-1.58a2.06,2.06,0,0,1-.05-.55,3.49,3.49,0,0,1,.14.54l.31,1.56c.27,1.43.63,3.41,1.09,5.87l.75,4.14c.28,1.46.46,3.18,1.55,4.43s3.08,1.49,4.91,1.2l5.95-.82-.19.4a18,18,0,0,1-3-10.07l0-1.26.51,1.17.21.49a34.69,34.69,0,0,0,2.93,4.76c1.06,1.49,2.14,2.92,3.21,4.26l-.26-.09c3.12-.73,6.08-1.44,8.69-2.28l-.1.38A26.33,26.33,0,0,1,258,359.1,20.27,20.27,0,0,1,257.61,353.69Z" style="fill:#263238"></path><path d="M235.16,376.53a1.16,1.16,0,0,1,0,.3c0,.22,0,.51.06.86a32.43,32.43,0,0,0,.38,3.33A31.83,31.83,0,0,0,240,392.55l.14.21-.25.06-5.71,1.41L231,395a5.54,5.54,0,0,1-1.72.25,2.12,2.12,0,0,1-1.57-1,12.63,12.63,0,0,1-1.22-3.39c-.33-1.17-.64-2.37-.93-3.59-.6-2.44-1.12-5-1.58-7.65l.52,0c-.19,5.51-.4,11.47-.62,17.64a2.85,2.85,0,0,1-.53,1.64,2,2,0,0,1-1.62.65c-1.09-.05-2.09-.17-3.12-.25l-6.06-.54-.28,0,0-.28L214,386.24l.43.2-7.82,8.49,0,0h-.05a7.39,7.39,0,0,1-4.29.3,22.78,22.78,0,0,1-3.77-1.13l-.25-.09.16-.21a72.48,72.48,0,0,0,7-11c.7-1.36,1.21-2.43,1.55-3.16l.39-.83a1.35,1.35,0,0,1,.15-.28.92.92,0,0,1-.1.3l-.34.85c-.31.75-.79,1.84-1.47,3.22a69.22,69.22,0,0,1-6.85,11.08l-.08-.29a23.22,23.22,0,0,0,3.71,1.09,7.12,7.12,0,0,0,4.05-.3l-.07.05,7.77-8.52.54-.59-.11.79c-.52,3.87-1.06,8-1.63,12.21l-.25-.3,6.06.53c1,.08,2.09.2,3.08.25a1.45,1.45,0,0,0,1.2-.46,2.36,2.36,0,0,0,.41-1.33c.23-6.16.44-12.12.64-17.62l.09-2.55.42,2.52c.45,2.63,1,5.18,1.55,7.62.29,1.21.59,2.41.91,3.57a12.53,12.53,0,0,0,1.14,3.26,1.68,1.68,0,0,0,1.23.79,5.21,5.21,0,0,0,1.58-.23l3.13-.75,5.72-1.36-.11.28a31.23,31.23,0,0,1-4.24-11.69A23.22,23.22,0,0,1,235.16,376.53Z" style="fill:#263238"></path><path d="M234.78,293.79s0,.07-.05.19-.12.33-.2.55c-.21.51-.48,1.21-.83,2.1l-3.17,7.84c-.68,1.67-1.43,3.52-2.25,5.51-.41,1-.82,2-1.29,3.1a10.15,10.15,0,0,1-2,3.06,6.13,6.13,0,0,1-3.5,1.67,11.39,11.39,0,0,1-4.06-.24c-2.7-.61-5.3-2-8.21-2.15l-.39,0,.18-.35a147.81,147.81,0,0,0,7-16.27c.82-2.26,1.56-4.5,2.24-6.71l.5.19a33,33,0,0,1-3.64,6.21A16.25,16.25,0,0,1,210,303a11.81,11.81,0,0,1-6.34,1.3,8.62,8.62,0,0,1-5.47-2.43l-.16-.17.16-.15a48,48,0,0,0,10.52-14.67c.91-2,1.5-3.58,1.89-4.68.18-.52.32-.94.42-1.25a2.37,2.37,0,0,1,.17-.43,36.37,36.37,0,0,1-2.25,6.47,47.36,47.36,0,0,1-10.44,14.88v-.32a8.14,8.14,0,0,0,5.19,2.27,11.27,11.27,0,0,0,6.06-1.27,15.54,15.54,0,0,0,5-4.39A32.64,32.64,0,0,0,218.3,292l.5.19c-.68,2.22-1.43,4.48-2.25,6.75a144,144,0,0,1-7.06,16.31l-.22-.37c3.06.21,5.67,1.59,8.29,2.19a10.68,10.68,0,0,0,3.88.25,5.65,5.65,0,0,0,3.26-1.53,9.53,9.53,0,0,0,1.91-2.91c.48-1,.89-2.09,1.32-3.08l2.3-5.49,3.31-7.78.9-2.06.25-.53A1.16,1.16,0,0,1,234.78,293.79Z" style="fill:#263238"></path><path d="M269,275.76a20,20,0,0,0,1.71,5.16,17.47,17.47,0,0,0,3.78,5,16.53,16.53,0,0,0,7.07,3.89l.34.09-.22.27-8.62,10.51-.19.23-.21-.22a43.32,43.32,0,0,1-7.12-10.42l.51-.08q0,.33-.09.69a15.45,15.45,0,0,0,4.21,12.54l.33.33-.45.11a6.64,6.64,0,0,0-2.86,1.76,19.09,19.09,0,0,1-2.6,2.24,4.6,4.6,0,0,1-3.24.84,4,4,0,0,1-2.54-1.9,16.07,16.07,0,0,1-1.27-2.66q-.54-1.31-1-2.55c-.57-1.66-1-3.22-1.37-4.65a50.72,50.72,0,0,1-1.18-6.77c-.08-.8-.12-1.41-.14-1.83a4.26,4.26,0,0,1,0-.63,2.65,2.65,0,0,1,.1.62c.05.46.13,1.06.22,1.82a58.94,58.94,0,0,0,1.32,6.71c.37,1.41.84,3,1.42,4.6.3.82.62,1.66,1,2.53a15.67,15.67,0,0,0,1.26,2.57,3.51,3.51,0,0,0,2.25,1.68,4.06,4.06,0,0,0,2.89-.79,18.18,18.18,0,0,0,2.53-2.2,7.21,7.21,0,0,1,3.08-1.9l-.12.44a15.9,15.9,0,0,1-4.39-13c0-.24.07-.49.1-.71l.13-.87.38.8a42.54,42.54,0,0,0,7,10.31h-.4c3.14-3.79,6.07-7.31,8.69-10.46l.11.35a16.73,16.73,0,0,1-7.21-4.06A17.39,17.39,0,0,1,270.5,281a16.73,16.73,0,0,1-1.3-3.85c-.09-.46-.12-.82-.15-1.06A1.64,1.64,0,0,1,269,275.76Z" style="fill:#263238"></path><path d="M197.37,262.91s0,.16-.18.45-.32.7-.61,1.22a46.45,46.45,0,0,1-2.61,4.33,51.31,51.31,0,0,1-11.69,12.24l-.21.16-.16-.2L180.16,279l-3.38-4.14a11.62,11.62,0,0,1-1.53-2.11,2.37,2.37,0,0,1-.24-1.34,2.32,2.32,0,0,1,.6-1.2,8.66,8.66,0,0,1,1.95-1.37c.64-.38,1.24-.78,1.81-1.19a22.19,22.19,0,0,0,2.92-2.57,23,23,0,0,0,3.39-4.51c.67-1.16,1-1.84,1-1.82a1.79,1.79,0,0,1-.17.52c-.13.33-.34.81-.65,1.41a21.67,21.67,0,0,1-3.3,4.67,22,22,0,0,1-2.93,2.66c-.58.42-1.18.85-1.84,1.24a8,8,0,0,0-1.82,1.3,1.66,1.66,0,0,0-.26,2,11.69,11.69,0,0,0,1.47,2l3.39,4.14,1.74,2.13-.37,0a54.09,54.09,0,0,0,11.72-12c1.23-1.74,2.14-3.2,2.74-4.22A17.06,17.06,0,0,1,197.37,262.91Z" style="fill:#263238"></path><path d="M305.35,220.94A7.47,7.47,0,0,1,302,219a7.27,7.27,0,0,1-2.34-3c.13-.09,1.14,1.28,2.7,2.63S305.42,220.79,305.35,220.94Z" style="fill:#263238"></path><path d="M311.51,214.2a33.06,33.06,0,0,1-8.13-2.12,33.06,33.06,0,0,1,8.13,2.12Z" style="fill:#263238"></path><path d="M147.64,213.76c0-.16,2.12-.94,4.42-2.53s3.83-3.33,4-3.22a14,14,0,0,1-8.38,5.75Z" style="fill:#263238"></path><path d="M148.33,219.9a12.26,12.26,0,0,1,3.58-.56,12.3,12.3,0,0,1,3.63,0,12.26,12.26,0,0,1-3.58.56A12.33,12.33,0,0,1,148.33,219.9Z" style="fill:#263238"></path><path d="M145.32,326.63a11.65,11.65,0,0,1,1.93-3A11.8,11.8,0,0,1,149.6,321a11.77,11.77,0,0,1-1.92,3A12,12,0,0,1,145.32,326.63Z" style="fill:#263238"></path><path d="M290.26,373.89a5.24,5.24,0,0,1-3.88-4c.14-.06.68,1.09,1.75,2.19S290.33,373.74,290.26,373.89Z" style="fill:#263238"></path><path d="M293.27,368.54a7,7,0,0,1-3.48-1.51,6.74,6.74,0,0,1-2.55-2.8c.12-.1,1.2,1.18,2.87,2.36S293.33,368.38,293.27,368.54Z" style="fill:#263238"></path><path d="M299.79,362.16a21.11,21.11,0,0,1-12.16-3.86c.08-.15,2.58,1.3,5.94,2.36S299.81,362,299.79,362.16Z" style="fill:#263238"></path><path d="M142.94,373.9a18.91,18.91,0,0,0,2.95-1.62,19.93,19.93,0,0,0,2.27-2.49,5.6,5.6,0,0,1-5.22,4.11Z" style="fill:#263238"></path><path d="M140.77,377.9a9.86,9.86,0,0,1,3.2-.41,9.79,9.79,0,0,1,3.22.14,10,10,0,0,1-3.2.4A9.68,9.68,0,0,1,140.77,377.9Z" style="fill:#263238"></path><rect x="140.05" y="43.79" width="489.75" height="72.61" style="fill:#FF725E"></rect><g style="opacity:0.30000000000000004"><polygon points="147.19 116.4 186.28 43.79 222.25 43.79 184.72 116.4 147.19 116.4"></polygon></g><g style="opacity:0.30000000000000004"><polygon points="232.43 116.4 271.52 43.79 307.49 43.79 269.96 116.4 232.43 116.4"></polygon></g><g style="opacity:0.30000000000000004"><polygon points="317.67 116.4 356.76 43.79 392.73 43.79 355.2 116.4 317.67 116.4"></polygon></g><g style="opacity:0.30000000000000004"><polygon points="402.91 116.4 442 43.79 477.97 43.79 440.44 116.4 402.91 116.4"></polygon></g><g style="opacity:0.30000000000000004"><polygon points="488.15 116.4 527.24 43.79 563.21 43.79 525.68 116.4 488.15 116.4"></polygon></g><g style="opacity:0.30000000000000004"><polygon points="573.39 116.4 612.48 43.79 629.8 43.79 629.8 43.79 629.8 79.86 610.92 116.4 573.39 116.4"></polygon></g><path d="M629.8,116.4c0-1,0-25.6-.13-72.61l.13.13-489.72.14h0l.27-.27V116.4l-.27-.27,489.75.27-489.75.27h-.27V43.52h.3l489.72.14h.14v.13C629.85,90.8,629.81,115.45,629.8,116.4Z" style="fill:#263238"></path><path d="M312.36,88.92a11.08,11.08,0,0,1-4.35-4.1,12,12,0,0,1,0-11.9,11.08,11.08,0,0,1,4.35-4.1,13.15,13.15,0,0,1,6.26-1.47,13.52,13.52,0,0,1,5.47,1.07,10.49,10.49,0,0,1,4.05,3.11l-4,3.61a6.58,6.58,0,0,0-5.23-2.6,6.42,6.42,0,0,0-3.21.79,5.53,5.53,0,0,0-2.19,2.23,7.5,7.5,0,0,0,0,6.62,5.53,5.53,0,0,0,2.19,2.23,6.42,6.42,0,0,0,3.21.79,6.57,6.57,0,0,0,5.23-2.59l4,3.61a10.47,10.47,0,0,1-4.05,3.1,13.52,13.52,0,0,1-5.47,1.07A13.15,13.15,0,0,1,312.36,88.92Z" style="fill:#fff"></path><path d="M344.42,74.45q2.24,2,2.24,6V90h-5.6V87.74c-.87,1.66-2.55,2.5-5.06,2.5a8,8,0,0,1-3.45-.7A4.84,4.84,0,0,1,329.6,85a4.36,4.36,0,0,1,1.87-3.78q1.86-1.35,5.76-1.35h3.42q-.16-2.71-3.64-2.72a8.45,8.45,0,0,0-2.5.39,6.76,6.76,0,0,0-2.16,1.1l-2-4.09A11.27,11.27,0,0,1,333.8,73a16.34,16.34,0,0,1,4.1-.52C340.74,72.51,342.92,73.16,344.42,74.45Zm-4.91,11.48a2.79,2.79,0,0,0,1.14-1.49V83h-2.6c-1.75,0-2.62.59-2.62,1.75A1.52,1.52,0,0,0,336,86a2.56,2.56,0,0,0,1.64.48A3.32,3.32,0,0,0,339.51,85.93Z" style="fill:#fff"></path><path d="M358.58,73.09a9.09,9.09,0,0,1,3.37-.58v5.41a13,13,0,0,0-1.36-.09,4.18,4.18,0,0,0-3,1,4.23,4.23,0,0,0-1.09,3.2V90h-6V72.79h5.73v2.06A5.6,5.6,0,0,1,358.58,73.09Z" style="fill:#fff"></path><path d="M408.74,67.79,401.56,90h-6.72L390.6,76.47,386.17,90h-6.71l-7.19-22.16h6.46l4.46,14.15,4.69-14.15h5.76l4.47,14.28,4.65-14.28Z" style="fill:#fff"></path><path d="M423.27,74.45q2.25,2,2.25,6V90h-5.6V87.74c-.87,1.66-2.56,2.5-5.07,2.5a8,8,0,0,1-3.45-.7A4.85,4.85,0,0,1,408.46,85a4.36,4.36,0,0,1,1.87-3.78q1.86-1.35,5.76-1.35h3.42c-.11-1.81-1.32-2.72-3.65-2.72a8.5,8.5,0,0,0-2.5.39,6.7,6.7,0,0,0-2.15,1.1l-2-4.09A11.32,11.32,0,0,1,412.65,73a16.4,16.4,0,0,1,4.1-.52Q421,72.51,423.27,74.45Zm-4.9,11.48a2.89,2.89,0,0,0,1.14-1.49V83h-2.6c-1.75,0-2.63.59-2.63,1.75a1.52,1.52,0,0,0,.6,1.26,2.57,2.57,0,0,0,1.65.48A3.32,3.32,0,0,0,418.37,85.93Z" style="fill:#fff"></path><path d="M431.31,89.75A11.16,11.16,0,0,1,428,88.46l1.8-4.11a10.18,10.18,0,0,0,2.79,1.15,12.18,12.18,0,0,0,3.19.43,5.13,5.13,0,0,0,2.08-.3,1,1,0,0,0,.62-.87q0-.57-.75-.81a15.22,15.22,0,0,0-2.36-.46,23.72,23.72,0,0,1-3.49-.66,5.42,5.42,0,0,1-2.49-1.52,4.32,4.32,0,0,1-1-3.1,4.64,4.64,0,0,1,1-2.93,6.5,6.5,0,0,1,2.86-2,12.42,12.42,0,0,1,4.51-.74,17.83,17.83,0,0,1,3.71.38A10.8,10.8,0,0,1,443.44,74l-1.81,4.09a9.92,9.92,0,0,0-4.93-1.27,4.92,4.92,0,0,0-2.09.33c-.45.23-.67.52-.67.87s.24.69.73.84a15.33,15.33,0,0,0,2.4.49,28.77,28.77,0,0,1,3.52.73A5.43,5.43,0,0,1,443,81.55a4.23,4.23,0,0,1,1,3,4.68,4.68,0,0,1-1,2.9,6.49,6.49,0,0,1-2.9,2,13.11,13.11,0,0,1-4.61.73A19,19,0,0,1,431.31,89.75Z" style="fill:#fff"></path><path d="M463,74.41q1.95,1.89,1.95,5.73V90h-6V81.12c0-2.34-.94-3.52-2.82-3.52a3.22,3.22,0,0,0-2.49,1,4.35,4.35,0,0,0-.93,3V90h-6V66.46h6v7.92A6.45,6.45,0,0,1,455,73a8.61,8.61,0,0,1,2.85-.47A7,7,0,0,1,463,74.41Z" style="fill:#fff"></path><path d="M478.79,68.47a5.57,5.57,0,0,0-7.21-1.84l-.7.48a5.37,5.37,0,1,0,7.91,1.36Z" style="fill:#fff"></path><path d="M469.52,60.5a3.3,3.3,0,0,0-4.26-1.09l-.41.29a3.17,3.17,0,1,0,4.67.8Z" style="fill:#fff"></path></g><g id="freepik--Character--inject-10"><path d="M190.79,435.44l-2.16,16.86s16.51,6.62,16.42,9.77l-32.93-1.76,2.27-26.41Z" style="fill:#455a64"></path><g style="opacity:0.6000000000000001"><path d="M178.61,450a1.36,1.36,0,0,0-1.07,1.45,1.31,1.31,0,0,0,1.43,1.07,1.43,1.43,0,0,0,1.12-1.54,1.34,1.34,0,0,0-1.6-.95" style="fill:#fff"></path></g><g style="opacity:0.6000000000000001"><path d="M172.12,460.31l.23-2.67,31.73,2.82a2.28,2.28,0,0,1,1.12,1.86Z" style="fill:#fff"></path></g><path d="M189.18,452.18c0,.16-.83.16-1.66.61s-1.32,1.08-1.46,1,.18-1,1.2-1.5S189.23,452,189.18,452.18Z" style="fill:#263238"></path><path d="M192.5,453.92c0,.16-.7.37-1.31,1s-.83,1.33-1,1.31-.17-.94.59-1.71S192.51,453.77,192.5,453.92Z" style="fill:#263238"></path><path d="M194.08,458.22c-.15,0-.3-.8.19-1.64s1.27-1.12,1.33-1-.45.57-.85,1.26S194.24,458.22,194.08,458.22Z" style="fill:#263238"></path><path d="M189.25,448.29c-.08.14-.8-.15-1.71-.17s-1.65.2-1.72.05.66-.65,1.74-.61S189.34,448.17,189.25,448.29Z" style="fill:#263238"></path><g style="opacity:0.30000000000000004"><polygon points="190.36 438.78 189.98 441.79 173.85 440.17 174.08 437.45 190.36 438.78"></polygon></g><path d="M189.62,444.88a3.17,3.17,0,0,1-1.65-.16,7.14,7.14,0,0,1-1.67-.69,7.58,7.58,0,0,1-.9-.58,2.06,2.06,0,0,1-.46-.44.69.69,0,0,1,0-.85.88.88,0,0,1,.73-.31,2.39,2.39,0,0,1,.61.14,6.44,6.44,0,0,1,1,.45,6,6,0,0,1,1.43,1.13c.69.78.9,1.4.84,1.43s-.4-.49-1.12-1.15a6.87,6.87,0,0,0-1.39-1,6.31,6.31,0,0,0-.92-.37c-.34-.13-.64-.16-.74,0s0,.08,0,.19a1.77,1.77,0,0,0,.34.31,8.24,8.24,0,0,0,.82.58,8.6,8.6,0,0,0,1.54.75A11.08,11.08,0,0,1,189.62,444.88Z" style="fill:#263238"></path><path d="M189.39,445.09a2.58,2.58,0,0,1-.29-1.63,5.32,5.32,0,0,1,.39-1.78,5.58,5.58,0,0,1,.51-1,1.33,1.33,0,0,1,1.12-.73.75.75,0,0,1,.65.52,2.08,2.08,0,0,1,.11.62,3.58,3.58,0,0,1-.1,1.1,3.86,3.86,0,0,1-.86,1.64c-.72.79-1.4.92-1.41.87s.54-.35,1.11-1.12a3.92,3.92,0,0,0,.66-1.5,3.31,3.31,0,0,0,.05-.95c0-.36-.12-.65-.25-.62s-.47.21-.63.48a5.73,5.73,0,0,0-.49.86,6,6,0,0,0-.47,1.61C189.36,444.46,189.48,445.07,189.39,445.09Z" style="fill:#263238"></path><path d="M227.59,435.23l-1.3,16.95s16.82,5.77,16.88,8.93l-33-.1.94-26.49Z" style="fill:#455a64"></path><g style="opacity:0.6000000000000001"><path d="M216.16,450.34a1.34,1.34,0,0,0-1,1.49,1.29,1.29,0,0,0,1.47,1,1.43,1.43,0,0,0,1.05-1.59,1.35,1.35,0,0,0-1.65-.87" style="fill:#fff"></path></g><g style="opacity:0.6000000000000001"><path d="M210.2,461l.09-2.67,31.84,1.2a2.3,2.3,0,0,1,1.21,1.81Z" style="fill:#fff"></path></g><path d="M226.83,452c0,.16-.82.2-1.63.69s-1.26,1.14-1.41,1.07.13-1,1.13-1.56S226.87,451.89,226.83,452Z" style="fill:#263238"></path><path d="M230.23,453.6c0,.16-.68.4-1.25,1.06s-.76,1.37-.92,1.36-.23-.93.5-1.73S230.23,453.45,230.23,453.6Z" style="fill:#263238"></path><path d="M232,457.82c-.14,0-.34-.79.11-1.65s1.22-1.19,1.28-1.05-.42.59-.78,1.3S232.18,457.81,232,457.82Z" style="fill:#263238"></path><path d="M226.7,448.14c-.08.14-.8-.11-1.72-.09s-1.63.29-1.71.15.63-.69,1.7-.71S226.78,448,226.7,448.14Z" style="fill:#263238"></path><g style="opacity:0.30000000000000004"><polygon points="227.33 438.59 227.1 441.61 210.91 440.81 211 438.08 227.33 438.59"></polygon></g><path d="M198.62,217l1.24,27.71c.21,4.71,1.48,11.59,8.92,10.91h0c6.4-1.07,7.76-7.27,7.56-11.66-.09-2.09-.17-3.83-.16-4,0,0,7-1,7.22-8,.09-3.39-.28-10.37-.69-16.69a13,13,0,0,0-12.82-12.2h-.67C201.92,203.39,198.11,209.76,198.62,217Z" style="fill:#ffbf9d"></path><path d="M216.18,240a16.93,16.93,0,0,1-9.08-2.84s2.14,5.15,9.14,4.63Z" style="fill:#ff9a6c"></path><path d="M211,218.82c-.13.15-1-.45-2.14-.41s-2,.66-2.14.51.07-.33.43-.62a3,3,0,0,1,1.71-.59,2.8,2.8,0,0,1,1.71.52C210.9,218.5,211,218.76,211,218.82Z" style="fill:#263238"></path><path d="M211,221.34a1,1,0,0,1-.93.94.91.91,0,0,1-1-.87.94.94,0,0,1,.92-.94A.91.91,0,0,1,211,221.34Z" style="fill:#263238"></path><path d="M214.35,226.78a7.12,7.12,0,0,1,1.75-.29c.28,0,.54-.07.59-.26a1.38,1.38,0,0,0-.17-.82l-.78-2.1A36.17,36.17,0,0,1,214,217.8a36.26,36.26,0,0,1,2.18,5.36c.26.73.51,1.44.74,2.11a1.57,1.57,0,0,1,.13,1.08.7.7,0,0,1-.46.4,2.16,2.16,0,0,1-.47.06A7,7,0,0,1,214.35,226.78Z" style="fill:#263238"></path><path d="M210.21,215.1c-.09.27-1,.13-2.16.25s-2,.42-2.16.18.1-.37.46-.62a3.62,3.62,0,0,1,1.61-.56,3.54,3.54,0,0,1,1.69.24C210.05,214.76,210.26,215,210.21,215.1Z" style="fill:#263238"></path><path d="M221.2,215.28c-.11.22-1,0-2.14.07s-2,.22-2.14,0,.11-.31.49-.5a3.81,3.81,0,0,1,1.62-.36,3.89,3.89,0,0,1,1.64.31C221.06,215,221.25,215.18,221.2,215.28Z" style="fill:#263238"></path><path d="M199.11,222.24c-.11-.06-4.79-1.5-4.71,3.29s4.87,3.72,4.88,3.59S199.11,222.24,199.11,222.24Z" style="fill:#ffbf9d"></path><path d="M197.79,227.32s-.09.06-.23.13a.8.8,0,0,1-.62,0,2.05,2.05,0,0,1-1-1.83,2.71,2.71,0,0,1,.22-1.2,1,1,0,0,1,.62-.65.4.4,0,0,1,.49.22c.07.13,0,.23.06.23s.11-.08.06-.27a.48.48,0,0,0-.19-.3.65.65,0,0,0-.46-.12,1.19,1.19,0,0,0-.86.76,2.78,2.78,0,0,0-.27,1.34,2.16,2.16,0,0,0,1.25,2,.88.88,0,0,0,.76-.14C197.78,227.44,197.8,227.33,197.79,227.32Z" style="fill:#ff9a6c"></path><path d="M213.41,230.15c.05-.12-.91-.35-1.61-1.19a5.33,5.33,0,0,1-.74-1.21c-.16-.34-.27-.55-.32-.53s0,.25.07.63a3.6,3.6,0,0,0,.7,1.36,2.84,2.84,0,0,0,1.27.86C213.15,230.2,213.4,230.2,213.41,230.15Z" style="fill:#263238"></path><path d="M192.32,214.86c.9-1.74,1-3.77,1.45-5.68s1.37-3.92,3.18-4.68h0a5.05,5.05,0,0,1,5.09.19,6.53,6.53,0,0,1,4.65-5.37,16.2,16.2,0,0,1,8.68.18c1.84.63,3.66,2,5.9,4.07a22.32,22.32,0,0,1,2.6,2.81l2.48,6.4-1.61,3.51a7.44,7.44,0,0,1-.31.72v0l-1.22,7.29c-.22-2-.46-8.79-.68-10.75a10.92,10.92,0,0,1-8-3.15c-1.14-1.13-2.07-2.57-3.55-3.2-1.9-.81-4.06,0-6,.77l.08-.08a8.8,8.8,0,0,0-2.59,2.11,27.27,27.27,0,0,1-.52,11.58c-.15.57-.59,1.74-1.12,2-1.05.48-1.4-.6-2.08-1.14a2.83,2.83,0,0,0-2-.37,44.72,44.72,0,0,1-1.6-4.89,4.22,4.22,0,0,1-2,.25c.17-.5.35-1,.53-1.51a2.51,2.51,0,0,1-.84.44.78.78,0,0,1-.83-.31C191.9,215.66,192.13,215.23,192.32,214.86Z" style="fill:#263238"></path><path d="M204.32,205.37a5.72,5.72,0,0,0-.66.68,5,5,0,0,0-.94,2.38,8.52,8.52,0,0,0-.08,1.78c0,.64.13,1.33.22,2a20.27,20.27,0,0,1,.18,2.28,8.45,8.45,0,0,1-.09,1.22,2.4,2.4,0,0,1-.43,1.2,1,1,0,0,1-1,.38,1.55,1.55,0,0,1-.91-.45,3.62,3.62,0,0,1-.78-1.73H200a5.94,5.94,0,0,1-.76,1.51,2.08,2.08,0,0,1-1.32.81,1.34,1.34,0,0,1-.72-.08,1.21,1.21,0,0,1-.52-.45,1.16,1.16,0,0,1-.18-.61.9.9,0,0,1,.19-.56l.08.06a4.36,4.36,0,0,1-1.44,1.21,3.92,3.92,0,0,1-.45.21l-.16,0s0,0,.15-.08.25-.12.44-.23a4.48,4.48,0,0,0,1.38-1.22l.08.06a.9.9,0,0,0,0,1,1.05,1.05,0,0,0,.46.4,1.13,1.13,0,0,0,.66.07,2,2,0,0,0,1.22-.77,6,6,0,0,0,.74-1.48l.08-.23.06.24a3.52,3.52,0,0,0,.74,1.66,1.42,1.42,0,0,0,.82.4.9.9,0,0,0,.82-.33,2.39,2.39,0,0,0,.39-1.12,8,8,0,0,0,.09-1.19,20.33,20.33,0,0,0-.17-2.26c-.09-.72-.18-1.41-.2-2.06a8.78,8.78,0,0,1,.09-1.81,5,5,0,0,1,1-2.4A2.91,2.91,0,0,1,204.32,205.37Z" style="fill:#455a64"></path><path d="M226.27,210.93l-.05,0-.17.13a1.36,1.36,0,0,1-.28.21,3.68,3.68,0,0,1-.41.25,6.28,6.28,0,0,1-3,.71,7.87,7.87,0,0,1-4.29-1.32,13.78,13.78,0,0,1-3.86-4c-.55-.81-1-1.66-1.51-2.43a9.37,9.37,0,0,0-1.68-2,4.76,4.76,0,0,0-2.08-1.11,3.54,3.54,0,0,0-1.07-.06,4.22,4.22,0,0,0-1,.24,4.12,4.12,0,0,0-1.4,1,3.92,3.92,0,0,0-.73,1.07,5.34,5.34,0,0,0-.3,1.06v-.07c0-.06,0-.13,0-.22a4,4,0,0,1,.22-.8,4.11,4.11,0,0,1,.72-1.1,4,4,0,0,1,1.43-1,3.43,3.43,0,0,1,1-.26,3.22,3.22,0,0,1,1.11.05,4.87,4.87,0,0,1,2.14,1.12,9.37,9.37,0,0,1,1.72,2.06c.51.78,1,1.62,1.52,2.43a13.71,13.71,0,0,0,3.8,3.92,7.9,7.9,0,0,0,4.21,1.33,6.29,6.29,0,0,0,2.93-.65C226,211.18,226.26,210.91,226.27,210.93Z" style="fill:#455a64"></path><path d="M221.63,218.66c-.13.15-1-.46-2.14-.42s-2,.66-2.14.51.07-.33.43-.61a2.94,2.94,0,0,1,1.71-.6,2.87,2.87,0,0,1,1.71.52C221.57,218.33,221.7,218.59,221.63,218.66Z" style="fill:#263238"></path><path d="M221,221.34a1,1,0,0,1-.93.94.91.91,0,0,1-1-.87,1,1,0,0,1,.93-.94A.91.91,0,0,1,221,221.34Z" style="fill:#263238"></path><path d="M223.28,205.62a3,3,0,0,0,2.55,1.29,8.25,8.25,0,0,0,1-.35c.35.19.32,1.36.1,1.69a5.62,5.62,0,0,1-.7.79c1.17.57,2.21.22,3.41-.28a6,6,0,0,1-3.35,5,2.09,2.09,0,0,1-1.92.13,2.45,2.45,0,0,1-.92-1.47,26.46,26.46,0,0,1-1.14-6.37Z" style="fill:#263238"></path><polygon points="236.79 290.85 234.84 281.06 229.47 281.06 229.09 296.71 240.82 300.82 247.84 296.28 236.79 290.85" style="fill:#ffbf9d"></polygon><path d="M223.93,246.93c.53.18,9.53,4.34,10.77,10.35s3.53,24.4,3.53,24.4l-9.37-.71Z" style="fill:#e0e0e0"></path><path d="M178.88,265.94l2.18,34.88,4.36,12.29,41.45-5.45-2.4-60.48-8.16-3.8s-.09,7.12-5.53,6.23-12-8.44-11-7.62L185,245.12Z" style="fill:#e0e0e0"></path><path d="M186.16,244.88s-6.55,1.16-9.55,6.34-10.22,22.65-10.22,22.65l19.81,8.64s9.77-18.75,9.5-23.66S186.16,244.88,186.16,244.88Z" style="fill:#e0e0e0"></path><path d="M192.84,264.61a8.5,8.5,0,0,1-.46,1.41c-.36,1-.84,2.27-1.41,3.81-1.22,3.22-2.95,7.67-4.9,12.62l-.09.25-.25-.11-1-.43c-5.1-2.22-9.7-4.26-13-5.76l-3.93-1.8a9,9,0,0,1-1.41-.73,9,9,0,0,1,1.49.54l4,1.65c3.36,1.42,8,3.4,13.09,5.63l1,.42-.35.15c2-4.95,3.74-9.38,5-12.56.64-1.52,1.17-2.78,1.57-3.75A7.81,7.81,0,0,1,192.84,264.61Z" style="fill:#263238"></path><path d="M193.25,259.9c-.09,0,.1-1,0-2.61a13,13,0,0,0-1.8-5.91,13.18,13.18,0,0,0-4.36-4.37c-1.37-.83-2.34-1.14-2.31-1.22a1.83,1.83,0,0,1,.7.14,10.27,10.27,0,0,1,1.79.76,12.07,12.07,0,0,1,6.35,10.58,10.11,10.11,0,0,1-.17,1.94A2,2,0,0,1,193.25,259.9Z" style="fill:#263238"></path><path d="M202.87,271.67l27-1.13,1.84,38.38L233,329.84l-1.26,119.23H209.88l-2.28-55.38.17-28.14.6-12.52-8.32,47.63-6.24,50.78-25.07-2.61s3.87-43.52,5.11-52.41,7.1-56,7.1-57.07,2.48-26.24,2.48-26.24l.27-4.85s11.5-3.21,14.6-9.62S202.87,271.67,202.87,271.67Z" style="fill:#FF725E"></path><path d="M204.35,259.2c-6.06-11.47-10.88-16-10.88-16l-4.17,1c4.91.28,14.26,28,14.26,28l5.82-.19S209.52,269,204.35,259.2Z" style="fill:#FF725E"></path><path d="M226.33,247.58,222.4,246l.1.57c0,.47,2.33,25.62,2.33,25.62l3.79-.93Z" style="fill:#FF725E"></path><path d="M194.35,317.38a4.27,4.27,0,0,1,.06,2.07,8.23,8.23,0,0,1-6.58,6.91,4.24,4.24,0,0,1-2.07.05c0-.09.79-.08,2-.4a8.64,8.64,0,0,0,6.29-6.62C194.31,318.17,194.26,317.38,194.35,317.38Z" style="fill:#263238"></path><path d="M213,333.5a11.79,11.79,0,0,1-.41,3.44c-.42,2.1-1.14,5-2,8.11s-1.56,6-2,8.08-.73,3.37-.81,3.36a2.94,2.94,0,0,1,0-.94c.06-.59.2-1.45.4-2.5.4-2.1,1.08-5,1.9-8.13s1.61-6,2.11-8.06S212.92,333.5,213,333.5Z" style="fill:#263238"></path><g style="opacity:0.30000000000000004"><path d="M212.79,335c0,.26,2.29,25.49-5,29.47l.55-11.45Z"></path></g><path d="M223.53,300.82l-.71-4.29-14.12-1.61s-8.57,20.19-8.75,20.72c0,0,12.33,9.12,14.11,8.58,1.55-.47,7.36-13,8.89-16.35a2.81,2.81,0,0,0,.2-1.69l-.87-4.47Zm-4.73,10.57-4.35,8.36a2.07,2.07,0,0,1-3,.78l-6.07-3.92.54-2.88,5.78-11.25,4.32,1.89.83.39a4.1,4.1,0,0,1,2.38,3.74v1A4.12,4.12,0,0,1,218.8,311.39Z" style="fill:#263238"></path><path d="M197.71,300.82h11.66s7.09,3.58,7.39,4a30.68,30.68,0,0,1,1,3.82,1.09,1.09,0,0,1-.68,1.25l-.82-.31-.81,2.63.44,2.36s-.15,1.18-1.18.88-6.87-5.89-6.87-5.89v.73s6.57,6.05,6.28,7.23-1.91,1.62-2.36,1.18-6.5-5.61-6.5-5.61-5.61-1-7.53-2.07-5.9-3.54-5.9-3.54Z" style="fill:#ffbf9d"></path><path d="M177.33,288.17l3.92-7.51-13.07-5.85-7.25,17s-1.45,3.1,2.18,5.65c2.42,1.71,30.09,10.95,30.09,10.95l6.75-6.94Z" style="fill:#ffbf9d"></path><path d="M209.28,306.45c0-.07.55-.06,1.25.38a13.74,13.74,0,0,1,2.29,2.08,13.53,13.53,0,0,1,2.64,3.45,27,27,0,0,1-3-3.09,28.75,28.75,0,0,0-2.12-2.14C209.73,306.66,209.26,306.53,209.28,306.45Z" style="fill:#ff9a6c"></path><path d="M211,303.86c0-.06.5.07,1.2.42a9.17,9.17,0,0,1,2.45,1.84,6.62,6.62,0,0,1,1.51,2.67,2.37,2.37,0,0,1,.14,1.27,12.52,12.52,0,0,0-2-3.59C212.73,304.8,210.94,304,211,303.86Z" style="fill:#ff9a6c"></path><polygon points="259.9 289.74 222.27 296.47 223.53 300.82 260.85 293.41 259.9 289.74" style="fill:#263238"></polygon><path d="M242.42,292.83s2.88-3.07,4.27-3.51,5.17-.89,5.52-.46a1.55,1.55,0,0,1,.22,2.18,1.1,1.1,0,0,1-.15.16,1.65,1.65,0,0,1-1.88.21h0Z" style="fill:#ffbf9d"></path><polygon points="260.15 290.71 291.18 285.12 291.61 287.47 260.62 292.54 260.15 290.71" style="fill:#e0e0e0"></polygon><polygon points="298.96 287.75 291.14 288.44 290.21 284 297.68 281.41 298.96 287.75" style="fill:#263238"></polygon><path d="M239.27,298.48s2.37,4.53,4.23,3.81,1.75-1.87,1.75-1.87.16,2.64,2,1.95,1.72-1.89,1.72-1.89a1.77,1.77,0,0,0,2.47,0,6.83,6.83,0,0,0,2.06-2s1.34-5.56,0-5.66a3.33,3.33,0,0,0-2.16.51s-.21-1.85-1.65-1.65a1.63,1.63,0,0,0-1.34,1.75s-.43-1.54-1.65-1.32a1.35,1.35,0,0,0-1.13,1.43s-.73-2-2-1.34-1,2.72-1,2.72l-1,3.25Z" style="fill:#ffbf9d"></path><path d="M245.54,293.72a5.87,5.87,0,0,1,.66,3.4,5.8,5.8,0,0,1-.91,3.35c-.14-.06.33-1.51.39-3.37S245.39,293.76,245.54,293.72Z" style="fill:#ff9a6c"></path><path d="M249,300.67c-.15,0,0-1.67-.15-3.69s-.68-3.61-.53-3.67a7.51,7.51,0,0,1,1.05,3.62A7.35,7.35,0,0,1,249,300.67Z" style="fill:#ff9a6c"></path><path d="M251.27,300.42c-.14-.06.38-1.57.39-3.51s-.47-3.46-.32-3.51a5.92,5.92,0,0,1,.84,3.52A5.81,5.81,0,0,1,251.27,300.42Z" style="fill:#ff9a6c"></path><path d="M347.14,266.63c0,.14-10.64,3.9-23.87,8.41s-24,8.06-24,7.92,10.64-3.9,23.88-8.41S347.09,266.49,347.14,266.63Z" style="fill:#fff"></path><path d="M323,280.4a63.67,63.67,0,0,1-7.86,1.57,61.63,61.63,0,0,1-7.94,1.06,61.06,61.06,0,0,1,7.86-1.57A59.37,59.37,0,0,1,323,280.4Z" style="fill:#fff"></path><path d="M343.54,286.81c0,.15-9.45.22-21.11.16s-21.11-.23-21.11-.37,9.45-.21,21.11-.15S343.54,286.67,343.54,286.81Z" style="fill:#fff"></path><path d="M307.76,274a21.31,21.31,0,0,1-3.51,3.19,22.48,22.48,0,0,1-3.83,2.78,43.17,43.17,0,0,1,7.34-6Z" style="fill:#fff"></path><path d="M311.49,291a18.3,18.3,0,0,1-5.05-.33,18.9,18.9,0,0,1-4.92-1.23,38.61,38.61,0,0,1,5,.71A42,42,0,0,1,311.49,291Z" style="fill:#fff"></path></g></svg>