<svg class="animated" id="freepik_stories-car-finance" xmlns="http://www.w3.org/2000/svg" viewBox="0 0 500 500" version="1.1" xmlns:xlink="http://www.w3.org/1999/xlink" xmlns:svgjs="http://svgjs.com/svgjs"><style>svg#freepik_stories-car-finance:not(.animated) .animable {opacity: 0;}svg#freepik_stories-car-finance.animated #freepik--background-complete--inject-43 {animation: 1.5s Infinite  linear shake;animation-delay: 0s;}            @keyframes shake {                10%, 90% {                    transform: translate3d(-1px, 0, 0);                  }                  20%, 80% {                    transform: translate3d(2px, 0, 0);                  }                  30%, 50%, 70% {                    transform: translate3d(-4px, 0, 0);                  }                  40%, 60% {                    transform: translate3d(4px, 0, 0);                  }            }        .animator-hidden { display: none; }</style><g id="freepik--background-complete--inject-43" class="animable animator-active" style="transform-origin: 250px 228.23px;"><rect x="416.78" y="398.49" width="33.12" height="0.25" style="fill: rgb(235, 235, 235); transform-origin: 433.34px 398.615px;" id="el9t50bwwcvfp" class="animable"></rect><rect x="322.53" y="401.21" width="8.69" height="0.25" style="fill: rgb(235, 235, 235); transform-origin: 326.875px 401.335px;" id="ellbvom2936o" class="animable"></rect><rect x="396.59" y="389.21" width="19.19" height="0.25" style="fill: rgb(235, 235, 235); transform-origin: 406.185px 389.335px;" id="el1nhkbphuair" class="animable"></rect><rect x="52.46" y="390.89" width="43.19" height="0.25" style="fill: rgb(235, 235, 235); transform-origin: 74.055px 391.015px;" id="elbx27j08mkvr" class="animable"></rect><rect x="104.56" y="390.89" width="6.33" height="0.25" style="fill: rgb(235, 235, 235); transform-origin: 107.725px 391.015px;" id="el56mrwiactqu" class="animable"></rect><rect x="131.47" y="395.11" width="93.68" height="0.25" style="fill: rgb(235, 235, 235); transform-origin: 178.31px 395.235px;" id="ela8jnyirsv8w" class="animable"></rect><path d="M238.4,337.8H45.3a5.71,5.71,0,0,1-5.71-5.71V60.66A5.71,5.71,0,0,1,45.3,55H238.4a5.71,5.71,0,0,1,5.71,5.71V332.09A5.71,5.71,0,0,1,238.4,337.8ZM45.3,55.2a5.47,5.47,0,0,0-5.46,5.46V332.09a5.47,5.47,0,0,0,5.46,5.46H238.4a5.47,5.47,0,0,0,5.46-5.46V60.66a5.47,5.47,0,0,0-5.46-5.46Z" style="fill: rgb(235, 235, 235); transform-origin: 141.85px 196.4px;" id="elcu0qe3e1ual" class="animable"></path><path d="M454.7,337.8H261.6a5.71,5.71,0,0,1-5.71-5.71V60.66A5.71,5.71,0,0,1,261.6,55H454.7a5.71,5.71,0,0,1,5.71,5.71V332.09A5.71,5.71,0,0,1,454.7,337.8ZM261.6,55.2a5.47,5.47,0,0,0-5.46,5.46V332.09a5.47,5.47,0,0,0,5.46,5.46H454.7a5.47,5.47,0,0,0,5.46-5.46V60.66a5.47,5.47,0,0,0-5.46-5.46Z" style="fill: rgb(235, 235, 235); transform-origin: 358.15px 196.4px;" id="elnglbb0ex2fn" class="animable"></path><rect y="382.4" width="500" height="0.25" style="fill: rgb(235, 235, 235); transform-origin: 250px 382.525px;" id="el0tgbuhurktn" class="animable"></rect><path d="M403.45,219.1c13.67-10.65,31.29-12.34,45-23L430.1,177.8c-13.67,10.65-31.28,12.34-45,23Z" style="fill: rgb(245, 245, 245); transform-origin: 416.775px 198.45px;" id="el4kkbng8pb1g" class="animable"></path><path d="M393.22,198.23c10.43-5.87,22.54-7.78,32.88-13.8a9.8,9.8,0,0,0,7.17.61l7.68,7.67a6.74,6.74,0,0,0-.61,6c-10.34,6-22.46,7.92-32.88,13.8a9.7,9.7,0,0,0-7.17-.61l-7.68-7.68A6.75,6.75,0,0,0,393.22,198.23Z" style="fill: rgb(230, 230, 230); transform-origin: 416.78px 198.47px;" id="el0jsvrxh8ah8s" class="animable"></path><path d="M410.56,200.66c2.92,2.92,8.05,4.28,11.51,3.08s3.85-4.59.93-7.51S415,192,411.49,193.16,407.64,197.74,410.56,200.66Z" style="fill: rgb(250, 250, 250); transform-origin: 416.772px 198.458px;" id="el9ohy3a8zlbm" class="animable"></path><path d="M390.14,103.91c9.33,7.84,11.49,20.64,4.76,28.6l-2.34,2.78c-6.7,8-19.68,8-29,.2s-11.48-20.64-4.76-28.61l2.34-2.79C367.84,96.14,380.81,96.07,390.14,103.91Z" style="fill: rgb(224, 224, 224); transform-origin: 376.854px 119.697px;" id="el5c1xt2w0l6m" class="animable"></path><g id="el3emuybuj5wd"><ellipse cx="378.02" cy="118.31" rx="18.83" ry="22.06" style="fill: rgb(245, 245, 245); transform-origin: 378.02px 118.31px; transform: rotate(-49.92deg);" class="animable" id="elyc3ldagscr"></ellipse></g><g id="elkt7s345azug"><ellipse cx="378.02" cy="118.31" rx="15.56" ry="18.24" style="fill: rgb(224, 224, 224); transform-origin: 378.02px 118.31px; transform: rotate(-49.92deg);" class="animable" id="el3gtl6q4clhx"></ellipse></g><path d="M386.06,124.23l2,2.21-1.39,1.26-2-2.21a9,9,0,0,1-5.63,2.08L378,124.92a8,8,0,0,0,4.8-1.56l-3.58-4c-2.36,1.15-5,2.24-7.5-.52-1.82-2-2.15-4.92.23-7.59l-2-2.25,1.39-1.25,2,2.21a8.78,8.78,0,0,1,4.53-1.88l1.08,2.67a8.37,8.37,0,0,0-3.71,1.4l3.62,4c2.36-1.16,5-2.3,7.51.45C388.14,118.62,388.44,121.52,386.06,124.23ZM377,117l-3.17-3.55a2.41,2.41,0,0,0-.07,3.32C374.63,117.73,375.75,117.52,377,117Zm7.27,1.75c-.86-1-2-.79-3.33-.2l3.16,3.48c1-1.28.95-2.42.18-3.28Z" style="fill: rgb(245, 245, 245); transform-origin: 379.005px 117.725px;" id="elzgbbio8lifa" class="animable"></path><path d="M437.26,268.21c6.33,12.67,2.71,27.33-8.14,32.72l-3.79,1.88c-10.82,5.4-24.72-.51-31-13.19s-2.7-27.34,8.15-32.73l3.79-1.89C417.05,249.6,430.92,255.53,437.26,268.21Z" style="fill: rgb(224, 224, 224); transform-origin: 415.807px 278.907px;" id="elssb9c2o60nd" class="animable"></path><g id="elbb2javf22t"><ellipse cx="417.67" cy="277.97" rx="21.89" ry="25.66" style="fill: rgb(245, 245, 245); transform-origin: 417.67px 277.97px; transform: rotate(-26.49deg);" class="animable" id="elckns7ix820q"></ellipse></g><g id="elzyblmid7dh"><ellipse cx="417.67" cy="277.97" rx="18.09" ry="21.21" style="fill: rgb(224, 224, 224); transform-origin: 417.67px 277.97px; transform: rotate(-26.49deg);" class="animable" id="elol6gvn9vg5"></ellipse></g><path d="M423.51,288l1.11,3.29-2.06.7-1.1-3.27a10.44,10.44,0,0,1-7-.39l.11-3.31a9.3,9.3,0,0,0,5.84.56l-2-5.89c-3,.14-6.4.07-7.77-4-1-3,0-6.24,3.75-8l-1.11-3.32,2.06-.69,1.09,3.27a10.05,10.05,0,0,1,5.7.09l-.07,3.34a9.94,9.94,0,0,0-4.6-.22l2,5.95c3.06-.14,6.44-.13,7.82,4C428.32,283,427.3,286.21,423.51,288Zm-6.28-11.91-1.75-5.24a2.8,2.8,0,0,0-1.61,3.5C414.32,275.79,415.61,276.08,417.23,276.09Zm6.95,5.24c-.48-1.43-1.78-1.77-3.47-1.76l1.77,5.18c1.68-.9,2.13-2.15,1.7-3.43Z" style="fill: rgb(245, 245, 245); transform-origin: 418.969px 277.835px;" id="elz20c6kmr30f" class="animable"></path><path d="M152.07,118.6l4.3,2.15c12.32,6.12,16.43,22.75,9.25,37.14s-22.94,21.09-35.22,15l-4.3-2.13c-12.32-6.12-16.43-22.75-9.24-37.14S139.79,112.48,152.07,118.6Z" style="fill: rgb(224, 224, 224); transform-origin: 141.236px 145.74px;" id="eljrrwbvgvinb" class="animable"></path><g id="elcjaqidowj5l"><ellipse cx="139.09" cy="144.67" rx="29.12" ry="24.85" style="fill: rgb(245, 245, 245); transform-origin: 139.09px 144.67px; transform: rotate(-63.51deg);" class="animable" id="elf1lhe1qi8l6"></ellipse></g><g id="elfmhjckn6wj"><ellipse cx="139.09" cy="144.67" rx="24.07" ry="20.54" style="fill: rgb(224, 224, 224); transform-origin: 139.09px 144.67px; transform: rotate(-63.51deg);" class="animable" id="elfxqqsqa2sgq"></ellipse></g><path d="M134.74,156.59,133,160.12l-2.22-1.1,1.75-3.5a11.82,11.82,0,0,1-5.28-5.9L130,147a10.61,10.61,0,0,0,4.25,5.14l3.13-6.31c-2.56-2.34-5.19-5.08-3-9.46,1.6-3.22,5-5,9.43-3.41l1.78-3.56,2.21,1.09L146,134a11.42,11.42,0,0,1,4.5,4.64l-2.74,2.63a11.29,11.29,0,0,0-3.52-3.88l-3.17,6.38c2.57,2.34,5.27,5.07,3.09,9.45C142.62,156.42,139.22,158.19,134.74,156.59Zm4.52-14.6,2.8-5.61a3.17,3.17,0,0,0-4.1,1.52C137.16,139.41,138,140.68,139.26,142Zm1.37,9.78c.76-1.54,0-2.85-1.37-4.19l-2.74,5.57c2.07.63,3.43,0,4.12-1.38Z" style="fill: rgb(245, 245, 245); transform-origin: 138.875px 144.76px;" id="elh9yc6r8099c" class="animable"></path><path d="M109.86,263.71l3.53-1.18c10.12-3.4,21.5,3.47,25.45,15.3s-1,24.16-11.1,27.54l-3.53,1.18c-10.12,3.4-21.49-3.47-25.44-15.3S99.76,267.09,109.86,263.71Z" style="fill: rgb(224, 224, 224); transform-origin: 118.804px 284.54px;" id="eli8q1gtg4f4" class="animable"></path><g id="elb3fu0ilgc6q"><ellipse cx="117.04" cy="285.14" rx="19.27" ry="22.59" style="fill: rgb(245, 245, 245); transform-origin: 117.04px 285.14px; transform: rotate(-18.51deg);" class="animable" id="elr2h8zuaq4k"></ellipse></g><g id="el68zpurzr9d5"><ellipse cx="117.04" cy="285.14" rx="15.93" ry="18.67" style="fill: rgb(224, 224, 224); transform-origin: 117.04px 285.14px; transform: rotate(-18.51deg);" class="animable" id="elpsnwgjdx0p"></ellipse></g><path d="M121.19,294.06l1,2.9-1.81.61-1-2.88a9.25,9.25,0,0,1-6.14-.34l.09-2.91a8.18,8.18,0,0,0,5.14.48l-1.74-5.18c-2.69.12-5.63.06-6.84-3.53-.88-2.65,0-5.5,3.31-7l-1-2.93,1.81-.6,1,2.88a8.93,8.93,0,0,1,5,.07l-.06,2.95a8.85,8.85,0,0,0-4.06-.2l1.76,5.24c2.69-.12,5.67-.11,6.88,3.49C125.42,289.64,124.52,292.48,121.19,294.06Zm-5.53-10.49L114.12,279A2.46,2.46,0,0,0,112.7,282C113.09,283.3,114.23,283.56,115.66,283.57Zm6.11,4.61c-.42-1.26-1.56-1.56-3-1.54l1.55,4.56c1.48-.79,1.88-1.9,1.5-3Z" style="fill: rgb(245, 245, 245); transform-origin: 117.211px 285.125px;" id="eli0xojlyt4fr" class="animable"></path><path d="M80.89,229.09c25.21,3.13,45.23,19.64,70.44,22.77v-38c-25.21-3.13-45.23-19.64-70.44-22.77Z" style="fill: rgb(245, 245, 245); transform-origin: 116.11px 221.475px;" id="elv7e46l68p2" class="animable"></path><path d="M91.91,196.84c16.9,4.72,31.43,15.31,48.4,19.78a14.32,14.32,0,0,0,6.8,8.07v15.92a9.87,9.87,0,0,0-6.8,5.54c-17-4.48-31.5-15.06-48.4-19.78a14.27,14.27,0,0,0-6.81-8.07V202.38A9.87,9.87,0,0,0,91.91,196.84Z" style="fill: rgb(230, 230, 230); transform-origin: 116.105px 221.495px;" id="el5zqcmuo930w" class="animable"></path><path d="M107.36,217.34c0,6.06,3.92,12.78,8.75,15.12s8.74-.76,8.74-6.81-3.91-12.78-8.74-15.12S107.36,211.28,107.36,217.34Z" style="fill: rgb(250, 250, 250); transform-origin: 116.105px 221.494px;" id="eld8imgyptriq" class="animable"></path><path d="M176.18,88.58c10.65,13.67,12.34,31.29,23,45l18.31-18.31c-10.65-13.67-12.34-31.29-23-45Z" style="fill: rgb(245, 245, 245); transform-origin: 196.835px 101.925px;" id="ele9w0kvtk2ui" class="animable"></path><path d="M197.05,78.35c5.87,10.42,7.78,22.54,13.8,32.88a9.75,9.75,0,0,0-.61,7.17l-7.67,7.67a6.74,6.74,0,0,0-6-.6c-6-10.34-7.93-22.46-13.8-32.89a9.75,9.75,0,0,0,.61-7.17l7.68-7.67A6.75,6.75,0,0,0,197.05,78.35Z" style="fill: rgb(230, 230, 230); transform-origin: 196.81px 101.905px;" id="el1y8ligea5h8" class="animable"></path><path d="M194.62,95.69c-2.92,2.92-4.28,8-3.08,11.5s4.58,3.86,7.5.94,4.28-8,3.08-11.51S197.54,92.76,194.62,95.69Z" style="fill: rgb(250, 250, 250); transform-origin: 196.83px 101.904px;" id="elz6bc4fak5xa" class="animable"></path></g><g id="freepik--Shadow--inject-43" class="animable" style="transform-origin: 250px 415.69px;"><ellipse id="freepik--path--inject-43" cx="250" cy="415.69" rx="193.89" ry="11.32" style="fill: rgb(245, 245, 245); transform-origin: 250px 415.69px;" class="animable"></ellipse></g><g id="freepik--Character--inject-43" class="animable" style="transform-origin: 392.21px 323.913px;"><path d="M386,266.21c-2-1.7-4-3.44-6-5.21l-5.92-5.3a5.89,5.89,0,0,1-2-3.57,7,7,0,0,1,.39-3.36,13.87,13.87,0,0,1,2.55-4.19,31.22,31.22,0,0,1,6.44-5.6l2.25,2.64a49.15,49.15,0,0,0-4.43,6,9.44,9.44,0,0,0-1.22,2.81c-.07.37,0,.61,0,.58s-.06-.26,0-.23l1.61,1.17,1.61,1.22c1.07.82,2.13,1.66,3.16,2.5,2.09,1.68,4.12,3.41,6.11,5.2Z" style="fill: rgb(128, 62, 60); transform-origin: 381.286px 252.595px;" id="elaucnqfe74o" class="animable"></path><path d="M389.82,268.07c-3.56.52-11.78-7.82-11.78-7.82l5.63-6.45a44.85,44.85,0,0,1,7.61,6.09C394.56,263.31,393.72,267.5,389.82,268.07Z" style="fill: #FF2727; transform-origin: 385.676px 260.947px;" id="elvxcwprqeq8j" class="animable"></path><g id="eldrxlokbo4bp"><path d="M389.82,268.07c-3.56.52-11.78-7.82-11.78-7.82l5.63-6.45a44.85,44.85,0,0,1,7.61,6.09C394.56,263.31,393.72,267.5,389.82,268.07Z" style="fill: rgb(255, 255, 255); opacity: 0.7; transform-origin: 385.676px 260.947px;" class="animable" id="el7gvr30yz8k8"></path></g><path d="M380.69,240.48l.94-4.55,4.1,3.12s-1.08,4-3.12,3.35Z" style="fill: rgb(127, 62, 59); transform-origin: 383.21px 239.201px;" id="el9825xmz0k2w" class="animable"></path><polygon points="384.77 232.58 387.38 236.45 385.73 239.05 381.63 235.93 384.77 232.58" style="fill: rgb(127, 62, 59); transform-origin: 384.505px 235.815px;" id="elwmxetl5sc2f" class="animable"></polygon><g id="elsyvzu9u27k"><path d="M388.27,263.56c-1.66,1.42-5.38.14-7.58-.82,2.59,2.3,6.47,5.33,8.79,5.33C389.75,265.57,389.86,262.22,388.27,263.56Z" style="opacity: 0.2; transform-origin: 385.165px 265.405px;" class="animable" id="ellds4fjevjpn"></path></g><polygon points="366.16 405.16 361.57 403.49 364.1 392.44 368.69 394.1 366.16 405.16" style="fill: rgb(127, 62, 59); transform-origin: 365.13px 398.8px;" id="el8qpiu61hmz5" class="animable"></polygon><polygon points="402.34 411.25 397.48 411.25 396.09 399.97 400.96 399.97 402.34 411.25" style="fill: rgb(127, 62, 59); transform-origin: 399.215px 405.61px;" id="elpdcqq8fws5" class="animable"></polygon><path d="M396.84,410.69h5.93a.42.42,0,0,1,.42.33l1,4.33a.71.71,0,0,1-.71.86c-1.91,0-3.3-.14-5.71-.14-1.48,0-5.94.15-8,.15s-2.33-2-1.49-2.2c3.74-.82,6.56-1.95,7.75-3A1.13,1.13,0,0,1,396.84,410.69Z" style="fill: #FF2727; transform-origin: 396.02px 413.455px;" id="eljj1zh540t4c" class="animable"></path><path d="M361.41,402.56l5.21,1.12a.44.44,0,0,1,.34.41l.07,4.43a.7.7,0,0,1-.86.7c-1.87-.43-4.57-1.13-6.93-1.63-2.76-.6-4.47-1.15-7.71-1.85-2-.42-2.1-2.51-1.24-2.52,3.9,0,6.26.75,9.89-.54A2.25,2.25,0,0,1,361.41,402.56Z" style="fill: #FF2727; transform-origin: 358.404px 405.881px;" id="elxtrw0lss12a" class="animable"></path><g id="elr9bekcm2x7a"><polygon points="364.1 392.44 362.8 398.14 367.39 399.8 368.69 394.11 364.1 392.44" style="opacity: 0.2; transform-origin: 365.745px 396.12px;" class="animable" id="eldatkhw6a6n4"></polygon></g><g id="el0e17r50sns88"><polygon points="400.96 399.98 396.09 399.98 396.81 405.79 401.68 405.79 400.96 399.98" style="opacity: 0.2; transform-origin: 398.885px 402.885px;" class="animable" id="el9mlaiw7ng1"></polygon></g><path d="M416.58,263.13a119.93,119.93,0,0,0-5,16.5c-.91,3.69-1.62,7.23-2.18,10.45-1.32,7.55-1.85,13.36-2.31,15.29l-25.55-5.17c-.19-28,8.22-41.25,8.22-41.25A51.48,51.48,0,0,1,396,259l1.34.12a95.08,95.08,0,0,1,10.86,2.2c.68.17,1.37.36,2,.56A34.48,34.48,0,0,0,416.58,263.13Z" style="fill: #FF2727; transform-origin: 399.058px 282.124px;" id="elr3kzn1ubjo" class="animable"></path><g id="el7keszgbozyb"><path d="M416.58,263.13a119.93,119.93,0,0,0-5,16.5c-.91,3.69-1.62,7.23-2.18,10.45-1.32,7.55-1.85,13.36-2.31,15.29l-25.55-5.17c-.19-28,8.22-41.25,8.22-41.25A51.48,51.48,0,0,1,396,259l1.34.12a95.08,95.08,0,0,1,10.86,2.2c.68.17,1.37.36,2,.56A34.48,34.48,0,0,0,416.58,263.13Z" style="fill: rgb(255, 255, 255); opacity: 0.7; transform-origin: 399.058px 282.124px;" class="animable" id="elr8t9gbkrfjn"></path></g><path d="M397.71,264.43c-1,1.93-7,25.77-8.57,30.93.19,1.15.44,2.31.74,3.48.82-1,1.69-2,2.59-2.95,1.1-5,5.32-28.8,6.43-31.28Z" style="fill: #FF2727; transform-origin: 394.02px 281.635px;" id="ele06nwdvs59u" class="animable"></path><polygon points="397.68 265.92 397.26 263.34 399.14 262.94 400.28 263.99 397.68 265.92" style="fill: #FF2727; transform-origin: 398.77px 264.43px;" id="el95e1wb23un8" class="animable"></polygon><path d="M409.51,248.86c-1.36,3.36-3.28,9.63-1.28,12.46a11,11,0,0,1-9,1.63c-3-.67-2.74-2.8-1.85-3.83,4.08-.15,4.53-3.06,4.38-5.91Z" style="fill: rgb(127, 62, 59); transform-origin: 403.146px 256.075px;" id="elk0b7mukq7c" class="animable"></path><path d="M399.14,262.93s.84,1.69,1.88,3.4c2.2-.63,7.4-2.46,7.77-5.1a2.69,2.69,0,0,0-1-1.48A28.61,28.61,0,0,1,399.14,262.93Z" style="fill: rgb(255, 255, 255); transform-origin: 403.965px 263.04px;" id="elz0i0ybbyhee" class="animable"></path><path d="M399.14,262.93a14.44,14.44,0,0,0-3.17,2.32c-1.21-1.29.62-5.95,1.27-6.37a3.38,3.38,0,0,1,2.06-.23S397,261.89,399.14,262.93Z" style="fill: rgb(255, 255, 255); transform-origin: 397.433px 261.916px;" id="elstph6xbmbj" class="animable"></path><g id="el7ttm5fqvjxw"><path d="M406.34,250.64l-4.59,2.57a11,11,0,0,1,0,2c1.53.09,3.89-1.13,4.35-2.66A5.19,5.19,0,0,0,406.34,250.64Z" style="opacity: 0.2; transform-origin: 404.05px 252.927px;" class="animable" id="elwq9pe8qwffo"></path></g><path d="M400.65,236.71c-1.33,1.45-2.67,5.07.24,5S402.93,234.22,400.65,236.71Z" style="fill: rgb(38, 50, 56); transform-origin: 400.946px 238.955px;" id="elojygklubl9c" class="animable"></path><path d="M411.82,244.71c-1.78,4.49-2.59,7.21-5.67,8.78-4.63,2.37-9.59-1.63-9.19-6.57.36-4.45,3.2-11,8.28-11.36A6.66,6.66,0,0,1,411.82,244.71Z" style="fill: rgb(127, 62, 59); transform-origin: 404.623px 244.869px;" id="el2jjp4j1blfc" class="animable"></path><path d="M401.87,238.48c-3-1.51-4-5.71,1-6.79l.34-.07a2,2,0,0,1,2.23,1.78,1.57,1.57,0,0,0,.08.29,5.1,5.1,0,0,1,3.11-1.37,1.9,1.9,0,0,1,1.94,2.13,1.32,1.32,0,0,0,1.3,1.57c2.61.07,5.66,2,4.14,4.6,2.21,2.77-1.24,6.61-6.12,7-1.33-2.68.82-6.65.82-6.65A24,24,0,0,1,401.87,238.48Z" style="fill: rgb(38, 50, 56); transform-origin: 408.031px 239.613px;" id="eloh1lv1qh2ue" class="animable"></path><path d="M415.31,240.72a1.73,1.73,0,0,0,1.47-2.41C418.45,239.7,417.23,241,415.31,240.72Z" style="fill: rgb(38, 50, 56); transform-origin: 416.439px 239.534px;" id="elv7pe88angim" class="animable"></path><path d="M414.85,241.06a1.73,1.73,0,0,1,2.33,1.6C418.13,240.7,416.49,240,414.85,241.06Z" style="fill: rgb(38, 50, 56); transform-origin: 416.155px 241.613px;" id="elwhu8aydxnd" class="animable"></path><path d="M412.34,249.11a4.5,4.5,0,0,1-3,1.82c-1.59.23-2.19-1.25-1.59-2.65s2-2.9,3.53-2.49A2.09,2.09,0,0,1,412.34,249.11Z" style="fill: rgb(127, 62, 59); transform-origin: 410.161px 248.338px;" id="elqa4rhl2m99p" class="animable"></path><path d="M361.45,396.45l7.77,2.82s6.07-26.72,9.29-41.53a159.36,159.36,0,0,1,5.3-17.3c2.94-8.32,6.46-17.27,9.3-24.27,3-7.37,5.23-12.57,5.23-12.57l-16.8-3.4s-12.81,36.88-15.69,51.45C362.86,366.81,361.45,396.45,361.45,396.45Z" style="fill: rgb(38, 50, 56); transform-origin: 379.895px 349.735px;" id="elpk4uyvo9ij" class="animable"></path><g id="elsiuoxmr64ek"><path d="M383.81,340.44c2.94-8.32,6.46-17.27,9.3-24.27l-1.3-4C387,316.6,384,331.92,383.81,340.44Z" style="opacity: 0.6; transform-origin: 388.46px 326.305px;" class="animable" id="ell7mhk7zq6ce"></path></g><path d="M390.61,302s-3,42-3.18,56.33c-.2,15.65,7.11,46.29,7.11,46.29h8.92s-3.56-27.65-2.37-43.15c1.32-17.33,6-56.13,6-56.13Z" style="fill: rgb(38, 50, 56); transform-origin: 397.258px 353.31px;" id="elhrkr3646moq" class="animable"></path><polygon points="393.48 404.86 403.98 404.86 403.95 401.72 392.99 401.08 393.48 404.86" style="fill: rgb(38, 50, 56); transform-origin: 398.485px 402.97px;" id="ellr3lwz1ur3n" class="animable"></polygon><polygon points="360.41 396.36 369.72 399.58 370.73 396.58 360.56 392.88 360.41 396.36" style="fill: rgb(38, 50, 56); transform-origin: 365.57px 396.23px;" id="elinnw9jt89ns" class="animable"></polygon><path d="M404.46,243.65c-.12.38-.42.61-.66.53s-.34-.45-.22-.82.41-.61.66-.53S404.58,243.28,404.46,243.65Z" style="fill: rgb(38, 50, 56); transform-origin: 404.021px 243.505px;" id="elvpp820g7oo" class="animable"></path><path d="M400.25,242.24c-.12.37-.42.6-.66.52s-.34-.45-.22-.82.41-.61.66-.53S400.37,241.86,400.25,242.24Z" style="fill: rgb(38, 50, 56); transform-origin: 399.811px 242.085px;" id="elyrpsl0s1se" class="animable"></path><path d="M401.53,242.87a13.64,13.64,0,0,1-2.82,2.47,2.36,2.36,0,0,0,1.68.9Z" style="fill: rgb(99, 15, 15); transform-origin: 400.12px 244.555px;" id="elvpa8fvrll2r" class="animable"></path><path d="M406.2,242.73a.2.2,0,0,1-.17-.15,1.87,1.87,0,0,0-1.17-1.21.22.22,0,0,1-.16-.28.23.23,0,0,1,.27-.17,2.34,2.34,0,0,1,1.49,1.51.23.23,0,0,1-.14.29A.17.17,0,0,1,406.2,242.73Z" style="fill: rgb(38, 50, 56); transform-origin: 405.581px 241.826px;" id="eldk9dlh7oh1l" class="animable"></path><path d="M398.91,240.17a.23.23,0,0,1-.12-.06.25.25,0,0,1,0-.33,2.3,2.3,0,0,1,2-.7.24.24,0,0,1,.18.27.22.22,0,0,1-.27.18,1.78,1.78,0,0,0-1.56.58A.19.19,0,0,1,398.91,240.17Z" style="fill: rgb(38, 50, 56); transform-origin: 399.85px 239.622px;" id="elb7xs7jxn65e" class="animable"></path><path d="M395.23,411.54a1.53,1.53,0,0,1-.94-.25.7.7,0,0,1-.24-.61.39.39,0,0,1,.19-.33c.54-.27,2.12.69,2.3.8a.11.11,0,0,1,0,.12.12.12,0,0,1-.08.09A5.89,5.89,0,0,1,395.23,411.54Zm-.73-1a.33.33,0,0,0-.15,0s-.07,0-.07.13a.47.47,0,0,0,.16.42,2.3,2.3,0,0,0,1.73.09A4.67,4.67,0,0,0,394.5,410.53Z" style="fill: #FF2727; transform-origin: 395.302px 410.923px;" id="el7hvqpqfwq63" class="animable"></path><path d="M396.48,411.37l-.06,0c-.5-.27-1.49-1.34-1.39-1.88a.37.37,0,0,1,.36-.3.62.62,0,0,1,.5.14,3.47,3.47,0,0,1,.7,1.93.11.11,0,0,1,0,.11Zm-1-2h-.06c-.15,0-.16.09-.16.12-.06.32.57,1.13,1.07,1.51a2.79,2.79,0,0,0-.59-1.53A.39.39,0,0,0,395.48,409.39Z" style="fill: #FF2727; transform-origin: 395.814px 410.276px;" id="el3s4f1shppbx" class="animable"></path><path d="M360.8,403.11h0c-.8,0-2.21-.12-2.64-.7a.65.65,0,0,1-.1-.59.38.38,0,0,1,.25-.26c.65-.2,2.36,1.18,2.56,1.34a.11.11,0,0,1,0,.13A.1.1,0,0,1,360.8,403.11Zm-2.39-1.33h0a.16.16,0,0,0-.1.11.42.42,0,0,0,.07.39,3.14,3.14,0,0,0,2.1.58A4.78,4.78,0,0,0,358.41,401.78Z" style="fill: #FF2727; transform-origin: 359.46px 402.325px;" id="elccnyoa6ewue" class="animable"></path><path d="M360.8,403.11a.08.08,0,0,1-.08,0c-.52-.38-1.45-1.65-1.26-2.17.05-.12.17-.26.49-.23a.91.91,0,0,1,.59.33,3.3,3.3,0,0,1,.36,2,.12.12,0,0,1-.07.1Zm-1-2.19c-.1,0-.12.06-.13.08-.12.31.49,1.29,1,1.77a2.81,2.81,0,0,0-.33-1.61.65.65,0,0,0-.43-.24Z" style="fill: #FF2727; transform-origin: 360.182px 401.923px;" id="eltwtucnfrvd" class="animable"></path><g id="ely6qswh4ccqm"><path d="M413.6,265.92l-3.44,1.45v2.17s.6,4.38,2.47,6c.76-2.91,1.63-6,2.64-8.9A12.69,12.69,0,0,0,413.6,265.92Z" style="opacity: 0.2; transform-origin: 412.715px 270.73px;" class="animable" id="elvx89l1kk4n"></path></g><path d="M414.32,264.44c1.4-.22,2.91-.42,4.35-.68s2.9-.49,4.31-.79a39.22,39.22,0,0,0,4-1,13.83,13.83,0,0,0,1.48-.6.71.71,0,0,1,.15-.09s.06,0,0,0a2.06,2.06,0,0,0-.19.25c-.14.28-.06.24,0,.11a6.27,6.27,0,0,0,.11-1.53,18.08,18.08,0,0,0-.16-2c-.15-1.41-.42-2.85-.69-4.31s-.59-2.92-.94-4.39-.68-3-1-4.4l3.25-1.23c.73,1.41,1.35,2.83,2,4.27s1.16,2.91,1.69,4.4a44.63,44.63,0,0,1,1.38,4.64,23.45,23.45,0,0,1,.46,2.54,11.61,11.61,0,0,1,.05,3,5.91,5.91,0,0,1-.79,2.27,4.45,4.45,0,0,1-.53.7c-.19.21-.28.27-.42.41a7.7,7.7,0,0,1-.76.62,14.8,14.8,0,0,1-2.63,1.43,34,34,0,0,1-4.8,1.58,64.82,64.82,0,0,1-9.43,1.72Z" style="fill: rgb(128, 62, 60); transform-origin: 424.482px 257.57px;" id="elezdf9yx10d4" class="animable"></path><path d="M411.46,270.83c2.84,2.17,13.21-.07,13.21-.07L423,261.81a51.68,51.68,0,0,0-9.23,1.63C408.91,264.83,408,268.21,411.46,270.83Z" style="fill: #FF2727; transform-origin: 417.024px 266.793px;" id="elxbqfz77tdzm" class="animable"></path><g id="elqtdq63tz40q"><path d="M411.46,270.83c2.84,2.17,13.21-.07,13.21-.07L423,261.81a51.68,51.68,0,0,0-9.23,1.63C408.91,264.83,408,268.21,411.46,270.83Z" style="fill: rgb(255, 255, 255); opacity: 0.7; transform-origin: 417.024px 266.793px;" class="animable" id="el9xprq1t3beh"></path></g><path d="M429.47,244.89l.35-4.71-5.59,2.12s.6,4.07,2.8,4Z" style="fill: rgb(127, 62, 59); transform-origin: 427.025px 243.24px;" id="elkul3i9xeha" class="animable"></path><polygon points="427.67 236.95 423.13 238.93 424.23 242.3 429.82 240.18 427.67 236.95" style="fill: rgb(127, 62, 59); transform-origin: 426.475px 239.625px;" id="el6schl884sr4" class="animable"></polygon><path d="M399.4,247.86a21.64,21.64,0,0,1,4.3.11,2.6,2.6,0,0,1-2.88,1.53A1.45,1.45,0,0,1,399.4,247.86Z" style="fill: rgb(255, 255, 255); transform-origin: 401.544px 248.674px;" id="el5t2ppzi3s2" class="animable"></path></g><g id="freepik--Clipboard--inject-43" class="animable animator-hidden" style="transform-origin: 293.182px 215.045px;"><path d="M218.6,114.22h11.57l18.34,206.49H236.94a10.78,10.78,0,0,1-10.52-9.66L209.79,123.89A8.71,8.71,0,0,1,218.6,114.22Z" style="fill: #FF2727; transform-origin: 229.123px 217.464px;" id="elyvlapjs5jsj" class="animable"></path><path d="M366.69,320.71H240.37a12,12,0,0,1-11.77-10.82L212.43,125.05a9.76,9.76,0,0,1,9.88-10.83H348.62a12.07,12.07,0,0,1,11.78,10.83l16.17,184.84A9.76,9.76,0,0,1,366.69,320.71Z" style="fill: #FF2727; transform-origin: 294.499px 217.465px;" id="elvbhrp9ny8r" class="animable"></path><g id="elsqcgx0f0x8b"><path d="M366.69,320.71H240.37a12,12,0,0,1-11.77-10.82L212.43,125.05a9.76,9.76,0,0,1,9.88-10.83H348.62a12.07,12.07,0,0,1,11.78,10.83l16.17,184.84A9.76,9.76,0,0,1,366.69,320.71Z" style="fill: rgb(255, 255, 255); opacity: 0.5; transform-origin: 294.499px 217.465px;" class="animable" id="els8wzc9lj8qn"></path></g><g id="el33xy8fm7sbi"><polygon points="241.63 297.12 365.36 297.12 349.71 121.03 225.98 121.03 241.63 297.12" style="opacity: 0.2; transform-origin: 295.67px 209.075px;" class="animable" id="el87677ac8tkm"></polygon></g><polygon points="247.04 294.71 370.77 294.71 349.71 121.03 225.98 121.03 247.04 294.71" style="fill: #FF2727; transform-origin: 298.375px 207.87px;" id="el12zqkizmv5pa" class="animable"></polygon><g id="elosx9jeayvx"><polygon points="247.04 294.71 370.77 294.71 349.71 121.03 225.98 121.03 247.04 294.71" style="fill: rgb(255, 255, 255); opacity: 0.8; transform-origin: 298.375px 207.87px;" class="animable" id="el08ietxkg517m"></polygon></g><path d="M342.12,169.1h-77.4a1.79,1.79,0,0,1-1.74-1.6h0a1.45,1.45,0,0,1,1.46-1.61h77.4a1.79,1.79,0,0,1,1.75,1.61h0A1.45,1.45,0,0,1,342.12,169.1Z" style="fill: rgb(38, 50, 56); transform-origin: 303.284px 167.495px;" id="elk221p1vy8ni" class="animable"></path><path d="M339.71,178.21H251.86a1.78,1.78,0,0,1-1.74-1.61h0a1.43,1.43,0,0,1,1.46-1.6h87.85a1.77,1.77,0,0,1,1.74,1.6h0A1.44,1.44,0,0,1,339.71,178.21Z" style="fill: rgb(38, 50, 56); transform-origin: 295.645px 176.605px;" id="ell2ha0wuf3po" class="animable"></path><path d="M343.72,187.31H252.66a1.78,1.78,0,0,1-1.75-1.6h0a1.45,1.45,0,0,1,1.47-1.61h91.06a1.78,1.78,0,0,1,1.74,1.61h0A1.43,1.43,0,0,1,343.72,187.31Z" style="fill: rgb(38, 50, 56); transform-origin: 298.046px 185.705px;" id="elpbb07v72kbd" class="animable"></path><path d="M333.27,196.42H253.46a1.79,1.79,0,0,1-1.75-1.61h0a1.45,1.45,0,0,1,1.46-1.6H333a1.78,1.78,0,0,1,1.74,1.6h0A1.45,1.45,0,0,1,333.27,196.42Z" style="fill: rgb(38, 50, 56); transform-origin: 293.226px 194.815px;" id="eljsxamygidzs" class="animable"></path><path d="M345.31,205.53h-77.4a1.79,1.79,0,0,1-1.75-1.61h0a1.46,1.46,0,0,1,1.47-1.61H345a1.79,1.79,0,0,1,1.75,1.61h0A1.45,1.45,0,0,1,345.31,205.53Z" style="fill: rgb(38, 50, 56); transform-origin: 306.456px 203.92px;" id="el2zqpboyrl4f" class="animable"></path><path d="M342.09,214.63h-87a1.79,1.79,0,0,1-1.75-1.6h0a1.45,1.45,0,0,1,1.47-1.61h87a1.79,1.79,0,0,1,1.75,1.61h0A1.45,1.45,0,0,1,342.09,214.63Z" style="fill: rgb(38, 50, 56); transform-origin: 298.449px 213.025px;" id="elw5jsbk0yp6c" class="animable"></path><path d="M346.9,223.74h-91a1.79,1.79,0,0,1-1.75-1.61h0a1.45,1.45,0,0,1,1.46-1.61h91.06a1.79,1.79,0,0,1,1.75,1.61h0A1.45,1.45,0,0,1,346.9,223.74Z" style="fill: rgb(38, 50, 56); transform-origin: 301.285px 222.131px;" id="el3flgn9ugn06" class="animable"></path><path d="M341.27,232.84H256.64a1.77,1.77,0,0,1-1.74-1.6h0a1.44,1.44,0,0,1,1.46-1.61H341a1.79,1.79,0,0,1,1.75,1.61h0A1.44,1.44,0,0,1,341.27,232.84Z" style="fill: rgb(38, 50, 56); transform-origin: 298.824px 231.235px;" id="elz61jez54d8h" class="animable"></path><g id="el8gwq9ncz6hb"><g style="opacity: 0.3; transform-origin: 299.269px 199.365px;" class="animable" id="elu1lllaoj51f"><path d="M342.12,169.1h-77.4a1.79,1.79,0,0,1-1.74-1.6h0a1.45,1.45,0,0,1,1.46-1.61h77.4a1.79,1.79,0,0,1,1.75,1.61h0A1.45,1.45,0,0,1,342.12,169.1Z" style="fill: rgb(255, 255, 255); transform-origin: 303.284px 167.495px;" id="eldrscmyjont4" class="animable"></path><path d="M339.71,178.21H251.86a1.78,1.78,0,0,1-1.74-1.61h0a1.43,1.43,0,0,1,1.46-1.6h87.85a1.77,1.77,0,0,1,1.74,1.6h0A1.44,1.44,0,0,1,339.71,178.21Z" style="fill: rgb(255, 255, 255); transform-origin: 295.645px 176.605px;" id="elr3cof885y8b" class="animable"></path><path d="M343.72,187.31H252.66a1.78,1.78,0,0,1-1.75-1.6h0a1.45,1.45,0,0,1,1.47-1.61h91.06a1.78,1.78,0,0,1,1.74,1.61h0A1.43,1.43,0,0,1,343.72,187.31Z" style="fill: rgb(255, 255, 255); transform-origin: 298.046px 185.705px;" id="elc7ddu2yib3" class="animable"></path><path d="M333.27,196.42H253.46a1.79,1.79,0,0,1-1.75-1.61h0a1.45,1.45,0,0,1,1.46-1.6H333a1.78,1.78,0,0,1,1.74,1.6h0A1.45,1.45,0,0,1,333.27,196.42Z" style="fill: rgb(255, 255, 255); transform-origin: 293.226px 194.815px;" id="elzqlwcpxs68" class="animable"></path><path d="M345.31,205.53h-77.4a1.79,1.79,0,0,1-1.75-1.61h0a1.46,1.46,0,0,1,1.47-1.61H345a1.79,1.79,0,0,1,1.75,1.61h0A1.45,1.45,0,0,1,345.31,205.53Z" style="fill: rgb(255, 255, 255); transform-origin: 306.456px 203.92px;" id="elqgkk0l50od" class="animable"></path><path d="M342.09,214.63h-87a1.79,1.79,0,0,1-1.75-1.6h0a1.45,1.45,0,0,1,1.47-1.61h87a1.79,1.79,0,0,1,1.75,1.61h0A1.45,1.45,0,0,1,342.09,214.63Z" style="fill: rgb(255, 255, 255); transform-origin: 298.449px 213.025px;" id="elv507xiki2ag" class="animable"></path><path d="M346.9,223.74h-91a1.79,1.79,0,0,1-1.75-1.61h0a1.45,1.45,0,0,1,1.46-1.61h91.06a1.79,1.79,0,0,1,1.75,1.61h0A1.45,1.45,0,0,1,346.9,223.74Z" style="fill: rgb(255, 255, 255); transform-origin: 301.285px 222.131px;" id="el3u7ko1xwh8w" class="animable"></path><path d="M341.27,232.84H256.64a1.77,1.77,0,0,1-1.74-1.6h0a1.44,1.44,0,0,1,1.46-1.61H341a1.79,1.79,0,0,1,1.75,1.61h0A1.44,1.44,0,0,1,341.27,232.84Z" style="fill: rgb(255, 255, 255); transform-origin: 298.824px 231.235px;" id="elr7pmfipujh" class="animable"></path></g></g><path d="M270.34,141.48h2.37l.72,8.31h5.14l.17,1.93h-7.51Z" style="fill: rgb(38, 50, 56); transform-origin: 274.54px 146.6px;" id="el9lavnua5o8i" class="animable"></path><path d="M281.93,151.2a5.76,5.76,0,0,1-2.17-1.89,5.6,5.6,0,0,1-1-2.71,4.84,4.84,0,0,1,.49-2.72,4.5,4.5,0,0,1,1.83-1.89,5.66,5.66,0,0,1,2.82-.69,6.3,6.3,0,0,1,2.93.69,6,6,0,0,1,2.17,1.89,5.54,5.54,0,0,1,1,2.72,4.8,4.8,0,0,1-.49,2.71,4.53,4.53,0,0,1-1.84,1.89,5.57,5.57,0,0,1-2.81.69A6.3,6.3,0,0,1,281.93,151.2Zm4.36-1.74a2.71,2.71,0,0,0,1-1.17,3.22,3.22,0,0,0,.26-1.69,3.61,3.61,0,0,0-.56-1.7,3.45,3.45,0,0,0-2.92-1.58,3.07,3.07,0,0,0-1.61.42,2.6,2.6,0,0,0-1,1.16,3.16,3.16,0,0,0-.27,1.7,3.57,3.57,0,0,0,.56,1.69,3.5,3.5,0,0,0,1.25,1.17,3.57,3.57,0,0,0,1.68.41A3.12,3.12,0,0,0,286.29,149.46Z" style="fill: rgb(38, 50, 56); transform-origin: 284.38px 146.595px;" id="elofp13uxp7fb" class="animable"></path><path d="M298.64,149.52h-4.75l-.72,2.2h-2.43l3.67-10.24h2.34l5.48,10.24h-2.49Zm-.9-1.8-2-3.92-1.28,3.92Z" style="fill: rgb(38, 50, 56); transform-origin: 296.485px 146.6px;" id="elqmcsx6qxrh" class="animable"></path><path d="M311.79,141.48l.89,10.24h-1.94l-5.65-6.22.54,6.22h-2.34l-.89-10.24h2l5.63,6.21-.54-6.21Z" style="fill: rgb(38, 50, 56); transform-origin: 307.54px 146.6px;" id="el8g01lo842mt" class="animable"></path><g id="elrnqaqpwixxk"><g style="opacity: 0.3; transform-origin: 291.51px 146.595px;" class="animable" id="eln4c3jc0s4vb"><path d="M270.34,141.48h2.37l.72,8.31h5.14l.17,1.93h-7.51Z" style="fill: rgb(255, 255, 255); transform-origin: 274.54px 146.6px;" id="el303h6z2pnae" class="animable"></path><path d="M281.93,151.2a5.76,5.76,0,0,1-2.17-1.89,5.6,5.6,0,0,1-1-2.71,4.84,4.84,0,0,1,.49-2.72,4.5,4.5,0,0,1,1.83-1.89,5.66,5.66,0,0,1,2.82-.69,6.3,6.3,0,0,1,2.93.69,6,6,0,0,1,2.17,1.89,5.54,5.54,0,0,1,1,2.72,4.8,4.8,0,0,1-.49,2.71,4.53,4.53,0,0,1-1.84,1.89,5.57,5.57,0,0,1-2.81.69A6.3,6.3,0,0,1,281.93,151.2Zm4.36-1.74a2.71,2.71,0,0,0,1-1.17,3.22,3.22,0,0,0,.26-1.69,3.61,3.61,0,0,0-.56-1.7,3.45,3.45,0,0,0-2.92-1.58,3.07,3.07,0,0,0-1.61.42,2.6,2.6,0,0,0-1,1.16,3.16,3.16,0,0,0-.27,1.7,3.57,3.57,0,0,0,.56,1.69,3.5,3.5,0,0,0,1.25,1.17,3.57,3.57,0,0,0,1.68.41A3.12,3.12,0,0,0,286.29,149.46Z" style="fill: rgb(255, 255, 255); transform-origin: 284.38px 146.595px;" id="eloowofuwj3bn" class="animable"></path><path d="M298.64,149.52h-4.75l-.72,2.2h-2.43l3.67-10.24h2.34l5.48,10.24h-2.49Zm-.9-1.8-2-3.92-1.28,3.92Z" style="fill: rgb(255, 255, 255); transform-origin: 296.485px 146.6px;" id="elvuw8bgmhko" class="animable"></path><path d="M311.79,141.48l.89,10.24h-1.94l-5.65-6.22.54,6.22h-2.34l-.89-10.24h2l5.63,6.21-.54-6.21Z" style="fill: rgb(255, 255, 255); transform-origin: 307.54px 146.6px;" id="elmwa3272pysl" class="animable"></path></g></g><path d="M345.71,282.12H318.55a1.79,1.79,0,0,1-1.75-1.6h0a1.46,1.46,0,0,1,1.47-1.61h27.16a1.79,1.79,0,0,1,1.75,1.61h0A1.45,1.45,0,0,1,345.71,282.12Z" style="fill: rgb(38, 50, 56); transform-origin: 331.99px 280.515px;" id="elr9b8b9ck88n" class="animable"></path><path d="M316.57,276.57h0a.63.63,0,0,1,.09-.9c1.92-1.41,4-3.07,6-4.73a16.73,16.73,0,0,1,4.6-8.77c1.56-1.35,2.72-1.19,3.42-.81a1.58,1.58,0,0,1,.86,1.21c.25,2-3.73,5.84-7.65,9.14a3.51,3.51,0,0,0,.14,1.61,1,1,0,0,0,1,.65c2.2.14,3.4-1,4.55-2.14,1.31-1.27,2.65-2.57,5.11-1.37,2.16,1.07,2.21,2.14,2.09,3.06a.92.92,0,0,0,0,.32h0a4.62,4.62,0,0,0,1.95.46,6.48,6.48,0,0,0,6.45-3.4.61.61,0,0,1,.82-.2h0a.68.68,0,0,1,.32.93,7.64,7.64,0,0,1-7.64,4c-1.68-.21-2.49-.5-2.92-1a1.6,1.6,0,0,1-.26-1.32c.07-.52.12-.92-1.29-1.62s-2.32-.12-3.65,1.18-2.73,2.65-5.48,2.47a2.41,2.41,0,0,1-2.19-1.56,3.32,3.32,0,0,1-.23-.94c-2.1,1.71-4,3.17-5.14,4A.69.69,0,0,1,316.57,276.57Zm13.2-14.18a2.78,2.78,0,0,0-1.57.79,15.29,15.29,0,0,0-3.78,6.27c3.38-3,6-5.71,5.85-6.84,0-.05,0-.08-.1-.13A.81.81,0,0,0,329.77,262.39Z" style="fill: rgb(38, 50, 56); transform-origin: 331.409px 269.012px;" id="elke07b2i97cb" class="animable"></path><g id="elbkhlsobd1y"><g style="opacity: 0.3; transform-origin: 331.805px 271.606px;" class="animable" id="el8x1aj18p0rk"><path d="M345.71,282.12H318.55a1.79,1.79,0,0,1-1.75-1.6h0a1.46,1.46,0,0,1,1.47-1.61h27.16a1.79,1.79,0,0,1,1.75,1.61h0A1.45,1.45,0,0,1,345.71,282.12Z" style="fill: rgb(255, 255, 255); transform-origin: 331.99px 280.515px;" id="elgg9c2bs5we" class="animable"></path><path d="M316.57,276.57h0a.63.63,0,0,1,.09-.9c1.92-1.41,4-3.07,6-4.73a16.73,16.73,0,0,1,4.6-8.77c1.56-1.35,2.72-1.19,3.42-.81a1.58,1.58,0,0,1,.86,1.21c.25,2-3.73,5.84-7.65,9.14a3.51,3.51,0,0,0,.14,1.61,1,1,0,0,0,1,.65c2.2.14,3.4-1,4.55-2.14,1.31-1.27,2.65-2.57,5.11-1.37,2.16,1.07,2.21,2.14,2.09,3.06a.92.92,0,0,0,0,.32h0a4.62,4.62,0,0,0,1.95.46,6.48,6.48,0,0,0,6.45-3.4.61.61,0,0,1,.82-.2h0a.68.68,0,0,1,.32.93,7.64,7.64,0,0,1-7.64,4c-1.68-.21-2.49-.5-2.92-1a1.6,1.6,0,0,1-.26-1.32c.07-.52.12-.92-1.29-1.62s-2.32-.12-3.65,1.18-2.73,2.65-5.48,2.47a2.41,2.41,0,0,1-2.19-1.56,3.32,3.32,0,0,1-.23-.94c-2.1,1.71-4,3.17-5.14,4A.69.69,0,0,1,316.57,276.57Zm13.2-14.18a2.78,2.78,0,0,0-1.57.79,15.29,15.29,0,0,0-3.78,6.27c3.38-3,6-5.71,5.85-6.84,0-.05,0-.08-.1-.13A.81.81,0,0,0,329.77,262.39Z" style="fill: rgb(255, 255, 255); transform-origin: 331.409px 269.012px;" id="elh4q0r7hv6wh" class="animable"></path></g></g><path d="M263.88,109.38h9.69l1.57,17.68h-9.69a6.59,6.59,0,0,1-6.44-5.92l-.52-5.84A5.33,5.33,0,0,1,263.88,109.38Z" style="fill: rgb(38, 50, 56); transform-origin: 266.799px 118.22px;" id="elge790bz164s" class="animable"></path><path d="M307,127.06H267.85a7.38,7.38,0,0,1-7.21-6.63l-.39-4.42a6,6,0,0,1,6.05-6.63h39.16a7.38,7.38,0,0,1,7.21,6.63l.39,4.42A6,6,0,0,1,307,127.06Z" style="fill: rgb(38, 50, 56); transform-origin: 286.655px 118.22px;" id="eldjzrzzlwzvp" class="animable"></path><g id="elwdy8oyu9vi"><path d="M307,127.06H267.85a7.38,7.38,0,0,1-7.21-6.63l-.39-4.42a6,6,0,0,1,6.05-6.63h39.16a7.38,7.38,0,0,1,7.21,6.63l.39,4.42A6,6,0,0,1,307,127.06Z" style="fill: rgb(255, 255, 255); opacity: 0.5; transform-origin: 286.655px 118.22px;" class="animable" id="el2hw63wj8uga"></path></g><path d="M306.7,120.09a1.56,1.56,0,0,1-1.58,1.74,1.94,1.94,0,0,1-1.9-1.74,1.57,1.57,0,0,1,1.59-1.74A1.93,1.93,0,0,1,306.7,120.09Z" style="fill: rgb(38, 50, 56); transform-origin: 304.961px 120.09px;" id="el2u6i2oe7idx" class="animable"></path><path d="M270.41,120.09a1.56,1.56,0,0,1-1.58,1.74,1.94,1.94,0,0,1-1.9-1.74,1.57,1.57,0,0,1,1.59-1.74A1.93,1.93,0,0,1,270.41,120.09Z" style="fill: rgb(38, 50, 56); transform-origin: 268.671px 120.09px;" id="el7d3u2gxolp" class="animable"></path></g><g id="freepik--Stamp--inject-43" class="animable animator-hidden" style="transform-origin: 330.401px 257.84px;"><path d="M314.42,266.94a7.46,7.46,0,0,1-7.16-6l-.24-1.29a6,6,0,0,1,5.29-7.33l33.41-3.55a7.11,7.11,0,0,1,5,1.45,7.39,7.39,0,0,1,2.83,4.49l.25,1.29a6.27,6.27,0,0,1-1,4.9,6,6,0,0,1-4.28,2.43l-33.4,3.55C314.89,266.93,314.65,266.94,314.42,266.94Zm32.11-17a5.63,5.63,0,0,0-.58,0l-33.41,3.55a4.9,4.9,0,0,0-3.51,2,5.12,5.12,0,0,0-.83,4l.24,1.28a6.12,6.12,0,0,0,6.45,4.88l33.4-3.55a4.86,4.86,0,0,0,3.51-2,5.14,5.14,0,0,0,.84-4l-.24-1.28a6.11,6.11,0,0,0-2.33-3.69A5.91,5.91,0,0,0,346.53,250Z" style="fill: #FF2727; transform-origin: 330.401px 257.84px;" id="elbkux0uidwj" class="animable"></path><path d="M314.46,260.78l-2.54.27-.29,1.26-.71.07,1.24-5.05.68-.07,3.1,4.59-.72.08Zm-.34-.53L312.63,258l-.58,2.47Z" style="fill: #FF2727; transform-origin: 313.43px 259.82px;" id="elnlulsush3pt" class="animable"></path><path d="M319.13,257.05a1.7,1.7,0,0,1,.77,1.18,1.44,1.44,0,0,1-.3,1.29,2.06,2.06,0,0,1-1.37.6l-1.18.12.28,1.46-.68.08-.93-4.83,1.86-.19A2.34,2.34,0,0,1,319.13,257.05Zm-.1,2.09a1,1,0,0,0,.19-.84,1.12,1.12,0,0,0-.5-.77,1.61,1.61,0,0,0-1-.17l-1.16.12.41,2.16,1.16-.12A1.46,1.46,0,0,0,319,259.14Z" style="fill: #FF2727; transform-origin: 317.832px 259.255px;" id="elikp6quus0t" class="animable"></path><path d="M324,256.53a1.72,1.72,0,0,1,.77,1.18,1.44,1.44,0,0,1-.3,1.29,2,2,0,0,1-1.37.6l-1.18.13.28,1.46-.68.07-.93-4.82,1.86-.2A2.34,2.34,0,0,1,324,256.53Zm-.1,2.09a1,1,0,0,0,.19-.84,1.1,1.1,0,0,0-.5-.76,1.61,1.61,0,0,0-1-.18l-1.16.12.41,2.17L323,259A1.44,1.44,0,0,0,323.89,258.62Z" style="fill: #FF2727; transform-origin: 322.702px 258.735px;" id="eld05yfhxqof6" class="animable"></path><path d="M329.56,260.41,328.25,259l-.3.05-1.18.13.28,1.46-.68.08-.93-4.83,1.86-.2a2.4,2.4,0,0,1,1.55.3,1.7,1.7,0,0,1,.77,1.17,1.58,1.58,0,0,1-.09,1,1.39,1.39,0,0,1-.67.66l1.45,1.5Zm-.81-2.3a1,1,0,0,0,.19-.84,1.12,1.12,0,0,0-.5-.77,1.61,1.61,0,0,0-1-.17l-1.16.12.41,2.17,1.17-.12A1.44,1.44,0,0,0,328.75,258.11Z" style="fill: #FF2727; transform-origin: 327.875px 258.193px;" id="elpsar09hl0ro" class="animable"></path><path d="M332.13,259.86a2.64,2.64,0,0,1-1.08-.79,2.7,2.7,0,0,1-.57-1.22,2.36,2.36,0,0,1,.09-1.3,2,2,0,0,1,.74-1,2.51,2.51,0,0,1,1.24-.46,2.74,2.74,0,0,1,2.44,1,2.68,2.68,0,0,1,.57,1.23,2.36,2.36,0,0,1-.09,1.3,2,2,0,0,1-.74,1,2.46,2.46,0,0,1-1.23.45A2.65,2.65,0,0,1,332.13,259.86Zm2.15-.77a1.49,1.49,0,0,0,.53-.73,1.79,1.79,0,0,0,.06-1,2,2,0,0,0-.42-.92,2.08,2.08,0,0,0-.79-.59,1.85,1.85,0,0,0-1-.14,1.73,1.73,0,0,0-.91.34,1.58,1.58,0,0,0-.54.73,1.79,1.79,0,0,0-.06,1,2.15,2.15,0,0,0,.42.92,2.11,2.11,0,0,0,.8.59,2,2,0,0,0,1,.14A1.79,1.79,0,0,0,334.28,259.09Z" style="fill: #FF2727; transform-origin: 333.02px 257.58px;" id="elf41eqk3asnr" class="animable"></path><path d="M340.14,254.36,339,259.41l-.68.07-3-4.6.74-.08,2.48,3.78,1-4.15Z" style="fill: #FF2727; transform-origin: 337.73px 256.92px;" id="eloulkcfz8u1" class="animable"></path><path d="M345,258.15l.11.6-3.47.37-.93-4.82,3.38-.36.11.6-2.69.29.29,1.48,2.39-.26.12.59-2.4.25.3,1.56Z" style="fill: #FF2727; transform-origin: 342.91px 256.53px;" id="elglu8m5nxv7" class="animable"></path><path d="M345.32,253.81l2-.21a3.12,3.12,0,0,1,1.41.16,2.54,2.54,0,0,1,1.07.75,2.64,2.64,0,0,1,.57,1.23,2.42,2.42,0,0,1-.08,1.29,2,2,0,0,1-.75,1,2.71,2.71,0,0,1-1.29.44l-2,.22Zm2.79,4a2.08,2.08,0,0,0,1-.34,1.44,1.44,0,0,0,.56-.71,1.84,1.84,0,0,0,.06-1,1.92,1.92,0,0,0-.43-.92,1.84,1.84,0,0,0-.8-.57,2.32,2.32,0,0,0-1.06-.12l-1.29.14.7,3.62Z" style="fill: #FF2727; transform-origin: 347.871px 256.134px;" id="elgcmhck6tfhi" class="animable"></path></g><g id="freepik--Keys--inject-43" class="animable" style="transform-origin: 199.494px 224.173px;"><path d="M216.82,256.61l-.91-1.75a3.16,3.16,0,0,1,.77-3.89l1.63-1.37a3.16,3.16,0,0,0,1.07-1.81l1.38-6.95a3.13,3.13,0,0,0-.3-2.08L219,236a3.16,3.16,0,0,1,.77-3.89l2.74-2.3A3.16,3.16,0,0,0,223.6,228l2.24-11.24L218,215.18l-7.81-1.56L208,224.86a3.19,3.19,0,0,0,.3,2.08l1.65,3.18a3.18,3.18,0,0,1-.77,3.89l-2.41,2a3.17,3.17,0,0,0-1.07,1.8l-1.38,7a3.18,3.18,0,0,0,.29,2.08l1,1.89a3.16,3.16,0,0,1-.77,3.89l-1.51,1.27a3.16,3.16,0,0,0-.77,3.89l.61,1.18a3.16,3.16,0,0,1-.77,3.89h0a3.17,3.17,0,0,0-.78,3.89l1.92,3.69,3.4.67,3.4.68,3.18-2.68a3.17,3.17,0,0,0,.78-3.89h0a3.16,3.16,0,0,1,.77-3.89l1-.85A3.18,3.18,0,0,0,216.82,256.61Z" style="fill: rgb(38, 50, 56); transform-origin: 213.552px 242.725px;" id="elofs1qgyh58" class="animable"></path><g id="elzqm2wrp1gi"><path d="M216.82,256.61l-.91-1.75a3.16,3.16,0,0,1,.77-3.89l1.63-1.37a3.16,3.16,0,0,0,1.07-1.81l1.38-6.95a3.13,3.13,0,0,0-.3-2.08L219,236a3.16,3.16,0,0,1,.77-3.89l2.74-2.3A3.16,3.16,0,0,0,223.6,228l2.24-11.24L218,215.18l-7.81-1.56L208,224.86a3.19,3.19,0,0,0,.3,2.08l1.65,3.18a3.18,3.18,0,0,1-.77,3.89l-2.41,2a3.17,3.17,0,0,0-1.07,1.8l-1.38,7a3.18,3.18,0,0,0,.29,2.08l1,1.89a3.16,3.16,0,0,1-.77,3.89l-1.51,1.27a3.16,3.16,0,0,0-.77,3.89l.61,1.18a3.16,3.16,0,0,1-.77,3.89h0a3.17,3.17,0,0,0-.78,3.89l1.92,3.69,3.4.67,3.4.68,3.18-2.68a3.17,3.17,0,0,0,.78-3.89h0a3.16,3.16,0,0,1,.77-3.89l1-.85A3.18,3.18,0,0,0,216.82,256.61Z" style="fill: rgb(255, 255, 255); opacity: 0.6; transform-origin: 213.552px 242.725px;" class="animable" id="eld3g7x4mk2om"></path></g><g id="el48stm3fz6c2"><path d="M222.53,229.78A3.16,3.16,0,0,0,223.6,228l2.24-11.24-3.91-.77-3.91-.78-7.81-1.56L208.54,222l7.82,1.56-9.47,47.59,3.4.68,3.18-2.68a3.17,3.17,0,0,0,.78-3.89,3.16,3.16,0,0,1,.77-3.89l1-.85a3.18,3.18,0,0,0,.78-3.89l-.91-1.75a3.16,3.16,0,0,1,.77-3.89l1.63-1.37a3.16,3.16,0,0,0,1.07-1.81l1.38-6.95a3.18,3.18,0,0,0-.29-2.08L219,236a3.16,3.16,0,0,1,.77-3.89Z" style="opacity: 0.2; transform-origin: 216.365px 242.74px;" class="animable" id="elw23fctw8hsl"></path></g><path d="M242,201.4c-2.07-2.46-11.22-7-16.13-7.93s-15.09-.33-17.94,1.15c-6.33,3.28-10.27,14.89-4,20.15,2.53,2.12,12.23,4.52,16.6,5.57s14.23,2.14,17.47,1.2C246,219.24,246.56,206.85,242,201.4Zm-10.66,1-14-2.78c-1-.2-1.15-1.46-.16-1.71,3-.75,6.07-1.12,7.9-.76s4.52,1.88,7,3.73C232.92,201.49,232.32,202.6,231.3,202.4Z" style="fill: rgb(38, 50, 56); transform-origin: 222.815px 207.462px;" id="eluqurd6uzs9o" class="animable"></path><g id="elsyv3e2lzvp"><path d="M242,201.4c-2.07-2.46-11.22-7-16.13-7.93s-15.09-.33-17.94,1.15c-6.33,3.28-10.27,14.89-4,20.15,2.53,2.12,12.23,4.52,16.6,5.57s14.23,2.14,17.47,1.2C246,219.24,246.56,206.85,242,201.4Zm-10.66,1-14-2.78c-1-.2-1.15-1.46-.16-1.71,3-.75,6.07-1.12,7.9-.76s4.52,1.88,7,3.73C232.92,201.49,232.32,202.6,231.3,202.4Z" style="opacity: 0.6; transform-origin: 222.815px 207.462px;" class="animable" id="el5hxwuvfvb6p"></path></g><path d="M238.56,200.72c-2.07-2.45-11.22-6.95-16.14-7.92s-15.09-.33-17.94,1.14c-6.33,3.28-10.26,14.89-4,20.15,2.54,2.13,12.24,4.52,16.61,5.57s14.22,2.14,17.47,1.21C242.57,218.56,243.15,206.17,238.56,200.72Zm-10.67,1L214,199c-1-.21-1.15-1.47-.17-1.71,3-.76,6.08-1.13,7.91-.76s4.51,1.87,7,3.72C229.52,200.81,228.92,201.92,227.89,201.72Z" style="fill: rgb(38, 50, 56); transform-origin: 219.38px 206.78px;" id="el9zyo13ymj1s" class="animable"></path><path d="M218.86,201.19a17.14,17.14,0,0,1-32.08-12c3.31-9.76,14.51-15.17,23.29-11.54l1.34.56a1.26,1.26,0,0,1,.68,1.64h0a1.26,1.26,0,0,1-1.64.68l-1.34-.56c-7.38-3.06-16.81,1.47-19.83,9.66a14.63,14.63,0,0,0,27.26,10.61C220,192,213.9,186,207.66,183.43l-1.84-.77a1.26,1.26,0,0,1-.68-1.64h0a1.25,1.25,0,0,1,1.64-.67l1.85.76C218.1,185,222.21,193.1,218.86,201.19Z" style="fill: rgb(38, 50, 56); transform-origin: 202.97px 194.092px;" id="elju2fz9euism" class="animable"></path><g id="el1bfdof1twtp"><g style="opacity: 0.5; transform-origin: 202.97px 194.092px;" class="animable" id="elrf3voryqhr"><path d="M218.86,201.19a17.14,17.14,0,0,1-32.08-12c3.31-9.76,14.51-15.17,23.29-11.54l1.34.56a1.26,1.26,0,0,1,.68,1.64h0a1.26,1.26,0,0,1-1.64.68l-1.34-.56c-7.38-3.06-16.81,1.47-19.83,9.66a14.63,14.63,0,0,0,27.26,10.61C220,192,213.9,186,207.66,183.43l-1.84-.77a1.26,1.26,0,0,1-.68-1.64h0a1.25,1.25,0,0,1,1.64-.67l1.85.76C218.1,185,222.21,193.1,218.86,201.19Z" style="fill: rgb(255, 255, 255); transform-origin: 202.97px 194.092px;" id="elaz85o6uxif" class="animable"></path></g></g><path d="M207,218.58c-.66-5-7.58-14-12.21-15.92s-15.91-.43-19.89,2.62c-8.84,6.78-20.4,30.54-17.05,41.16,1.36,4.3,10.2,9,14.21,11.1s13.83,4.15,17.89,2.2C200,254.9,208.49,229.62,207,218.58ZM198.65,212l-13.13-5.44a1,1,0,0,1,.27-1.95c3.19-.35,6.32-.25,8,.46s4,2.86,6,5.36A1,1,0,0,1,198.65,212Z" style="fill: rgb(38, 50, 56); transform-origin: 182.214px 231.163px;" id="el8r3hvq639o8" class="animable"></path><g id="elb5k00j5g7zl"><path d="M207,218.58c-.66-5-7.58-14-12.21-15.92s-15.91-.43-19.89,2.62c-8.84,6.78-20.4,30.54-17.05,41.16,1.36,4.3,10.2,9,14.21,11.1s13.83,4.15,17.89,2.2C200,254.9,208.49,229.62,207,218.58ZM198.65,212l-13.13-5.44a1,1,0,0,1,.27-1.95c3.19-.35,6.32-.25,8,.46s4,2.86,6,5.36A1,1,0,0,1,198.65,212Z" style="opacity: 0.6; transform-origin: 182.214px 231.163px;" class="animable" id="el8cr6so228ec"></path></g><path d="M203.83,217.25c-.65-5-7.58-14-12.21-15.91s-15.91-.44-19.89,2.61c-8.83,6.78-20.4,30.54-17,41.16,1.36,4.3,10.21,9,14.21,11.11s13.83,4.14,17.89,2.19C196.82,253.57,205.28,228.29,203.83,217.25Zm-8.38-6.58-13.14-5.44a1,1,0,0,1,.27-1.95c3.19-.35,6.32-.25,8,.46s4,2.86,6,5.36A1,1,0,0,1,195.45,210.67Z" style="fill: rgb(38, 50, 56); transform-origin: 179.057px 229.841px;" id="elbrqy8dhvomp" class="animable"></path><path d="M194.66,230.69,168.79,220a63.23,63.23,0,0,0-4.88,9.9l27.26,11.29A62.75,62.75,0,0,0,194.66,230.69Z" style="fill: #FF2727; transform-origin: 179.285px 230.595px;" id="eleriots8ho4n" class="animable"></path><path d="M162.89,232.72c-1.37,4.24-2,8.11-1.21,10.51.09.2,1.23,2.4,10.11,7,3.16,1.64,10,2.56,11.52,1.85,2.23-1.08,4.55-4.22,6.57-8.18Z" style="fill: #FF2727; transform-origin: 175.607px 242.521px;" id="elcv4pna6cjww" class="animable"></path><path d="M195.27,227.68a23.89,23.89,0,0,0,.34-6.72c-.36-2.7-5.35-9.21-7.86-10.25s-10.65,0-12.81,1.68a23.69,23.69,0,0,0-4.47,5Z" style="fill: #FF2727; transform-origin: 183.089px 218.987px;" id="el5fnx83grwle" class="animable"></path><g id="elbvzctqdvend"><rect x="176.16" y="229.8" width="5.76" height="4.2" style="fill: rgb(255, 255, 255); transform-origin: 179.04px 231.9px; transform: rotate(22.5deg);" class="animable" id="el46l6wbs4rt8"></rect></g><path d="M181.41,231.68l-.72-.3.79-1.91a1.33,1.33,0,1,0-2.45-1l-.79,1.91-.72-.3.79-1.91a2.11,2.11,0,1,1,3.89,1.61Z" style="fill: rgb(255, 255, 255); transform-origin: 179.97px 229.205px;" id="elyajyhg6yxg" class="animable"></path><g id="el875dy8z58ht"><rect x="170.84" y="242.63" width="5.76" height="4.2" style="fill: rgb(255, 255, 255); transform-origin: 173.72px 244.73px; transform: rotate(22.5deg);" class="animable" id="elshs2sny9mvr"></rect></g><path d="M172.93,243.2l-.72-.3L173,241a2.11,2.11,0,1,1,3.89,1.61l-.73-.3a1.32,1.32,0,1,0-2.44-1Z" style="fill: rgb(255, 255, 255); transform-origin: 174.66px 241.381px;" id="el32q2tk5uzw7" class="animable"></path><polygon points="190.14 217.95 187.93 217.03 186.08 214.03 183.31 220.72 186.74 219.9 188.95 220.82 190.14 217.95" style="fill: rgb(255, 255, 255); transform-origin: 186.725px 217.425px;" id="elkuzdvo6oo3e" class="animable"></polygon><path d="M180.46,219.43a5,5,0,0,1,2.69-6.51l.4,1a3.94,3.94,0,0,0-2.13,5.15Z" style="fill: rgb(255, 255, 255); transform-origin: 181.818px 216.175px;" id="elxwk2et5a1zj" class="animable"></path><path d="M182.73,218.49a2.53,2.53,0,0,1,1.36-3.3l.4,1a1.51,1.51,0,0,0-.8.81,1.47,1.47,0,0,0,0,1.13Z" style="fill: rgb(255, 255, 255); transform-origin: 183.514px 216.84px;" id="el9a81z3n9yoh" class="animable"></path></g><g id="freepik--Car--inject-43" class="animable" style="transform-origin: 211.341px 348.001px;"><polygon points="82.09 395.48 144.78 397.53 283.45 397.53 343.28 394.49 343.28 381.42 335.61 370.34 314.75 362.97 288.28 370.34 277.78 380.25 159.04 381.42 135.78 364.47 117.6 357.91 90.95 364.8 84.45 376.72 80.61 388.72 82.09 395.48" style="fill: rgb(38, 50, 56); transform-origin: 211.945px 377.72px;" id="el7kr06wyji3g" class="animable"></polygon><g id="elfiem9afhu7"><polygon points="82.09 395.48 144.78 397.53 283.45 397.53 343.28 394.49 343.28 381.42 335.61 370.34 314.75 362.97 288.28 370.34 277.78 380.25 159.04 381.42 135.78 364.47 117.6 357.91 90.95 364.8 84.45 376.72 80.61 388.72 82.09 395.48" style="opacity: 0.6; transform-origin: 211.945px 377.72px;" class="animable" id="elxvnj177xcf"></polygon></g><path d="M85.74,385.57C88,380.1,96.86,371,102.31,368.72c5.3-2.22,17.88-2.64,23,0,5.4,2.79,12.23,14,14.08,19.81.68,2.14.48,7.28.26,10.67l148,1.56c-.31-4.11-.52-9.78.45-12.15,2.24-5.46,11.12-14.56,16.57-16.84,5.3-2.23,17.88-2.64,23,0,5.4,2.78,12.24,14,14.09,19.81a25.33,25.33,0,0,1,.44,6.73,14.77,14.77,0,0,0,3-2.95l1.39-1.88a14.5,14.5,0,0,0,2.86-8.65V380a14.58,14.58,0,0,0-2.11-7.55l-3.56-5.85V326.84a14.48,14.48,0,0,0-1.16-5.69l-14.22-33.43a14.52,14.52,0,0,0-12.88-8.83c-15.27-.52-45.23-1.42-57.4-1-17.7.6-65.16,5.44-79.31,6.91a12.21,12.21,0,0,0-7,3.16l-42,38.6L88,344.75a12.24,12.24,0,0,0-7,8.46l-3.94,17-1.31,1.71a12.28,12.28,0,0,0-2.43,8.91l.81,6.62a12.23,12.23,0,0,0,4.42,8l.52.42a12.16,12.16,0,0,0,6.29,2.66C85,394.41,84.7,388.09,85.74,385.57Z" style="fill: #FF2727; transform-origin: 211.341px 339.271px;" id="elsxw2vnl4jb" class="animable"></path><circle cx="111.88" cy="395.47" r="22.75" style="fill: rgb(38, 50, 56); transform-origin: 111.88px 395.47px;" id="el4y20db93zqc" class="animable"></circle><g id="el8lp3gi8s1lp"><circle cx="111.88" cy="395.47" r="15.85" style="fill: rgb(255, 255, 255); opacity: 0.5; transform-origin: 111.88px 395.47px;" class="animable" id="elvzsbdaqe9t"></circle></g><g id="elqedqxgv4z8c"><g style="opacity: 0.5; transform-origin: 111.857px 395.475px;" class="animable" id="elk8pt3wntq1"><path d="M106,390.26l-1.1-3.3a2.13,2.13,0,0,0-3.59-.78,14.05,14.05,0,0,0-2.78,4.8,2.14,2.14,0,0,0,2.47,2.74l3.4-.69A2.13,2.13,0,0,0,106,390.26Z" id="elhhpbnga3koa" class="animable" style="transform-origin: 102.271px 389.629px;"></path><path d="M113.48,387.81l2.3-2.61a2.12,2.12,0,0,0-1.11-3.49,13.57,13.57,0,0,0-5.58,0A2.12,2.12,0,0,0,108,385.2l2.31,2.61A2.12,2.12,0,0,0,113.48,387.81Z" id="elwfd2sl3l3qi" class="animable" style="transform-origin: 111.888px 384.971px;"></path><path d="M119.31,393l3.41.69a2.13,2.13,0,0,0,2.46-2.74,14,14,0,0,0-2.77-4.8,2.13,2.13,0,0,0-3.59.78l-1.11,3.3A2.14,2.14,0,0,0,119.31,393Z" id="el484fv7imbe7" class="animable" style="transform-origin: 121.442px 389.599px;"></path><path d="M117.71,400.69l1.11,3.3a2.13,2.13,0,0,0,3.59.78,14,14,0,0,0,2.77-4.8,2.13,2.13,0,0,0-2.46-2.74l-3.41.69A2.14,2.14,0,0,0,117.71,400.69Z" id="eltnllz3e6l68" class="animable" style="transform-origin: 121.442px 401.321px;"></path><path d="M110.28,403.14,108,405.75a2.12,2.12,0,0,0,1.12,3.49,13.57,13.57,0,0,0,5.58,0,2.12,2.12,0,0,0,1.11-3.49l-2.3-2.61A2.12,2.12,0,0,0,110.28,403.14Z" id="el6oywequanmy" class="animable" style="transform-origin: 111.906px 405.962px;"></path><path d="M104.44,397.92l-3.4-.69A2.14,2.14,0,0,0,98.57,400a14.05,14.05,0,0,0,2.78,4.8,2.13,2.13,0,0,0,3.59-.78l1.1-3.3A2.13,2.13,0,0,0,104.44,397.92Z" id="el8ihu5xfspwf" class="animable" style="transform-origin: 102.311px 401.335px;"></path></g></g><g id="elktwr2kclspr"><g style="opacity: 0.5; transform-origin: 111.875px 395.475px;" class="animable" id="elwro1uwsafmf"><circle cx="109.82" cy="393.42" r="1.07" style="fill: rgb(255, 255, 255); transform-origin: 109.82px 393.42px;" id="elknucon20odk" class="animable"></circle><path d="M115,393.42a1.07,1.07,0,1,1-1.07-1.07A1.07,1.07,0,0,1,115,393.42Z" style="fill: rgb(255, 255, 255); transform-origin: 113.93px 393.42px;" id="elg7rrt25306t" class="animable"></path><path d="M110.89,397.53a1.07,1.07,0,1,1-1.07-1.07A1.07,1.07,0,0,1,110.89,397.53Z" style="fill: rgb(255, 255, 255); transform-origin: 109.82px 397.53px;" id="elj0o3vpznri8" class="animable"></path><path d="M115,397.53a1.07,1.07,0,1,1-1.07-1.07A1.07,1.07,0,0,1,115,397.53Z" style="fill: rgb(255, 255, 255); transform-origin: 113.93px 397.53px;" id="el71ogkcvgr97" class="animable"></path></g></g><circle cx="315.74" cy="395.47" r="22.75" style="fill: rgb(38, 50, 56); transform-origin: 315.74px 395.47px;" id="el2o1rbtq008y" class="animable"></circle><g id="eljh6qvmqyn9"><circle cx="315.74" cy="395.47" r="15.85" style="fill: rgb(255, 255, 255); opacity: 0.5; transform-origin: 315.74px 395.47px;" class="animable" id="elq1mw56fj4rm"></circle></g><g id="elqvi21zoz6uc"><g style="opacity: 0.5; transform-origin: 315.717px 395.475px;" class="animable" id="ell5yxqyux0d"><path d="M309.9,390.26l-1.1-3.3a2.13,2.13,0,0,0-3.59-.78,14.05,14.05,0,0,0-2.78,4.8,2.14,2.14,0,0,0,2.47,2.74l3.4-.69A2.13,2.13,0,0,0,309.9,390.26Z" id="el2h22em1wbji" class="animable" style="transform-origin: 306.171px 389.629px;"></path><path d="M317.34,387.81l2.3-2.61a2.12,2.12,0,0,0-1.11-3.49,13.57,13.57,0,0,0-5.58,0,2.12,2.12,0,0,0-1.12,3.49l2.31,2.61A2.12,2.12,0,0,0,317.34,387.81Z" id="el7yyf63cnxqh" class="animable" style="transform-origin: 315.736px 384.98px;"></path><path d="M323.17,393l3.41.69A2.13,2.13,0,0,0,329,391a14,14,0,0,0-2.77-4.8,2.13,2.13,0,0,0-3.59.78l-1.11,3.3A2.14,2.14,0,0,0,323.17,393Z" id="elpw14hmxrujl" class="animable" style="transform-origin: 325.261px 389.618px;"></path><path d="M321.57,400.69l1.11,3.3a2.13,2.13,0,0,0,3.59.78A14,14,0,0,0,329,400a2.13,2.13,0,0,0-2.46-2.74l-3.41.69A2.14,2.14,0,0,0,321.57,400.69Z" id="elgeuen7xhdsm" class="animable" style="transform-origin: 325.285px 401.336px;"></path><path d="M314.14,403.14l-2.31,2.61a2.12,2.12,0,0,0,1.12,3.49,13.57,13.57,0,0,0,5.58,0,2.12,2.12,0,0,0,1.11-3.49l-2.3-2.61A2.12,2.12,0,0,0,314.14,403.14Z" id="elf5zs84lcw6h" class="animable" style="transform-origin: 315.736px 405.97px;"></path><path d="M308.3,397.92l-3.4-.69a2.14,2.14,0,0,0-2.47,2.74,14.05,14.05,0,0,0,2.78,4.8,2.13,2.13,0,0,0,3.59-.78l1.1-3.3A2.13,2.13,0,0,0,308.3,397.92Z" id="elmzigcfxzne" class="animable" style="transform-origin: 306.171px 401.321px;"></path></g></g><g id="el0wg7zu7264kd"><g style="opacity: 0.5; transform-origin: 315.735px 395.475px;" class="animable" id="elfh5yh4v02pg"><path d="M314.75,393.42a1.07,1.07,0,1,1-1.07-1.07A1.07,1.07,0,0,1,314.75,393.42Z" style="fill: rgb(255, 255, 255); transform-origin: 313.68px 393.42px;" id="elau549h3h82" class="animable"></path><circle cx="317.79" cy="393.42" r="1.07" style="fill: rgb(255, 255, 255); transform-origin: 317.79px 393.42px;" id="elfgpueez4no" class="animable"></circle><path d="M314.75,397.53a1.07,1.07,0,1,1-1.07-1.07A1.07,1.07,0,0,1,314.75,397.53Z" style="fill: rgb(255, 255, 255); transform-origin: 313.68px 397.53px;" id="elft1ygrrohbh" class="animable"></path><path d="M318.86,397.53a1.07,1.07,0,1,1-1.07-1.07A1.07,1.07,0,0,1,318.86,397.53Z" style="fill: rgb(255, 255, 255); transform-origin: 317.79px 397.53px;" id="elnqdoevee8v" class="animable"></path></g></g><path d="M170.51,294.43a4,4,0,0,0,.28-5.61l-41.08,37.73-1.2.52c.08.1.14.2.23.3a4,4,0,0,0,5.65.24Z" style="fill: rgb(38, 50, 56); transform-origin: 150.158px 308.742px;" id="el8omir3r844v" class="animable"></path><g id="elmtl0kpwgk3h"><path d="M82.55,372.72h0a.46.46,0,0,1-.46-.5L84,352.78a.46.46,0,0,1,.6-.39l1.74.58a4.43,4.43,0,0,1,3,5.15l-2.4,11.1A4.42,4.42,0,0,1,82.55,372.72Z" style="fill: rgb(255, 255, 255); opacity: 0.5; transform-origin: 85.763px 362.544px;" class="animable" id="el2tolm9a9b7"></path></g><g id="elxewg057psrn"><g style="opacity: 0.2; transform-origin: 213.715px 357.545px;" class="animable" id="elg3smpk4x6gc"><path d="M93.38,359.88h0a1.5,1.5,0,0,1,1.47-1.53l237.67-4.61a1.52,1.52,0,0,1,1.53,1.47h0a1.51,1.51,0,0,1-1.48,1.53L94.91,361.35A1.49,1.49,0,0,1,93.38,359.88Z" style="fill: rgb(255, 255, 255); transform-origin: 213.715px 357.545px;" id="elzgcq80mzyz8" class="animable"></path></g></g><path d="M243.41,331.79l44.23-.77a7.94,7.94,0,0,0,7.72-9.1L291,292.16a3.62,3.62,0,0,0-3.5-3.08c-7.67-.18-15.36-.31-21.47-.31-3,0-5.53,0-7.56.1-4,.14-10.31.59-17.7,1.21a3.6,3.6,0,0,0-3.3,3.35l-2.07,29.87A7.94,7.94,0,0,0,243.41,331.79Z" style="fill: rgb(38, 50, 56); transform-origin: 265.413px 310.28px;" id="el1y13sd997pb" class="animable"></path><path d="M332.16,324.83l-14-32.8a3.52,3.52,0,0,0-3.13-2.15c-2.45-.08-5.57-.19-9.09-.29a3.61,3.61,0,0,0-3.69,4.14l4.45,30a8,8,0,0,0,8,6.77l13.64-.23a4.13,4.13,0,0,0,4-3A4,4,0,0,0,332.16,324.83Z" style="fill: rgb(38, 50, 56); transform-origin: 317.331px 310.044px;" id="el93uc5laap6p" class="animable"></path><path d="M222.3,291.73c-16.2,1.52-32.64,3.22-39.64,4a10.56,10.56,0,0,0-6.07,2.74L152.06,321A7.09,7.09,0,0,0,157,333.28l59.45-1a7.93,7.93,0,0,0,7.78-7.39l2-29.29A3.61,3.61,0,0,0,222.3,291.73Z" style="fill: rgb(38, 50, 56); transform-origin: 188.02px 312.498px;" id="elc7jepi8oua" class="animable"></path><path d="M290.18,339.53l-10.33.2a1.5,1.5,0,0,0-1.47,1.5h0a1.5,1.5,0,0,0,1.53,1.5l10.33-.2a1.5,1.5,0,0,0,1.47-1.5h0A1.5,1.5,0,0,0,290.18,339.53Z" style="fill: rgb(38, 50, 56); transform-origin: 285.045px 341.13px;" id="elk2ojomfgyba" class="animable"></path><path d="M217.71,342.46h0a1.5,1.5,0,0,0-1.53-1.5l-10.33.2a1.5,1.5,0,0,0-1.47,1.5h0a1.5,1.5,0,0,0,1.53,1.5l10.33-.2A1.49,1.49,0,0,0,217.71,342.46Z" style="fill: rgb(38, 50, 56); transform-origin: 211.045px 342.56px;" id="elk11nfv9lbp" class="animable"></path><g id="elxiv0ouva54j"><g style="opacity: 0.2; transform-origin: 211.338px 385.55px;" class="animable" id="elgjml9dtcbf6"><path d="M85.74,385.57A26.93,26.93,0,0,1,90,379.11l-12.51.24a4.16,4.16,0,0,1-3.93-2.63,12.07,12.07,0,0,0-.22,4.11l.81,6.62a12.23,12.23,0,0,0,4.42,8l.52.42a12.16,12.16,0,0,0,6.29,2.66C85,394.41,84.7,388.09,85.74,385.57Z" id="elixpp26i0j1m" class="animable" style="transform-origin: 81.6281px 387.625px;"></path><path d="M287.64,400.76c-.31-4.11-.52-9.78.45-12.15,1.61-3.94,6.69-9.77,11.43-13.57l-165.36,3.21a47.82,47.82,0,0,1,5.22,10.28c.68,2.14.48,7.28.26,10.67Z" id="elmwgl3ft5wpk" class="animable" style="transform-origin: 216.84px 387.9px;"></path><path d="M341.73,391.58a25.33,25.33,0,0,1,.44,6.73,14.77,14.77,0,0,0,3-2.95l1.39-1.88a14.5,14.5,0,0,0,2.86-8.65V380a14.58,14.58,0,0,0-2.11-7.55L346,370.34a4.15,4.15,0,0,1-4,3.88l-10.89.21A51.33,51.33,0,0,1,341.73,391.58Z" id="eld7nmkpk1ctv" class="animable" style="transform-origin: 340.265px 384.325px;"></path></g></g><g id="elt5cfw9bd9g8"><g style="opacity: 0.2; transform-origin: 214.355px 385.485px;" class="animable" id="elscr6fehfaq"><path d="M148.71,386.76h0a2,2,0,0,1,2-2L278,382.25a2,2,0,0,1,2,2h0a2,2,0,0,1-2,2l-127.35,2.47A2,2,0,0,1,148.71,386.76Z" style="fill: rgb(255, 255, 255); transform-origin: 214.355px 385.485px;" id="el25v8ceh9ntd" class="animable"></path></g></g><g id="eloeup4o4afxf"><path d="M159.05,314.54l-7,6.42A7.09,7.09,0,0,0,157,333.28l2.07,0Z" style="opacity: 0.6; transform-origin: 154.407px 323.911px;" class="animable" id="elj2a0zz5vkib"></path></g><path d="M168.61,316.21h-3.53a3.2,3.2,0,0,0-3.2,3.2v4.92L156,325.47a1.55,1.55,0,0,0-1.26,1.53v1.39a1.55,1.55,0,0,0,2.12,1.45l5.61-2.17a3.2,3.2,0,0,0,3.33,1.35l3.33-.74a2.29,2.29,0,0,0,1.78-2.22v-7.58A2.27,2.27,0,0,0,168.61,316.21Z" style="fill: #FF2727; transform-origin: 162.825px 323.079px;" id="elfd2hlkjqfwl" class="animable"></path></g><defs>     <filter id="active" height="200%">         <feMorphology in="SourceAlpha" result="DILATED" operator="dilate" radius="2"></feMorphology>                <feFlood flood-color="#32DFEC" flood-opacity="1" result="PINK"></feFlood>        <feComposite in="PINK" in2="DILATED" operator="in" result="OUTLINE"></feComposite>        <feMerge>            <feMergeNode in="OUTLINE"></feMergeNode>            <feMergeNode in="SourceGraphic"></feMergeNode>        </feMerge>    </filter>    <filter id="hover" height="200%">        <feMorphology in="SourceAlpha" result="DILATED" operator="dilate" radius="2"></feMorphology>                <feFlood flood-color="#ff0000" flood-opacity="0.5" result="PINK"></feFlood>        <feComposite in="PINK" in2="DILATED" operator="in" result="OUTLINE"></feComposite>        <feMerge>            <feMergeNode in="OUTLINE"></feMergeNode>            <feMergeNode in="SourceGraphic"></feMergeNode>        </feMerge>            <feColorMatrix type="matrix" values="0   0   0   0   0                0   1   0   0   0                0   0   0   0   0                0   0   0   1   0 "></feColorMatrix>    </filter></defs></svg>